SplineFontDB: 3.2
FontName: SimplySerif-Book
FullName: Simply Serif Book
FamilyName: Simply Serif
Weight: Book
Copyright: Copyright (c) 2022-2026 by Wojciech Kalinowski "wmk69" with Reserved Font Name "SimplySerif-Book".\nThis Font Software is licensed under the SIL Open Font License, Version 1.1.
Version: 1.0.0; 2022-02-18
ItalicAngle: 0
UnderlinePosition: -80
UnderlineWidth: 200
Ascent: 1638
Descent: 410
InvalidEm: 0
LayerCount: 2
Layer: 0 1 "Warstwa t+AUIA-a" 1
Layer: 1 1 "Plan pierwszy" 0
XUID: [1021 783 23647091 2952791]
StyleMap: 0x0040
FSType: 0
OS2Version: 3
OS2_WeightWidthSlopeOnly: 0
OS2_UseTypoMetrics: 1
CreationTime: 1260698820
ModificationTime: 1645187034
PfmFamily: 17
TTFWeight: 400
TTFWidth: 5
LineGap: 200
VLineGap: 0
Panose: 2 1 5 3 7 4 5 6 2 4
OS2TypoAscent: 2000
OS2TypoAOffset: 0
OS2TypoDescent: -500
OS2TypoDOffset: 0
OS2TypoLinegap: 200
OS2WinAscent: 2000
OS2WinAOffset: 0
OS2WinDescent: 500
OS2WinDOffset: 0
HheadAscent: 2000
HheadAOffset: 0
HheadDescent: -500
HheadDOffset: 0
OS2SubXSize: 1434
OS2SubYSize: 1331
OS2SubXOff: 0
OS2SubYOff: 287
OS2SupXSize: 1434
OS2SupYSize: 1331
OS2SupXOff: 0
OS2SupYOff: 977
OS2StrikeYSize: 102
OS2StrikeYPos: 512
OS2CapHeight: 1510
OS2XHeight: 1100
OS2Vendor: '    '
OS2CodePages: 20000093.00000000
OS2UnicodeRanges: 8000002f.4000204b.00000000.00000000
Lookup: 258 0 0 "'kern' Kerning poziomy w tablicy 0" { "Podtablica 'kern' Kerning poziomy w tablicy 0" [307,0,4] } ['kern' ('DFLT' <'dflt' > 'grek' <'dflt' > 'latn' <'dflt' > ) ]
MarkAttachClasses: 1
DEI: 91125
KernClass2: 75 58 "Podtablica 'kern' Kerning poziomy w tablicy 0"
 84 A Agrave Aacute Acircumflex Atilde Adieresis Aring Amacron Abreve Aogonek Aringacute
 17 B uni1E02 uni1E9E
 47 C Ccedilla Cacute Ccircumflex Cdotaccent Ccaron
 122 D O Q Eth Ograve Oacute Ocircumflex Otilde Odieresis Oslash Dcaron Dcroat Omacron Obreve Ohungarumlaut Oslashacute uni1E0A
 92 E AE Egrave Eacute Ecircumflex Edieresis Emacron Ebreve Edotaccent Eogonek Ecaron OE AEacute
 9 F uni1E1E

StartChar: .notdef
Encoding: 65536 -1 0
Width: 994
Flags: W
HStem: 0 68<260 734> 1442 68<260 734>
VStem: 150 110<68 1442> 734 110<68 1442>
LayerCount: 2
Fore
SplineSet
150 0 m 1,0,-1
 150 1510 l 1,1,-1
 844 1510 l 1,2,-1
 844 0 l 1,3,-1
 150 0 l 1,0,-1
260 68 m 1,4,-1
 734 68 l 1,5,-1
 734 1442 l 1,6,-1
 260 1442 l 1,7,-1
 260 68 l 1,4,-1
EndSplineSet
Validated: 1
EndChar

StartChar: A
Encoding: 65 65 4
Width: 1475
GlyphClass: 2
Flags: W
HStem: 0 50<12.6697 120.751 1353 1462.33> 635 80<462 897> 1460 50<514.67 624.002>
DStem2: 130 90 431 635 0.353127 0.935575<-58.6877 616.18 701.973 1319.72> 839 1434 680 1293 0.352344 -0.935871<75.935 693.327 779.119 1467.37>
LayerCount: 2
Fore
SplineSet
102 0 m 2,0,1
 25 0 l 2,2,3
 10 0 10 0 10 15 c 2,4,-1
 10 35 l 2,5,6
 10 50 10 50 25 50 c 2,7,-1
 70 50 l 2,8,9
 115 50 115 50 130 90 c 2,10,-1
 632 1420 l 1,11,12
 617 1460 617 1460 572 1460 c 2,13,-1
 527 1460 l 2,14,15
 512 1460 512 1460 512 1475 c 2,16,-1
 512 1495 l 2,17,18
 512 1510 512 1510 527 1510 c 2,19,-1
 721 1510 l 2,20,21
 810 1510 810 1510 839 1434 c 2,22,-1
 1345 90 l 2,23,24
 1360 50 1360 50 1405 50 c 2,25,-1
 1450 50 l 2,26,27
 1465 50 1465 50 1465 35 c 2,28,-1
 1465 15 l 2,29,30
 1465 0 1465 0 1450 0 c 2,31,-1
 1256 0 l 2,32,33
 1167 0 1167 0 1138 76 c 2,34,-1
 928 635 l 1,35,-1
 431 635 l 1,36,-1
 220 76 l 2,37,38
 191 0 191 0 102 0 c 2,0,1
680 1293 m 1,39,-1
 462 715 l 1,40,-1
 897 715 l 1,41,-1
 680 1293 l 1,39,-1
EndSplineSet
Validated: 1
EndChar

StartChar: E
Encoding: 69 69 5
Width: 1143
GlyphClass: 2
Flags: W
HStem: 0 80<400 968.746> 0 50<52.6697 178.884> 715 80<400 741.365> 1430 80<400 916.746> 1460 50<52.6697 178.884>
VStem: 200 200<80.0806 715 795 1429.92> 752 50<593.68 693.884 816.116 916.32>
LayerCount: 2
Fore
SplineSet
65 0 m 2,0,1
 50 0 50 0 50 15 c 2,2,-1
 50 35 l 2,3,4
 50 50 50 50 65 50 c 2,5,-1
 110 50 l 2,6,7
 200 50 200 50 200 140 c 2,8,-1
 200 1370 l 2,9,10
 200 1460 200 1460 110 1460 c 2,11,-1
 65 1460 l 2,12,13
 50 1460 50 1460 50 1475 c 2,14,-1
 50 1495 l 2,15,16
 50 1510 50 1510 65 1510 c 2,17,-1
 880 1510 l 2,18,19
 950 1510 950 1510 987 1447 c 2,20,-1
 1069 1306 l 2,21,22
 1071 1303 1071 1303 1071 1299 c 0,23,24
 1071 1292 1071 1292 1062 1287 c 2,25,-1
 1041 1276 l 2,26,27
 1037 1274 1037 1274 1034 1274 c 0,28,29
 1027 1274 1027 1274 1021 1284 c 0,30,31
 933 1430 933 1430 764 1430 c 2,32,-1
 400 1430 l 1,33,-1
 400 795 l 1,34,-1
 662 795 l 2,35,36
 752 795 752 795 752 885 c 2,37,-1
 752 905 l 2,38,39
 752 919 752 919 766 919 c 2,40,-1
 786 919 l 2,41,42
 802 919 802 919 802 905 c 2,43,-1
 802 605 l 2,44,45
 802 591 802 591 786 591 c 2,46,-1
 766 591 l 2,47,48
 752 591 752 591 752 605 c 2,49,-1
 752 625 l 2,50,51
 752 715 752 715 662 715 c 2,52,-1
 400 715 l 1,53,-1
 400 80 l 1,54,-1
 816 80 l 2,55,56
 985 80 985 80 1073 226 c 0,57,58
 1079 236 1079 236 1086 236 c 0,59,60
 1089 236 1089 236 1093 234 c 2,61,-1
 1114 223 l 2,62,63
 1123 218 1123 218 1123 211 c 0,64,65
 1123 207 1123 207 1121 204 c 2,66,-1
 1039 63 l 2,67,68
 1002 0 1002 0 932 0 c 2,69,-1
 65 0 l 2,0,1
EndSplineSet
Validated: 1
EndChar

StartChar: F
Encoding: 70 70 6
Width: 1091
GlyphClass: 2
Flags: W
HStem: 0 21G<215 385> 715 80<400 741.365> 1430 80<400 916.746> 1460 50<52.6697 178.884>
VStem: 200 200<0 715 795 1429.92> 752 50<593.68 693.884 816.116 916.32>
LayerCount: 2
Fore
SplineSet
230 0 m 2,0,1
 200 0 200 0 200 30 c 2,2,-1
 200 1370 l 2,3,4
 200 1460 200 1460 110 1460 c 2,5,-1
 65 1460 l 2,6,7
 50 1460 50 1460 50 1475 c 2,8,-1
 50 1495 l 2,9,10
 50 1510 50 1510 65 1510 c 2,11,-1
 880 1510 l 2,12,13
 950 1510 950 1510 987 1447 c 2,14,-1
 1069 1306 l 2,15,16
 1071 1303 1071 1303 1071 1299 c 0,17,18
 1071 1292 1071 1292 1062 1287 c 2,19,-1
 1041 1276 l 2,20,21
 1037 1274 1037 1274 1034 1274 c 0,22,23
 1027 1274 1027 1274 1021 1284 c 0,24,25
 933 1430 933 1430 764 1430 c 2,26,-1
 400 1430 l 1,27,-1
 400 795 l 1,28,-1
 662 795 l 2,29,30
 752 795 752 795 752 885 c 2,31,-1
 752 905 l 2,32,33
 752 919 752 919 766 919 c 2,34,-1
 786 919 l 2,35,36
 802 919 802 919 802 905 c 2,37,-1
 802 605 l 2,38,39
 802 591 802 591 786 591 c 2,40,-1
 766 591 l 2,41,42
 752 591 752 591 752 605 c 2,43,-1
 752 625 l 2,44,45
 752 715 752 715 662 715 c 2,46,-1
 400 715 l 1,47,-1
 400 30 l 2,48,49
 400 0 400 0 370 0 c 2,50,-1
 230 0 l 2,0,1
EndSplineSet
Validated: 1
EndChar

StartChar: H
Encoding: 72 72 7
Width: 1399
GlyphClass: 2
Flags: W
HStem: 0 50<52.6697 178.884 1220.12 1346.33> 715 80<400 999> 1460 50<52.6697 178.884 1220.12 1346.33>
VStem: 200 200<60.293 715 795 1449.71> 999 200<60.293 715 795 1449.71>
CounterMasks: 1 e0
LayerCount: 2
Fore
SplineSet
260 0 m 2,0,-1
 65 0 l 2,1,2
 50 0 50 0 50 15 c 2,3,-1
 50 35 l 2,4,5
 50 50 50 50 65 50 c 2,6,-1
 110 50 l 2,7,8
 200 50 200 50 200 140 c 2,9,-1
 200 1370 l 2,10,11
 200 1460 200 1460 110 1460 c 2,12,-1
 65 1460 l 2,13,14
 50 1460 50 1460 50 1475 c 2,15,-1
 50 1495 l 2,16,17
 50 1510 50 1510 65 1510 c 2,18,-1
 260 1510 l 2,19,20
 400 1510 400 1510 400 1370 c 2,21,-1
 400 795 l 1,22,-1
 999 795 l 1,23,-1
 999 1370 l 2,24,25
 999 1510 999 1510 1139 1510 c 2,26,-1
 1334 1510 l 2,27,28
 1349 1510 1349 1510 1349 1495 c 2,29,-1
 1349 1475 l 2,30,31
 1349 1460 1349 1460 1334 1460 c 2,32,-1
 1289 1460 l 2,33,34
 1199 1460 1199 1460 1199 1370 c 2,35,-1
 1199 140 l 2,36,37
 1199 50 1199 50 1289 50 c 2,38,-1
 1334 50 l 2,39,40
 1349 50 1349 50 1349 35 c 2,41,-1
 1349 15 l 2,42,43
 1349 0 1349 0 1334 0 c 2,44,-1
 1139 0 l 2,45,46
 999 0 999 0 999 140 c 2,47,-1
 999 715 l 1,48,-1
 400 715 l 1,49,-1
 400 140 l 2,50,51
 400 0 400 0 260 0 c 2,0,-1
EndSplineSet
Validated: 1
EndChar

StartChar: I
Encoding: 73 73 8
Width: 600
GlyphClass: 2
Flags: W
HStem: 0 21G<215 385> 1460 50<52.6697 178.884>
VStem: 200 200<0 1449.71>
LayerCount: 2
Fore
SplineSet
370 0 m 2,0,-1
 230 0 l 2,1,2
 200 0 200 0 200 30 c 2,3,-1
 200 1370 l 2,4,5
 200 1460 200 1460 110 1460 c 2,6,-1
 65 1460 l 2,7,8
 50 1460 50 1460 50 1475 c 2,9,-1
 50 1495 l 2,10,11
 50 1510 50 1510 65 1510 c 2,12,-1
 260 1510 l 2,13,14
 400 1510 400 1510 400 1370 c 2,15,-1
 400 30 l 2,16,17
 400 0 400 0 370 0 c 2,0,-1
EndSplineSet
Validated: 1
EndChar

StartChar: L
Encoding: 76 76 9
Width: 1123
GlyphClass: 2
Flags: W
HStem: 0 80<400 948.746> 0 50<52.6697 178.884> 1460 50<52.6697 178.884>
VStem: 200 200<80.0806 1449.71>
LayerCount: 2
Fore
SplineSet
65 0 m 2,0,1
 50 0 50 0 50 15 c 2,2,-1
 50 35 l 2,3,4
 50 50 50 50 65 50 c 2,5,-1
 110 50 l 2,6,7
 200 50 200 50 200 140 c 2,8,-1
 200 1370 l 2,9,10
 200 1460 200 1460 110 1460 c 2,11,-1
 65 1460 l 2,12,13
 50 1460 50 1460 50 1475 c 2,14,-1
 50 1495 l 2,15,16
 50 1510 50 1510 65 1510 c 2,17,-1
 260 1510 l 2,18,19
 400 1510 400 1510 400 1370 c 2,20,-1
 400 80 l 1,21,-1
 796 80 l 2,22,23
 965 80 965 80 1053 226 c 0,24,25
 1059 236 1059 236 1066 236 c 0,26,27
 1069 236 1069 236 1073 234 c 2,28,-1
 1094 223 l 2,29,30
 1103 218 1103 218 1103 211 c 0,31,32
 1103 207 1103 207 1101 204 c 2,33,-1
 1019 63 l 2,34,35
 982 0 982 0 912 0 c 2,36,-1
 65 0 l 2,0,1
EndSplineSet
Validated: 1
EndChar

StartChar: O
Encoding: 79 79 10
Width: 1514
GlyphClass: 2
Flags: W
HStem: -20 61<614.379 899.621> 1469 61<614.379 899.621>
VStem: 100 222<458.224 1051.78> 1192 222<458.342 1051.89>
LayerCount: 2
Fore
SplineSet
757 41 m 128,-1,1
 956 41 956 41 1072 238 c 0,2,3
 1192 442 1192 442 1192 756 c 0,4,5
 1192 1068 1192 1068 1072 1272 c 0,6,7
 956 1469 956 1469 757 1469 c 128,-1,8
 558 1469 558 1469 442 1272 c 0,9,10
 322 1068 322 1068 322 755 c 128,-1,11
 322 442 322 442 442 238 c 0,12,0
 558 41 558 41 757 41 c 128,-1,1
757 -20 m 128,-1,14
 457 -20 457 -20 278 206 c 0,15,16
 100 430 100 430 100 755 c 128,-1,17
 100 1080 100 1080 278 1304 c 0,18,19
 457 1530 457 1530 757 1530 c 128,-1,20
 1057 1530 1057 1530 1236 1304 c 0,21,22
 1414 1080 1414 1080 1414 755 c 128,-1,23
 1414 430 1414 430 1236 206 c 0,24,13
 1057 -20 1057 -20 757 -20 c 128,-1,14
EndSplineSet
Validated: 1
EndChar

StartChar: V
Encoding: 86 86 11
Width: 1476
GlyphClass: 2
Flags: W
HStem: 0 21G<631.5 844.5> 1460 50<12.6697 122.344 1354.66 1463.33>
DStem2: 337 1434 130 1420 0.323367 -0.946274<-89.1914 1417.19> 796 93 871 30 0.323367 0.946274<0 1490.43>
LayerCount: 2
Fore
SplineSet
648 0 m 2,0,1
 615 0 615 0 605 30 c 2,2,-1
 130 1420 l 2,3,4
 116 1460 116 1460 70 1460 c 2,5,-1
 25 1460 l 2,6,7
 10 1460 10 1460 10 1475 c 2,8,-1
 10 1495 l 2,9,10
 10 1510 10 1510 25 1510 c 2,11,-1
 219 1510 l 2,12,13
 311 1510 311 1510 337 1434 c 2,14,-1
 796 93 l 1,15,-1
 1256 1434 l 2,16,17
 1282 1510 1282 1510 1374 1510 c 2,18,-1
 1451 1510 l 2,19,20
 1466 1510 1466 1510 1466 1495 c 2,21,-1
 1466 1475 l 2,22,23
 1466 1460 1466 1460 1451 1460 c 2,24,-1
 1406 1460 l 2,25,26
 1360 1460 1360 1460 1346 1420 c 2,27,-1
 871 30 l 2,28,29
 861 0 861 0 828 0 c 2,30,-1
 648 0 l 2,0,1
EndSplineSet
Validated: 1
EndChar

StartChar: W
Encoding: 87 87 12
Width: 1993
GlyphClass: 2
Flags: W
HStem: 0 21G<631.5 844.5 1148.5 1361.5> 1460 50<12.6697 122.344 529.67 639.344 1354.66 1463.33 1871.66 1980.33>
DStem2: 337 1434 130 1420 0.323367 -0.946274<-89.1914 1417.19> 854 1434 647 1420 0.323367 -0.946274<-89.1914 620.459 767.513 878.581 1027.2 1417.19> 796 93 871 30 0.323367 0.946274<0 352.341 797.242 1490.43> 1313 93 1388 30 0.323367 0.946274<0 1490.43>
LayerCount: 2
Fore
SplineSet
648 0 m 2,0,1
 615 0 615 0 605 30 c 2,2,-1
 130 1420 l 2,3,4
 116 1460 116 1460 70 1460 c 2,5,-1
 25 1460 l 2,6,7
 10 1460 10 1460 10 1475 c 2,8,-1
 10 1495 l 2,9,10
 10 1510 10 1510 25 1510 c 2,11,-1
 219 1510 l 2,12,13
 311 1510 311 1510 337 1434 c 2,14,-1
 796 93 l 1,15,-1
 949 538 l 1,16,-1
 647 1420 l 2,17,18
 633 1460 633 1460 587 1460 c 2,19,-1
 542 1460 l 2,20,21
 527 1460 527 1460 527 1475 c 2,22,-1
 527 1495 l 2,23,24
 527 1510 527 1510 542 1510 c 2,25,-1
 736 1510 l 2,26,27
 828 1510 828 1510 854 1434 c 2,28,-1
 1055 847 l 1,29,-1
 1256 1434 l 2,30,31
 1282 1510 1282 1510 1374 1510 c 2,32,-1
 1451 1510 l 2,33,34
 1466 1510 1466 1510 1466 1495 c 2,35,-1
 1466 1475 l 2,36,37
 1466 1460 1466 1460 1451 1460 c 2,38,-1
 1406 1460 l 2,39,40
 1360 1460 1360 1460 1346 1420 c 2,41,-1
 1103 708 l 1,42,-1
 1313 93 l 1,43,-1
 1773 1434 l 2,44,45
 1799 1510 1799 1510 1891 1510 c 2,46,-1
 1968 1510 l 2,47,48
 1983 1510 1983 1510 1983 1495 c 2,49,-1
 1983 1475 l 2,50,51
 1983 1460 1983 1460 1968 1460 c 2,52,-1
 1923 1460 l 2,53,54
 1877 1460 1877 1460 1863 1420 c 2,55,-1
 1388 30 l 2,56,57
 1378 0 1378 0 1345 0 c 2,58,-1
 1165 0 l 2,59,60
 1132 0 1132 0 1122 30 c 2,61,-1
 996 397 l 1,62,-1
 871 30 l 2,63,64
 861 0 861 0 828 0 c 2,65,-1
 648 0 l 2,0,1
EndSplineSet
Validated: 1
EndChar

StartChar: Z
Encoding: 90 90 13
Width: 1198
GlyphClass: 2
Flags: W
HStem: 0 80<286 993.746> 1430 80<213.254 823>
DStem2: 69 104 286 80 0.494302 0.86929<86.4006 1525.38>
LayerCount: 2
Fore
SplineSet
125 0 m 2,0,1
 50 0 50 0 50 45 c 0,2,3
 50 71 50 71 69 104 c 2,4,-1
 823 1430 l 1,5,-1
 366 1430 l 2,6,7
 197 1430 197 1430 109 1284 c 0,8,9
 103 1274 103 1274 96 1274 c 0,10,11
 93 1274 93 1274 89 1276 c 2,12,-1
 68 1287 l 2,13,14
 59 1292 59 1292 59 1299 c 0,15,16
 59 1303 59 1303 61 1306 c 2,17,-1
 143 1447 l 2,18,19
 180 1510 180 1510 250 1510 c 2,20,-1
 984 1510 l 2,21,22
 1059 1510 1059 1510 1059 1465 c 0,23,24
 1059 1439 1059 1439 1040 1406 c 2,25,-1
 286 80 l 1,26,-1
 841 80 l 2,27,28
 1010 80 1010 80 1098 226 c 0,29,30
 1104 236 1104 236 1111 236 c 0,31,32
 1114 236 1114 236 1118 234 c 2,33,-1
 1139 223 l 2,34,35
 1148 218 1148 218 1148 211 c 0,36,37
 1148 207 1148 207 1146 204 c 2,38,-1
 1064 63 l 2,39,40
 1027 0 1027 0 957 0 c 2,41,-1
 125 0 l 2,0,1
EndSplineSet
Validated: 1
EndChar

StartChar: c
Encoding: 99 99 14
Width: 1106
GlyphClass: 2
Flags: W
HStem: -20 50<510.357 760.674> 1070 50<508.688 750.437>
VStem: 100 196<296.862 805.123> 922 53<205.781 331.063 768.465 872.492>
LayerCount: 2
Fore
SplineSet
594 -20 m 0,0,1
 381 -20 381 -20 255 119 c 0,2,3
 100 289 100 289 100 550 c 0,4,5
 100 820 100 820 254 979 c 0,6,7
 391 1120 391 1120 593 1120 c 0,8,9
 800 1120 800 1120 941 1012 c 0,10,11
 975 986 975 986 975 938 c 2,12,-1
 975 782 l 2,13,14
 975 767 975 767 960 767 c 2,15,-1
 937 767 l 2,16,17
 924 767 924 767 922 782 c 0,18,19
 866 1070 866 1070 634 1070 c 0,20,21
 477 1070 477 1070 388 944 c 0,22,23
 296 814 296 814 296 550.5 c 128,-1,24
 296 287 296 287 389 154 c 0,25,26
 476 30 476 30 635 30 c 0,27,28
 885 30 885 30 923 318 c 0,29,30
 925 333 925 333 938 333 c 2,31,-1
 961 333 l 2,32,33
 976 333 976 333 976 318 c 2,34,-1
 976 162 l 2,35,36
 976 114 976 114 942 88 c 0,37,38
 801 -20 801 -20 594 -20 c 0,0,1
EndSplineSet
Validated: 1
EndChar

StartChar: d
Encoding: 100 100 15
Width: 1239
GlyphClass: 2
Flags: W
HStem: -20 55<487.696 679.588> 0 50<1060.12 1186.33> 1065 55<482.499 684.559> 1460 50<711.67 837.884>
VStem: 100 197<289.961 810.225> 859 180<60.293 183 224.672 877.82 917 1449.71>
LayerCount: 2
Fore
SplineSet
583 35 m 128,-1,1
 695 35 695 35 780 161 c 0,2,3
 839 249 839 249 859 392 c 1,4,-1
 859 709 l 1,5,6
 839 856 839 856 778 947 c 0,7,8
 700 1065 700 1065 583 1065 c 128,-1,9
 466 1065 466 1065 388 947 c 0,10,11
 297 809 297 809 297 550 c 0,12,13
 297 294 297 294 386 161 c 0,14,0
 471 35 471 35 583 35 c 128,-1,1
100 550 m 0,15,16
 100 818 100 818 248 980 c 0,17,18
 376 1120 376 1120 553 1120 c 0,19,20
 653 1120 653 1120 721 1080 c 0,21,22
 785 1042 785 1042 827 976 c 0,23,24
 845 948 845 948 859 917 c 1,25,-1
 859 1370 l 2,26,27
 859 1460 859 1460 769 1460 c 2,28,-1
 724 1460 l 2,29,30
 709 1460 709 1460 709 1475 c 2,31,-1
 709 1495 l 2,32,33
 709 1510 709 1510 724 1510 c 2,34,-1
 899 1510 l 2,35,36
 1039 1510 1039 1510 1039 1370 c 2,37,-1
 1039 140 l 2,38,39
 1039 50 1039 50 1129 50 c 2,40,-1
 1174 50 l 2,41,42
 1189 50 1189 50 1189 35 c 2,43,-1
 1189 15 l 2,44,45
 1189 0 1189 0 1174 0 c 2,46,-1
 999 0 l 2,47,48
 859 0 859 0 859 140 c 2,49,-1
 859 183 l 1,50,51
 845 152 845 152 827 124 c 0,52,53
 785 58 785 58 721 20 c 0,54,55
 653 -20 653 -20 553 -20 c 0,56,57
 376 -20 376 -20 248 120 c 0,58,59
 100 286 100 286 100 550 c 0,15,16
EndSplineSet
Validated: 1
EndChar

StartChar: e
Encoding: 101 101 16
Width: 1156
GlyphClass: 2
Flags: W
HStem: -20 50<510.357 760.674> 550 60<299 857> 1070 50<492.006 683.994>
VStem: 100 198<299.736 550 610 805.5> 857 199<610 838.797> 923 53<212.883 331.535>
LayerCount: 2
Fore
SplineSet
594 -20 m 0,0,1
 381 -20 381 -20 255 119 c 0,2,3
 100 289 100 289 100 550 c 0,4,5
 100 820 100 820 254 979 c 0,6,7
 391 1120 391 1120 588 1120 c 128,-1,8
 785 1120 785 1120 922 979 c 0,9,10
 1056 841 1056 841 1056 580 c 0,11,12
 1056 550 1056 550 1026 550 c 2,13,-1
 298 550 l 1,14,15
 298 284 298 284 389 154 c 0,16,17
 476 30 476 30 635 30 c 0,18,19
 885 30 885 30 923 318 c 0,20,21
 925 333 925 333 938 333 c 2,22,-1
 961 333 l 2,23,24
 976 333 976 333 976 318 c 2,25,-1
 976 162 l 2,26,27
 976 114 976 114 942 88 c 0,28,29
 801 -20 801 -20 594 -20 c 0,0,1
299 610 m 1,30,-1
 857 610 l 1,31,32
 850 855 850 855 784 952 c 0,33,34
 703 1070 703 1070 588 1070 c 128,-1,35
 473 1070 473 1070 392 952 c 0,36,37
 308 830 308 830 299 610 c 1,30,-1
EndSplineSet
Validated: 1
EndChar

StartChar: h
Encoding: 104 104 17
Width: 1288
GlyphClass: 2
Flags: W
HStem: 0 50<1109.12 1235.33> 1020 100<609.012 846.719> 1460 50<52.6697 178.884>
VStem: 200 180<0 530.559 574 1449.71> 908 180<60.293 956.875>
LayerCount: 2
Fore
SplineSet
350 0 m 2,0,-1
 230 0 l 2,1,2
 200 0 200 0 200 30 c 2,3,-1
 200 1370 l 2,4,5
 200 1460 200 1460 110 1460 c 2,6,-1
 65 1460 l 2,7,8
 50 1460 50 1460 50 1475 c 2,9,-1
 50 1495 l 2,10,11
 50 1510 50 1510 65 1510 c 2,12,-1
 240 1510 l 2,13,14
 380 1510 380 1510 380 1370 c 2,15,-1
 380 574 l 1,16,17
 441 1120 441 1120 778 1120 c 0,18,19
 921 1120 921 1120 1002 1036 c 0,20,21
 1088 947 1088 947 1088 770 c 2,22,-1
 1088 140 l 2,23,24
 1088 50 1088 50 1178 50 c 2,25,-1
 1223 50 l 2,26,27
 1238 50 1238 50 1238 35 c 2,28,-1
 1238 15 l 2,29,30
 1238 0 1238 0 1223 0 c 2,31,-1
 1048 0 l 2,32,33
 908 0 908 0 908 140 c 2,34,-1
 908 770 l 2,35,36
 908 890 908 890 876 941 c 0,37,38
 826 1020 826 1020 725 1020 c 0,39,40
 380 1020 380 1020 380 30 c 0,41,42
 380 0 380 0 350 0 c 2,0,-1
EndSplineSet
Validated: 1
EndChar

StartChar: i
Encoding: 105 105 18
Width: 580
GlyphClass: 2
Flags: W
HStem: 0 50<401.116 527.33> 1050 50<52.6697 178.884> 1279 238<188.066 351.934>
VStem: 153 234<1314.58 1481.42> 200 180<60.293 1039.71>
LayerCount: 2
Fore
SplineSet
340 0 m 2,0,1
 200 0 200 0 200 140 c 2,2,-1
 200 960 l 2,3,4
 200 1050 200 1050 110 1050 c 2,5,-1
 65 1050 l 2,6,7
 50 1050 50 1050 50 1065 c 2,8,-1
 50 1085 l 2,9,10
 50 1100 50 1100 65 1100 c 2,11,-1
 240 1100 l 2,12,13
 380 1100 380 1100 380 960 c 2,14,-1
 380 140 l 2,15,16
 380 50 380 50 470 50 c 2,17,-1
 515 50 l 2,18,19
 530 50 530 50 530 35 c 2,20,-1
 530 15 l 2,21,22
 530 0 530 0 515 0 c 2,23,-1
 340 0 l 2,0,1
270 1517 m 128,-1,25
 319 1517 319 1517 353 1482.5 c 128,-1,26
 387 1448 387 1448 387 1398 c 128,-1,27
 387 1348 387 1348 353 1313.5 c 128,-1,28
 319 1279 319 1279 270 1279 c 128,-1,29
 221 1279 221 1279 187 1313.5 c 128,-1,30
 153 1348 153 1348 153 1398 c 128,-1,31
 153 1448 153 1448 187 1482.5 c 128,-1,24
 221 1517 221 1517 270 1517 c 128,-1,25
EndSplineSet
Validated: 1
EndChar

StartChar: j
Encoding: 106 106 19
Width: 580
GlyphClass: 2
Flags: W
HStem: -410 21G<70 240> 1050 50<52.6697 178.884> 1279 238<188.066 351.934>
VStem: 153 234<1314.58 1481.42> 200 180<-72.5586 1039.71>
LayerCount: 2
Fore
SplineSet
100 -410 m 1,0,-1
 70 -410 l 1,1,2
 200 -146 200 -146 200 200 c 2,3,-1
 200 960 l 2,4,5
 200 1050 200 1050 110 1050 c 2,6,-1
 65 1050 l 2,7,8
 50 1050 50 1050 50 1065 c 2,9,-1
 50 1085 l 2,10,11
 50 1100 50 1100 65 1100 c 2,12,-1
 240 1100 l 2,13,14
 380 1100 380 1100 380 960 c 2,15,-1
 380 200 l 2,16,17
 380 -177 380 -177 100 -410 c 1,0,-1
270 1517 m 128,-1,19
 319 1517 319 1517 353 1482.5 c 128,-1,20
 387 1448 387 1448 387 1398 c 128,-1,21
 387 1348 387 1348 353 1313.5 c 128,-1,22
 319 1279 319 1279 270 1279 c 128,-1,23
 221 1279 221 1279 187 1313.5 c 128,-1,24
 153 1348 153 1348 153 1398 c 128,-1,25
 153 1448 153 1448 187 1482.5 c 128,-1,18
 221 1517 221 1517 270 1517 c 128,-1,19
EndSplineSet
Validated: 1
EndChar

StartChar: k
Encoding: 107 107 20
Width: 1085
GlyphClass: 2
Flags: W
HStem: 0 50<965.732 1072.33> 1050 50<935.65 1042.33> 1460 50<52.6697 178.884>
VStem: 200 180<0 156 293 1449.71>
DStem2: 380 293 380 156 0.538447 0.84266<0 205.225 408.01 968.443> 662 597 553 426 0.500363 -0.865816<93.5149 606.172>
LayerCount: 2
Fore
SplineSet
230 0 m 2,0,1
 200 0 200 0 200 30 c 2,2,-1
 200 1370 l 2,3,4
 200 1460 200 1460 110 1460 c 2,5,-1
 65 1460 l 2,6,7
 50 1460 50 1460 50 1475 c 2,8,-1
 50 1495 l 2,9,10
 50 1510 50 1510 65 1510 c 2,11,-1
 240 1510 l 2,12,13
 380 1510 380 1510 380 1370 c 2,14,-1
 380 293 l 1,15,-1
 852 1033 l 2,16,17
 895 1100 895 1100 976 1100 c 2,18,-1
 1030 1100 l 2,19,20
 1045 1100 1045 1100 1045 1085 c 2,21,-1
 1045 1065 l 2,22,23
 1045 1050 1045 1050 1030 1050 c 2,24,-1
 985 1050 l 2,25,26
 951 1050 951 1050 934 1023 c 2,27,-1
 662 597 l 1,28,-1
 955 90 l 2,29,30
 978 50 978 50 1015 50 c 2,31,-1
 1060 50 l 2,32,33
 1075 50 1075 50 1075 35 c 2,34,-1
 1075 15 l 2,35,36
 1075 0 1075 0 1060 0 c 2,37,-1
 885 0 l 2,38,39
 800 0 800 0 757 74 c 2,40,-1
 553 426 l 1,41,-1
 380 156 l 1,42,-1
 380 30 l 2,43,44
 380 0 380 0 350 0 c 2,45,-1
 230 0 l 2,0,1
EndSplineSet
Validated: 1
EndChar

StartChar: l
Encoding: 108 108 21
Width: 580
GlyphClass: 2
Flags: W
HStem: 0 50<401.116 527.33> 1460 50<52.6697 178.884>
VStem: 200 180<60.293 1449.71>
LayerCount: 2
Fore
SplineSet
340 0 m 2,0,1
 200 0 200 0 200 140 c 2,2,-1
 200 1370 l 2,3,4
 200 1460 200 1460 110 1460 c 2,5,-1
 65 1460 l 2,6,7
 50 1460 50 1460 50 1475 c 2,8,-1
 50 1495 l 2,9,10
 50 1510 50 1510 65 1510 c 2,11,-1
 240 1510 l 2,12,13
 380 1510 380 1510 380 1370 c 2,14,-1
 380 140 l 2,15,16
 380 50 380 50 470 50 c 2,17,-1
 515 50 l 2,18,19
 530 50 530 50 530 35 c 2,20,-1
 530 15 l 2,21,22
 530 0 530 0 515 0 c 2,23,-1
 340 0 l 2,0,1
EndSplineSet
Validated: 1
EndChar

StartChar: m
Encoding: 109 109 22
Width: 1976
GlyphClass: 2
Flags: W
HStem: 0 50<1797.12 1923.33> 1020 100<601.41 826.719 1297.01 1534.72> 1050 50<52.6697 178.884>
VStem: 200 180<0 530.559 574 1039.71> 888 180<0 530.559 574 956.875> 1596 180<60.293 956.875>
LayerCount: 2
Fore
SplineSet
230 0 m 2,0,1
 200 0 200 0 200 30 c 2,2,-1
 200 960 l 2,3,4
 200 1050 200 1050 110 1050 c 2,5,-1
 65 1050 l 2,6,7
 50 1050 50 1050 50 1065 c 2,8,-1
 50 1085 l 2,9,10
 50 1100 50 1100 65 1100 c 2,11,-1
 240 1100 l 2,12,13
 380 1100 380 1100 380 960 c 2,14,-1
 380 574 l 1,15,16
 441 1120 441 1120 758 1120 c 0,17,18
 901 1120 901 1120 982 1036 c 0,19,20
 1068 947 1068 947 1068 770 c 2,21,-1
 1068 574 l 1,22,23
 1129 1120 1129 1120 1466 1120 c 0,24,25
 1609 1120 1609 1120 1690 1036 c 0,26,27
 1776 947 1776 947 1776 770 c 2,28,-1
 1776 140 l 2,29,30
 1776 50 1776 50 1866 50 c 2,31,-1
 1911 50 l 2,32,33
 1926 50 1926 50 1926 35 c 2,34,-1
 1926 15 l 2,35,36
 1926 0 1926 0 1911 0 c 2,37,-1
 1736 0 l 2,38,39
 1596 0 1596 0 1596 140 c 2,40,-1
 1596 770 l 2,41,42
 1596 890 1596 890 1564 941 c 0,43,44
 1514 1020 1514 1020 1413 1020 c 0,45,46
 1068 1020 1068 1020 1068 30 c 0,47,48
 1068 0 1068 0 1038 0 c 2,49,-1
 918 0 l 2,50,51
 888 0 888 0 888 30 c 2,52,-1
 888 770 l 2,53,54
 888 890 888 890 856 941 c 0,55,56
 806 1020 806 1020 705 1020 c 0,57,58
 380 1020 380 1020 380 30 c 24,59,60
 380 0 380 0 350 0 c 2,61,-1
 230 0 l 2,0,1
EndSplineSet
Validated: 1
EndChar

StartChar: n
Encoding: 110 110 23
Width: 1288
GlyphClass: 2
Flags: W
HStem: 0 50<1109.12 1235.33> 1020 100<609.012 846.719> 1050 50<52.6697 178.884>
VStem: 200 180<0 530.559 574 1039.71> 908 180<60.293 956.875>
LayerCount: 2
Fore
SplineSet
230 0 m 2,0,1
 200 0 200 0 200 30 c 2,2,-1
 200 960 l 2,3,4
 200 1050 200 1050 110 1050 c 2,5,-1
 65 1050 l 2,6,7
 50 1050 50 1050 50 1065 c 2,8,-1
 50 1085 l 2,9,10
 50 1100 50 1100 65 1100 c 2,11,-1
 240 1100 l 2,12,13
 380 1100 380 1100 380 960 c 2,14,-1
 380 574 l 1,15,16
 441 1120 441 1120 778 1120 c 0,17,18
 921 1120 921 1120 1002 1036 c 0,19,20
 1088 947 1088 947 1088 770 c 2,21,-1
 1088 140 l 2,22,23
 1088 50 1088 50 1178 50 c 2,24,-1
 1223 50 l 2,25,26
 1238 50 1238 50 1238 35 c 2,27,-1
 1238 15 l 2,28,29
 1238 0 1238 0 1223 0 c 2,30,-1
 1048 0 l 2,31,32
 908 0 908 0 908 140 c 2,33,-1
 908 770 l 2,34,35
 908 890 908 890 876 941 c 0,36,37
 826 1020 826 1020 725 1020 c 0,38,39
 380 1020 380 1020 380 30 c 0,40,41
 380 0 380 0 350 0 c 2,42,-1
 230 0 l 2,0,1
EndSplineSet
Validated: 1
EndChar

StartChar: o
Encoding: 111 111 24
Width: 1186
GlyphClass: 2
Flags: W
HStem: -20 50<497.604 688.888> 1070 50<494.16 691.84>
VStem: 100 198<296.884 806.34> 888 198<297.623 806.586>
LayerCount: 2
Fore
SplineSet
593 30 m 0,0,1
 711 30 711 30 797 156 c 0,2,3
 888 289 888 289 888 550 c 0,4,5
 888 815 888 815 794 952 c 0,6,7
 713 1070 713 1070 593 1070 c 128,-1,8
 473 1070 473 1070 392 952 c 0,9,10
 298 814 298 814 298 550 c 128,-1,11
 298 286 298 286 389 156 c 0,12,13
 477 30 477 30 593 30 c 0,0,1
593 -20 m 128,-1,15
 381 -20 381 -20 255 119 c 0,16,17
 100 289 100 289 100 550 c 0,18,19
 100 820 100 820 254 979 c 0,20,21
 391 1120 391 1120 593 1120 c 128,-1,22
 795 1120 795 1120 932 979 c 0,23,24
 1086 820 1086 820 1086 550 c 0,25,26
 1086 289 1086 289 931 119 c 0,27,14
 805 -20 805 -20 593 -20 c 128,-1,15
EndSplineSet
Validated: 1
EndChar

StartChar: r
Encoding: 114 114 25
Width: 1108
GlyphClass: 2
Flags: W
HStem: 0 21G<215 365> 1020 100<609.012 846.719> 1050 50<52.6697 178.884>
VStem: 200 180<0 530.559 574 1039.71> 908 180<740 956.875>
LayerCount: 2
Fore
SplineSet
350 0 m 2,0,-1
 230 0 l 2,1,2
 200 0 200 0 200 30 c 2,3,-1
 200 960 l 2,4,5
 200 1050 200 1050 110 1050 c 2,6,-1
 65 1050 l 2,7,8
 50 1050 50 1050 50 1065 c 2,9,-1
 50 1085 l 2,10,11
 50 1100 50 1100 65 1100 c 2,12,-1
 240 1100 l 2,13,14
 380 1100 380 1100 380 960 c 2,15,-1
 380 574 l 1,16,17
 441 1120 441 1120 778 1120 c 0,18,19
 921 1120 921 1120 1002 1036 c 0,20,21
 1088 947 1088 947 1088 770 c 0,22,23
 1088 740 1088 740 1058 740 c 2,24,-1
 938 740 l 2,25,26
 908 740 908 740 908 770 c 0,27,28
 908 890 908 890 876 941 c 0,29,30
 826 1020 826 1020 725 1020 c 0,31,32
 380 1020 380 1020 380 30 c 0,33,34
 380 0 380 0 350 0 c 2,0,-1
EndSplineSet
Validated: 1
EndChar

StartChar: t
Encoding: 116 116 26
Width: 640
GlyphClass: 2
Flags: W
HStem: 0 50<431.116 557.33> 1040 60<10 230 410 630> 1460 50<82.6697 208.884>
VStem: 230 180<60.293 1040 1100 1449.71>
LayerCount: 2
Fore
SplineSet
370 0 m 2,0,1
 230 0 230 0 230 140 c 2,2,-1
 230 1040 l 1,3,-1
 25 1040 l 2,4,5
 10 1040 10 1040 10 1055 c 2,6,-1
 10 1085 l 2,7,8
 10 1100 10 1100 25 1100 c 2,9,-1
 230 1100 l 1,10,-1
 230 1370 l 2,11,12
 230 1460 230 1460 140 1460 c 2,13,-1
 95 1460 l 2,14,15
 80 1460 80 1460 80 1475 c 2,16,-1
 80 1495 l 2,17,18
 80 1510 80 1510 95 1510 c 2,19,-1
 270 1510 l 2,20,21
 410 1510 410 1510 410 1370 c 2,22,-1
 410 1100 l 1,23,-1
 615 1100 l 2,24,25
 630 1100 630 1100 630 1085 c 2,26,-1
 630 1055 l 2,27,28
 630 1040 630 1040 615 1040 c 2,29,-1
 410 1040 l 1,30,-1
 410 140 l 2,31,32
 410 50 410 50 500 50 c 2,33,-1
 545 50 l 2,34,35
 560 50 560 50 560 35 c 2,36,-1
 560 15 l 2,37,38
 560 0 560 0 545 0 c 2,39,-1
 370 0 l 2,0,1
EndSplineSet
Validated: 1
EndChar

StartChar: u
Encoding: 117 117 27
Width: 1288
GlyphClass: 2
Flags: W
HStem: -20 100<441.281 678.988> 0 50<1109.12 1235.33> 1050 50<52.6697 178.884>
VStem: 200 180<143.125 1039.71> 908 180<60.293 526 569.441 1100>
LayerCount: 2
Fore
SplineSet
1048 0 m 2,0,1
 908 0 908 0 908 140 c 2,2,-1
 908 526 l 1,3,4
 847 -20 847 -20 510 -20 c 0,5,6
 367 -20 367 -20 286 64 c 0,7,8
 200 153 200 153 200 330 c 2,9,-1
 200 960 l 2,10,11
 200 1050 200 1050 110 1050 c 2,12,-1
 65 1050 l 2,13,14
 50 1050 50 1050 50 1065 c 2,15,-1
 50 1085 l 2,16,17
 50 1100 50 1100 65 1100 c 2,18,-1
 240 1100 l 2,19,20
 380 1100 380 1100 380 960 c 2,21,-1
 380 330 l 2,22,23
 380 210 380 210 412 159 c 0,24,25
 462 80 462 80 563 80 c 0,26,27
 908 80 908 80 908 1070 c 0,28,29
 908 1100 908 1100 938 1100 c 2,30,-1
 1058 1100 l 2,31,32
 1088 1100 1088 1100 1088 1070 c 2,33,-1
 1088 140 l 2,34,35
 1088 50 1088 50 1178 50 c 2,36,-1
 1223 50 l 2,37,38
 1238 50 1238 50 1238 35 c 2,39,-1
 1238 15 l 2,40,41
 1238 0 1238 0 1223 0 c 2,42,-1
 1048 0 l 2,0,1
EndSplineSet
Validated: 1
EndChar

StartChar: v
Encoding: 118 118 28
Width: 1211
GlyphClass: 2
Flags: W
HStem: 0 21G<531.5 684> 1050 50<12.6697 122.002 1090.32 1198.33>
DStem2: 317 1024 130 1010 0.354884 -0.93491<-91.9991 974.138> 662 113 712 30 0.352379 0.935857<0 1042.63>
LayerCount: 2
Fore
SplineSet
550 0 m 2,0,1
 513 0 513 0 502 30 c 2,2,-1
 130 1010 l 2,3,4
 115 1050 115 1050 70 1050 c 2,5,-1
 25 1050 l 2,6,7
 10 1050 10 1050 10 1065 c 2,8,-1
 10 1085 l 2,9,10
 10 1100 10 1100 25 1100 c 2,11,-1
 199 1100 l 2,12,13
 288 1100 288 1100 317 1024 c 2,14,-1
 662 113 l 1,15,-1
 1006 1024 l 2,16,17
 1035 1100 1035 1100 1124 1100 c 2,18,-1
 1186 1100 l 2,19,20
 1201 1100 1201 1100 1201 1085 c 2,21,-1
 1201 1065 l 2,22,23
 1201 1050 1201 1050 1186 1050 c 2,24,-1
 1141 1050 l 2,25,26
 1096 1050 1096 1050 1081 1010 c 2,27,-1
 712 30 l 2,28,29
 701 0 701 0 667 0 c 2,30,-1
 550 0 l 2,0,1
EndSplineSet
Validated: 1
EndChar

StartChar: w
Encoding: 119 119 29
Width: 1684
GlyphClass: 2
Flags: W
HStem: 0 21G<531.5 684 1004.5 1157> 1050 50<12.6697 122.002 485.67 595.002 1090.32 1198.33 1563.32 1671.33>
DStem2: 317 1024 130 1010 0.354884 -0.93491<-91.9991 974.138> 790 1024 603 1010 0.354884 -0.93491<-91.9991 305.712 419.008 508.175 622.761 974.138> 662 113 712 30 0.352379 0.935857<0 311.783 668.072 1042.63> 1135 113 1185 30 0.352379 0.935857<0 1042.63>
LayerCount: 2
Fore
SplineSet
550 0 m 2,0,1
 513 0 513 0 502 30 c 2,2,-1
 130 1010 l 2,3,4
 115 1050 115 1050 70 1050 c 2,5,-1
 25 1050 l 2,6,7
 10 1050 10 1050 10 1065 c 2,8,-1
 10 1085 l 2,9,10
 10 1100 10 1100 25 1100 c 2,11,-1
 199 1100 l 2,12,13
 288 1100 288 1100 317 1024 c 2,14,-1
 662 113 l 1,15,-1
 802 485 l 1,16,-1
 603 1010 l 2,17,18
 588 1050 588 1050 543 1050 c 2,19,-1
 498 1050 l 2,20,21
 483 1050 483 1050 483 1065 c 2,22,-1
 483 1085 l 2,23,24
 483 1100 483 1100 498 1100 c 2,25,-1
 672 1100 l 2,26,27
 761 1100 761 1100 790 1024 c 2,28,-1
 898 738 l 1,29,-1
 1006 1024 l 2,30,31
 1035 1100 1035 1100 1124 1100 c 2,32,-1
 1186 1100 l 2,33,34
 1201 1100 1201 1100 1201 1085 c 2,35,-1
 1201 1065 l 2,36,37
 1201 1050 1201 1050 1186 1050 c 2,38,-1
 1141 1050 l 2,39,40
 1096 1050 1096 1050 1081 1010 c 2,41,-1
 938 632 l 1,42,-1
 1135 113 l 1,43,-1
 1479 1024 l 2,44,45
 1508 1100 1508 1100 1597 1100 c 2,46,-1
 1659 1100 l 2,47,48
 1674 1100 1674 1100 1674 1085 c 2,49,-1
 1674 1065 l 2,50,51
 1674 1050 1674 1050 1659 1050 c 2,52,-1
 1614 1050 l 2,53,54
 1569 1050 1569 1050 1554 1010 c 2,55,-1
 1185 30 l 2,56,57
 1174 0 1174 0 1140 0 c 2,58,-1
 1023 0 l 2,59,60
 986 0 986 0 975 30 c 2,61,-1
 843 378 l 1,62,-1
 712 30 l 2,63,64
 701 0 701 0 667 0 c 2,65,-1
 550 0 l 2,0,1
EndSplineSet
Validated: 1
EndChar

StartChar: y
Encoding: 121 121 30
Width: 1215
GlyphClass: 2
Flags: W
HStem: -410 50<400.67 504.615> 1050 50<12.6697 122.002 1104.32 1202.33>
DStem2: 317 1024 130 1010 0.354884 -0.93491<-91.9991 994.386> 513 -320 588 -334 0.352954 0.935641<-55.3618 342.112 442.416 1505.31>
LayerCount: 2
Fore
SplineSet
550 0 m 2,0,1
 513 0 513 0 502 30 c 2,2,-1
 130 1010 l 2,3,4
 115 1050 115 1050 70 1050 c 2,5,-1
 25 1050 l 2,6,7
 10 1050 10 1050 10 1065 c 2,8,-1
 10 1085 l 2,9,10
 10 1100 10 1100 25 1100 c 2,11,-1
 199 1100 l 2,12,13
 288 1100 288 1100 317 1024 c 2,14,-1
 669 94 l 1,15,-1
 1020 1024 l 2,16,17
 1049 1100 1049 1100 1138 1100 c 2,18,-1
 1190 1100 l 2,19,20
 1205 1100 1205 1100 1205 1085 c 2,21,-1
 1205 1065 l 2,22,23
 1205 1050 1205 1050 1190 1050 c 2,24,-1
 1155 1050 l 2,25,26
 1110 1050 1110 1050 1095 1010 c 2,27,-1
 588 -334 l 2,28,29
 559 -410 559 -410 490 -410 c 2,30,-1
 413 -410 l 2,31,32
 398 -410 398 -410 398 -395 c 2,33,-1
 398 -375 l 2,34,35
 398 -360 398 -360 413 -360 c 2,36,-1
 453 -360 l 2,37,38
 498 -360 498 -360 513 -320 c 2,39,-1
 634 -0 l 1,40,-1
 550 0 l 2,0,1
EndSplineSet
Validated: 1
EndChar

StartChar: z
Encoding: 122 122 31
Width: 990
GlyphClass: 2
Flags: W
HStem: 0 60<283 748.639> 1040 60<241.361 647>
DStem2: 79 67 283 60 0.504147 0.863618<96.8006 1126.66>
LayerCount: 2
Fore
SplineSet
106 0 m 2,0,1
 66 0 66 0 66 31 c 0,2,3
 66 45 66 45 79 67 c 2,4,-1
 647 1040 l 1,5,-1
 377 1040 l 2,6,7
 200 1040 200 1040 100 874 c 0,8,9
 94 864 94 864 87 864 c 0,10,11
 84 864 84 864 80 866 c 2,12,-1
 59 877 l 2,13,14
 50 882 50 882 50 889 c 0,15,16
 50 893 50 893 52 896 c 2,17,-1
 134 1037 l 2,18,19
 171 1100 171 1100 241 1100 c 2,20,-1
 824 1100 l 2,21,22
 864 1100 864 1100 864 1069 c 0,23,24
 864 1055 864 1055 851 1033 c 2,25,-1
 283 60 l 1,26,-1
 613 60 l 2,27,28
 790 60 790 60 890 226 c 0,29,30
 896 236 896 236 903 236 c 0,31,32
 906 236 906 236 910 234 c 2,33,-1
 931 223 l 2,34,35
 940 218 940 218 940 211 c 0,36,37
 940 207 940 207 938 204 c 2,38,-1
 856 63 l 2,39,40
 819 0 819 0 749 0 c 2,41,-1
 106 0 l 2,0,1
EndSplineSet
Validated: 1
EndChar

StartChar: figuredash
Encoding: 8210 8210 33
Width: 1133
GlyphClass: 2
Flags: W
HStem: 680 150<150.195 982.805>
LayerCount: 2
Fore
SplineSet
200 830 m 2,0,-1
 933 830 l 2,1,2
 983 830 983 830 983 780 c 2,3,4
 983 730 l 2,5,6
 983 680 983 680 933 680 c 2,7,-1
 200 680 l 2,8,9
 150 680 150 680 150 730 c 2,10,-1
 150 780 l 2,11,12
 150 830 150 830 200 830 c 2,0,-1
EndSplineSet
Validated: 1
EndChar

StartChar: endash
Encoding: 8211 8211 34
Width: 1533
GlyphClass: 2
Flags: W
HStem: 680 150<150.195 1382.8>
LayerCount: 2
Fore
SplineSet
200 830 m 2,0,-1
 1333 830 l 2,1,2
 1383 830 1383 830 1383 780 c 2,3,4
 1383 730 l 2,5,6
 1383 680 1383 680 1333 680 c 2,7,-1
 200 680 l 2,8,9
 150 680 150 680 150 730 c 2,10,-1
 150 780 l 2,11,12
 150 830 150 830 200 830 c 2,0,-1
EndSplineSet
Validated: 1
EndChar

StartChar: emdash
Encoding: 8212 8212 35
Width: 1533
GlyphClass: 2
Flags: W
HStem: 680 150<150.195 1382.8>
LayerCount: 2
Fore
SplineSet
200 830 m 2,0,-1
 1333 830 l 2,1,2
 1383 830 1383 830 1383 780 c 2,3,4
 1383 730 l 2,5,6
 1383 680 1383 680 1333 680 c 2,7,-1
 200 680 l 2,8,9
 150 680 150 680 150 730 c 2,10,-1
 150 780 l 2,11,12
 150 830 150 830 200 830 c 2,0,-1
EndSplineSet
Validated: 1
EndChar

StartChar: quoteleft
Encoding: 8216 8216 36
Width: 336
GlyphClass: 2
Flags: W
HStem: 1044 566
VStem: 50 131<1221.84 1471.12>
LayerCount: 2
Fore
SplineSet
180 1044 m 0,0,1
 165 1044 165 1044 145 1062 c 0,2,3
 50 1148 50 1148 50 1296 c 0,4,5
 50 1473 50 1473 206 1601 c 24,6,7
 217 1610 217 1610 229 1610 c 0,8,9
 237 1610 237 1610 244 1603 c 2,10,-1
 257 1590 l 2,11,12
 262 1585 262 1585 262 1577 c 0,13,14
 262 1571 262 1571 258 1567 c 0,15,16
 181 1490 181 1490 181 1377 c 0,17,18
 181 1246 181 1246 274 1168 c 0,19,20
 286 1158 286 1158 286 1142 c 0,21,22
 286 1124 286 1124 266 1107 c 2,23,-1
 200 1050 l 2,24,25
 193 1044 193 1044 180 1044 c 0,0,1
EndSplineSet
Validated: 1
EndChar

StartChar: quoteright
Encoding: 8217 8217 37
Width: 336
GlyphClass: 2
Flags: W
HStem: 1044 566
VStem: 155 131<1182.88 1432.16>
LayerCount: 2
Fore
SplineSet
156 1610 m 0,0,1
 171 1610 171 1610 191 1592 c 0,2,3
 286 1506 286 1506 286 1358 c 0,4,5
 286 1181 286 1181 130 1053 c 24,6,7
 119 1044 119 1044 107 1044 c 0,8,9
 99 1044 99 1044 92 1051 c 2,10,-1
 79 1064 l 2,11,12
 74 1069 74 1069 74 1077 c 0,13,14
 74 1083 74 1083 78 1087 c 0,15,16
 155 1164 155 1164 155 1277 c 0,17,18
 155 1408 155 1408 62 1486 c 0,19,20
 50 1496 50 1496 50 1512 c 0,21,22
 50 1530 50 1530 70 1547 c 2,23,-1
 136 1604 l 2,24,25
 143 1610 143 1610 156 1610 c 0,0,1
EndSplineSet
Validated: 1
EndChar

StartChar: quotesinglbase
Encoding: 8218 8218 38
Width: 336
GlyphClass: 2
Flags: W
HStem: -280 566
VStem: 155 131<-141.124 108.162>
LayerCount: 2
Fore
SplineSet
156 286 m 0,0,1
 171 286 171 286 191 268 c 0,2,3
 286 182 286 182 286 34 c 0,4,5
 286 -143 286 -143 130 -271 c 24,6,7
 119 -280 119 -280 107 -280 c 0,8,9
 99 -280 99 -280 92 -273 c 2,10,-1
 79 -260 l 2,11,12
 74 -255 74 -255 74 -247 c 0,13,14
 74 -241 74 -241 78 -237 c 0,15,16
 155 -160 155 -160 155 -47 c 0,17,18
 155 84 155 84 62 162 c 0,19,20
 50 172 50 172 50 188 c 0,21,22
 50 206 50 206 70 223 c 2,23,-1
 136 280 l 2,24,25
 143 286 143 286 156 286 c 0,0,1
EndSplineSet
Validated: 1
EndChar

StartChar: quotereversed
Encoding: 8219 8219 39
Width: 336
GlyphClass: 2
Flags: W
HStem: 1044 566
VStem: 50 131<1182.88 1432.16>
LayerCount: 2
Fore
SplineSet
180 1610 m 0,0,1
 193 1610 193 1610 200 1604 c 2,2,-1
 266 1547 l 2,3,4
 286 1530 286 1530 286 1512 c 0,5,6
 286 1496 286 1496 274 1486 c 0,7,8
 181 1408 181 1408 181 1277 c 0,9,10
 181 1164 181 1164 258 1087 c 0,11,12
 262 1083 262 1083 262 1077 c 0,13,14
 262 1069 262 1069 257 1064 c 2,15,-1
 244 1051 l 2,16,17
 237 1044 237 1044 229 1044 c 0,18,19
 217 1044 217 1044 206 1053 c 24,20,21
 50 1181 50 1181 50 1358 c 0,22,23
 50 1506 50 1506 145 1592 c 0,24,25
 165 1610 165 1610 180 1610 c 0,0,1
EndSplineSet
Validated: 1
EndChar

StartChar: quotedblleft
Encoding: 8220 8220 40
Width: 642
GlyphClass: 2
Flags: W
HStem: 1044 566
VStem: 50 131<1221.84 1471.12> 356 131<1221.84 1471.12>
LayerCount: 2
Fore
SplineSet
180 1044 m 0,0,1
 165 1044 165 1044 145 1062 c 0,2,3
 50 1148 50 1148 50 1296 c 0,4,5
 50 1473 50 1473 206 1601 c 24,6,7
 217 1610 217 1610 229 1610 c 0,8,9
 237 1610 237 1610 244 1603 c 2,10,-1
 257 1590 l 2,11,12
 262 1585 262 1585 262 1577 c 0,13,14
 262 1571 262 1571 258 1567 c 0,15,16
 181 1490 181 1490 181 1377 c 0,17,18
 181 1246 181 1246 274 1168 c 0,19,20
 286 1158 286 1158 286 1142 c 0,21,22
 286 1124 286 1124 266 1107 c 2,23,-1
 200 1050 l 2,24,25
 193 1044 193 1044 180 1044 c 0,0,1
486 1044 m 0,26,27
 471 1044 471 1044 451 1062 c 0,28,29
 356 1148 356 1148 356 1296 c 0,30,31
 356 1473 356 1473 512 1601 c 24,32,33
 523 1610 523 1610 535 1610 c 0,34,35
 543 1610 543 1610 550 1603 c 2,36,-1
 563 1590 l 2,37,38
 568 1585 568 1585 568 1577 c 0,39,40
 568 1571 568 1571 564 1567 c 0,41,42
 487 1490 487 1490 487 1377 c 0,43,44
 487 1246 487 1246 580 1168 c 0,45,46
 592 1158 592 1158 592 1142 c 0,47,48
 592 1124 592 1124 572 1107 c 2,49,-1
 506 1050 l 2,50,51
 499 1044 499 1044 486 1044 c 0,26,27
EndSplineSet
Validated: 1
EndChar

StartChar: quotedblright
Encoding: 8221 8221 41
Width: 642
GlyphClass: 2
Flags: W
HStem: 1044 566
VStem: 155 131<1182.88 1432.16> 461 131<1182.88 1432.16>
LayerCount: 2
Fore
SplineSet
462 1610 m 0,0,1
 477 1610 477 1610 497 1592 c 0,2,3
 592 1506 592 1506 592 1358 c 0,4,5
 592 1181 592 1181 436 1053 c 24,6,7
 425 1044 425 1044 413 1044 c 0,8,9
 405 1044 405 1044 398 1051 c 2,10,-1
 385 1064 l 2,11,12
 380 1069 380 1069 380 1077 c 0,13,14
 380 1083 380 1083 384 1087 c 0,15,16
 461 1164 461 1164 461 1277 c 0,17,18
 461 1408 461 1408 368 1486 c 0,19,20
 356 1496 356 1496 356 1512 c 0,21,22
 356 1530 356 1530 376 1547 c 2,23,-1
 442 1604 l 2,24,25
 449 1610 449 1610 462 1610 c 0,0,1
156 1610 m 0,26,27
 171 1610 171 1610 191 1592 c 0,28,29
 286 1506 286 1506 286 1358 c 0,30,31
 286 1181 286 1181 130 1053 c 24,32,33
 119 1044 119 1044 107 1044 c 0,34,35
 99 1044 99 1044 92 1051 c 2,36,-1
 79 1064 l 2,37,38
 74 1069 74 1069 74 1077 c 0,39,40
 74 1083 74 1083 78 1087 c 0,41,42
 155 1164 155 1164 155 1277 c 0,43,44
 155 1408 155 1408 62 1486 c 0,45,46
 50 1496 50 1496 50 1512 c 0,47,48
 50 1530 50 1530 70 1547 c 2,49,-1
 136 1604 l 2,50,51
 143 1610 143 1610 156 1610 c 0,26,27
EndSplineSet
Validated: 1
EndChar

StartChar: quotedblbase
Encoding: 8222 8222 42
Width: 642
GlyphClass: 2
Flags: W
HStem: -280 566
VStem: 155 131<-141.124 108.162> 461 131<-141.124 108.162>
LayerCount: 2
Fore
SplineSet
462 286 m 0,0,1
 477 286 477 286 497 268 c 0,2,3
 592 182 592 182 592 34 c 0,4,5
 592 -143 592 -143 436 -271 c 24,6,7
 425 -280 425 -280 413 -280 c 0,8,9
 405 -280 405 -280 398 -273 c 2,10,-1
 385 -260 l 2,11,12
 380 -255 380 -255 380 -247 c 0,13,14
 380 -241 380 -241 384 -237 c 0,15,16
 461 -160 461 -160 461 -47 c 0,17,18
 461 84 461 84 368 162 c 0,19,20
 356 172 356 172 356 188 c 0,21,22
 356 206 356 206 376 223 c 2,23,-1
 442 280 l 2,24,25
 449 286 449 286 462 286 c 0,0,1
156 286 m 0,26,27
 171 286 171 286 191 268 c 0,28,29
 286 182 286 182 286 34 c 0,30,31
 286 -143 286 -143 130 -271 c 24,32,33
 119 -280 119 -280 107 -280 c 0,34,35
 99 -280 99 -280 92 -273 c 2,36,-1
 79 -260 l 2,37,38
 74 -255 74 -255 74 -247 c 0,39,40
 74 -241 74 -241 78 -237 c 0,41,42
 155 -160 155 -160 155 -47 c 0,43,44
 155 84 155 84 62 162 c 0,45,46
 50 172 50 172 50 188 c 0,47,48
 50 206 50 206 70 223 c 2,49,-1
 136 280 l 2,50,51
 143 286 143 286 156 286 c 0,26,27
EndSplineSet
Validated: 1
EndChar

StartChar: dagger
Encoding: 8224 8224 43
Width: 1150
GlyphClass: 2
Flags: W
HStem: 0 21G<491 659> 1044 100<150 475 675 1000> 1490 20G<492 658.5>
VStem: 475 200<0 1044 1144 1510>
LayerCount: 2
Fore
SplineSet
507 0 m 2,0,1
 475 0 475 0 475 30 c 2,2,-1
 475 1044 l 1,3,-1
 181 1044 l 2,4,5
 150 1044 150 1044 150 1071 c 2,6,-1
 150 1116 l 2,7,8
 150 1144 150 1144 181 1144 c 2,9,-1
 475 1144 l 1,10,-1
 475 1477 l 2,11,12
 475 1510 475 1510 509 1510 c 2,13,-1
 642 1510 l 2,14,15
 675 1510 675 1510 675 1477 c 2,16,-1
 675 1144 l 1,17,-1
 968 1144 l 2,18,19
 1000 1144 1000 1144 1000 1115 c 2,20,-1
 1000 1071 l 2,21,22
 1000 1044 1000 1044 968 1044 c 2,23,-1
 675 1044 l 1,24,-1
 675 30 l 2,25,26
 675 0 675 0 643 0 c 2,27,-1
 507 0 l 2,0,1
EndSplineSet
Validated: 1
EndChar

StartChar: daggerdbl
Encoding: 8225 8225 44
Width: 1150
GlyphClass: 2
Flags: W
HStem: 0 21G<491 659> 366 100<150 475 675 1000> 1044 100<150 475 675 1000> 1490 20G<492 658.5>
VStem: 475 200<0 366 466 1044 1144 1510>
LayerCount: 2
Fore
SplineSet
507 0 m 2,0,1
 475 0 475 0 475 30 c 2,2,-1
 475 366 l 1,3,-1
 182 366 l 2,4,5
 150 366 150 366 150 395 c 2,6,-1
 150 439 l 2,7,8
 150 466 150 466 182 466 c 2,9,-1
 475 466 l 1,10,-1
 475 1044 l 1,11,-1
 181 1044 l 2,12,13
 150 1044 150 1044 150 1071 c 2,14,-1
 150 1116 l 2,15,16
 150 1144 150 1144 181 1144 c 2,17,-1
 475 1144 l 1,18,-1
 475 1477 l 2,19,20
 475 1510 475 1510 509 1510 c 2,21,-1
 642 1510 l 2,22,23
 675 1510 675 1510 675 1477 c 2,24,-1
 675 1144 l 1,25,-1
 968 1144 l 2,26,27
 1000 1144 1000 1144 1000 1115 c 2,28,-1
 1000 1071 l 2,29,30
 1000 1044 1000 1044 968 1044 c 2,31,-1
 675 1044 l 1,32,-1
 675 466 l 1,33,-1
 969 466 l 2,34,35
 1000 466 1000 466 1000 439 c 2,36,-1
 1000 394 l 2,37,38
 1000 366 1000 366 969 366 c 2,39,-1
 675 366 l 1,40,-1
 675 30 l 2,41,42
 675 0 675 0 643 0 c 2,43,-1
 507 0 l 2,0,1
EndSplineSet
Validated: 1
EndChar

StartChar: bullet
Encoding: 8226 8226 45
Width: 900
GlyphClass: 2
Flags: W
HStem: 437 625<296.516 603.484>
VStem: 150 600<586.886 913.114>
LayerCount: 2
Fore
SplineSet
453 1062 m 0,0,1
 575 1062 575 1062 662 971 c 0,2,3
 750 879 750 879 750 750 c 128,-1,4
 750 621 750 621 662 529 c 128,-1,5
 574 437 574 437 450 437 c 256,6,7
 326 437 326 437 238 529 c 128,-1,8
 150 621 150 621 150 750 c 128,-1,9
 150 879 150 879 238 971 c 0,10,11
 325 1062 325 1062 453 1062 c 0,0,1
EndSplineSet
Validated: 1
EndChar

StartChar: ellipsis
Encoding: 8230 8230 46
Width: 1012
GlyphClass: 2
Flags: W
HStem: -20 245<86.0974 253.903 422.097 589.903 758.097 925.903>
VStem: 50 240<17.1285 187.871> 386 240<17.1285 187.871> 722 240<17.1285 187.871>
CounterMasks: 1 70
LayerCount: 2
Fore
SplineSet
842 -20 m 128,-1,1
 792 -20 792 -20 757 16 c 128,-1,2
 722 52 722 52 722 102.5 c 128,-1,3
 722 153 722 153 757 189 c 128,-1,4
 792 225 792 225 842 225 c 128,-1,5
 892 225 892 225 927 189 c 128,-1,6
 962 153 962 153 962 102.5 c 128,-1,7
 962 52 962 52 927 16 c 128,-1,0
 892 -20 892 -20 842 -20 c 128,-1,1
506 -20 m 128,-1,9
 456 -20 456 -20 421 16 c 128,-1,10
 386 52 386 52 386 102.5 c 128,-1,11
 386 153 386 153 421 189 c 128,-1,12
 456 225 456 225 506 225 c 128,-1,13
 556 225 556 225 591 189 c 128,-1,14
 626 153 626 153 626 102.5 c 128,-1,15
 626 52 626 52 591 16 c 128,-1,8
 556 -20 556 -20 506 -20 c 128,-1,9
170 -20 m 128,-1,17
 120 -20 120 -20 85 16 c 128,-1,18
 50 52 50 52 50 102.5 c 128,-1,19
 50 153 50 153 85 189 c 128,-1,20
 120 225 120 225 170 225 c 128,-1,21
 220 225 220 225 255 189 c 128,-1,22
 290 153 290 153 290 102.5 c 128,-1,23
 290 52 290 52 255 16 c 128,-1,16
 220 -20 220 -20 170 -20 c 128,-1,17
EndSplineSet
Validated: 1
EndChar

StartChar: perthousand
Encoding: 8240 8240 47
Width: 2247
GlyphClass: 2
Flags: W
HStem: -20 44<1027.14 1156.86 1727.14 1856.86> 552 44<1027.14 1156.86 1727.14 1856.86> 914 44<390.136 519.864> 1486 44<390.136 519.864>
VStem: 150 140<1061.28 1382.72> 620 140<1061.28 1382.72> 787 140<127.279 448.721> 1257 140<127.279 448.721> 1487 140<127.279 448.721> 1957 140<127.279 448.721>
DStem2: 1130 1522 1264 1445 0.499465 0.866334<-1711.56 28.9864>
LayerCount: 2
Fore
SplineSet
1792 552 m 128,-1,1
 1724 552 1724 552 1675.5 474 c 128,-1,2
 1627 396 1627 396 1627 288 c 152,-1,3
 1627 180 1627 180 1675.5 102 c 128,-1,4
 1724 24 1724 24 1792 24 c 128,-1,5
 1860 24 1860 24 1908.5 102 c 128,-1,6
 1957 180 1957 180 1957 288 c 152,-1,7
 1957 396 1957 396 1908.5 474 c 128,-1,0
 1860 552 1860 552 1792 552 c 128,-1,1
1792 -20 m 128,-1,9
 1665 -20 1665 -20 1576 70.5 c 128,-1,10
 1487 161 1487 161 1487 288 c 152,-1,11
 1487 415 1487 415 1576 505.5 c 128,-1,12
 1665 596 1665 596 1792 596 c 128,-1,13
 1919 596 1919 596 2008 505.5 c 128,-1,14
 2097 415 2097 415 2097 288 c 152,-1,15
 2097 161 2097 161 2008 70.5 c 128,-1,8
 1919 -20 1919 -20 1792 -20 c 128,-1,9
1092 552 m 128,-1,17
 1024 552 1024 552 975.5 474 c 128,-1,18
 927 396 927 396 927 288 c 152,-1,19
 927 180 927 180 975.5 102 c 128,-1,20
 1024 24 1024 24 1092 24 c 128,-1,21
 1160 24 1160 24 1208.5 102 c 128,-1,22
 1257 180 1257 180 1257 288 c 152,-1,23
 1257 396 1257 396 1208.5 474 c 128,-1,16
 1160 552 1160 552 1092 552 c 128,-1,17
384 -40 m 0,24,25
 372 -40 372 -40 356 -31 c 2,26,-1
 308 -3 l 2,27,28
 280 13 280 13 280 36 c 0,29,30
 280 49 280 49 290 65 c 2,31,-1
 1130 1522 l 2,32,33
 1146 1550 1146 1550 1168 1550 c 0,34,35
 1182 1550 1182 1550 1198 1541 c 2,36,-1
 1246 1513 l 2,37,38
 1272 1497 1272 1497 1272 1474 c 0,39,40
 1272 1461 1272 1461 1264 1445 c 2,41,-1
 424 -12 l 2,42,43
 408 -40 408 -40 384 -40 c 0,24,25
1092 -20 m 128,-1,45
 965 -20 965 -20 876 70.5 c 128,-1,46
 787 161 787 161 787 288 c 152,-1,47
 787 415 787 415 876 505.5 c 128,-1,48
 965 596 965 596 1092 596 c 128,-1,49
 1219 596 1219 596 1308 505.5 c 128,-1,50
 1397 415 1397 415 1397 288 c 152,-1,51
 1397 161 1397 161 1308 70.5 c 128,-1,44
 1219 -20 1219 -20 1092 -20 c 128,-1,45
455 1486 m 128,-1,53
 387 1486 387 1486 338.5 1408 c 128,-1,54
 290 1330 290 1330 290 1222 c 152,-1,55
 290 1114 290 1114 338.5 1036 c 128,-1,56
 387 958 387 958 455 958 c 128,-1,57
 523 958 523 958 571.5 1036 c 128,-1,58
 620 1114 620 1114 620 1222 c 152,-1,59
 620 1330 620 1330 571.5 1408 c 128,-1,52
 523 1486 523 1486 455 1486 c 128,-1,53
455 1530 m 128,-1,61
 582 1530 582 1530 671 1439.5 c 128,-1,62
 760 1349 760 1349 760 1222 c 152,-1,63
 760 1095 760 1095 671 1004.5 c 128,-1,64
 582 914 582 914 455 914 c 128,-1,65
 328 914 328 914 239 1004.5 c 128,-1,66
 150 1095 150 1095 150 1222 c 152,-1,67
 150 1349 150 1349 239 1439.5 c 128,-1,60
 328 1530 328 1530 455 1530 c 128,-1,61
EndSplineSet
Validated: 1
EndChar

StartChar: minute
Encoding: 8242 8242 48
Width: 326
GlyphClass: 2
Flags: W
HStem: 1149 381<84.9062 160.688>
VStem: 86 190<1385.88 1530>
LayerCount: 2
Fore
SplineSet
123 1530 m 2,0,1
 254 1530 l 2,2,3
 276 1530 276 1530 276 1509 c 0,4,5
 276 1503 276 1503 275 1500 c 2,6,-1
 151 1168 l 2,7,8
 144 1149 144 1149 120 1149 c 2,9,-1
 77 1149 l 2,10,11
 50 1149 50 1149 50 1166 c 0,12,13
 51 1175 l 2,14,-1
 86 1500 l 2,15,16
 89 1530 89 1530 123 1530 c 2,0,1
EndSplineSet
Validated: 1
EndChar

StartChar: second
Encoding: 8243 8243 49
Width: 586
GlyphClass: 2
Flags: W
HStem: 1149 381<84.9062 160.688 344.906 420.688>
VStem: 86 190<1385.88 1530> 346 190<1385.88 1530>
LayerCount: 2
Fore
SplineSet
383 1530 m 2,0,1
 514 1530 l 2,2,3
 536 1530 536 1530 536 1509 c 0,4,5
 536 1503 536 1503 535 1500 c 2,6,-1
 411 1168 l 2,7,8
 404 1149 404 1149 380 1149 c 2,9,-1
 337 1149 l 2,10,11
 310 1149 310 1149 310 1166 c 0,12,13
 311 1175 l 2,14,-1
 346 1500 l 2,15,16
 349 1530 349 1530 383 1530 c 2,0,1
123 1530 m 2,17,-1
 254 1530 l 2,18,19
 276 1530 276 1530 276 1509 c 0,20,21
 276 1503 276 1503 275 1500 c 2,22,-1
 151 1168 l 2,23,24
 144 1149 144 1149 120 1149 c 2,25,-1
 77 1149 l 2,26,27
 50 1149 50 1149 50 1166 c 0,28,-1
 51 1175 l 2,29,-1
 86 1500 l 2,30,31
 89 1530 89 1530 123 1530 c 2,17,-1
EndSplineSet
Validated: 1
EndChar

StartChar: guilsinglleft
Encoding: 8249 8249 50
Width: 794
GlyphClass: 2
Flags: W
VStem: 150 444
DStem2: 162 791 276 815 0.577707 0.816244<85.4485 555.98> 276 815 162 720 0.58542 -0.81073<0 553.877>
LayerCount: 2
Fore
SplineSet
162 791 m 2,0,-1
 472 1229 l 2,1,2
 483 1244 483 1244 497 1244 c 0,3,4
 508 1244 508 1244 518 1236 c 2,5,-1
 537 1220 l 2,6,7
 547 1212 547 1212 547 1200 c 0,8,9
 547 1189 547 1189 541 1181 c 2,10,-1
 276 815 l 1,11,-1
 580 394 l 2,12,13
 594 375 594 375 594 361 c 0,14,15
 594 342 594 342 571 324 c 2,16,-1
 528 291 l 2,17,18
 511 278 511 278 496 278 c 0,19,20
 474 278 474 278 458 300 c 2,21,-1
 162 720 l 2,22,23
 150 737 150 737 150 756 c 0,24,25
 150 774 150 774 162 791 c 2,0,-1
EndSplineSet
Validated: 1
EndChar

StartChar: guilsinglright
Encoding: 8250 8250 51
Width: 794
GlyphClass: 2
Flags: W
VStem: 200 444
DStem2: 336 1222 214 1128 0.58542 -0.81073<-29.8049 524.072> 253 341 322 293 0.577707 0.816244<-18.694 451.838>
LayerCount: 2
Fore
SplineSet
632 731 m 2,0,-1
 322 293 l 2,1,2
 311 278 311 278 297 278 c 0,3,4
 285 278 285 278 276 286 c 2,5,-1
 257 302 l 2,6,7
 247 310 247 310 247 322 c 0,8,9
 247 333 247 333 253 341 c 2,10,-1
 518 707 l 1,11,-1
 214 1128 l 2,12,13
 200 1147 200 1147 200 1161 c 0,14,15
 200 1180 200 1180 223 1198 c 2,16,-1
 266 1231 l 2,17,18
 283 1244 283 1244 298 1244 c 0,19,20
 320 1244 320 1244 336 1222 c 2,21,-1
 632 802 l 2,22,23
 644 785 644 785 644 766 c 0,24,25
 644 748 644 748 632 731 c 2,0,-1
EndSplineSet
Validated: 1
EndChar

StartChar: fraction
Encoding: 8260 8260 52
Width: 1012
GlyphClass: 2
Flags: W
DStem2: 860 1522 994 1445 0.499465 0.866334<-1711.56 28.9864>
LayerCount: 2
Fore
SplineSet
114 -40 m 0,0,1
 102 -40 102 -40 86 -31 c 2,2,-1
 38 -3 l 2,3,4
 10 13 10 13 10 36 c 0,5,6
 10 49 10 49 20 65 c 2,7,-1
 860 1522 l 2,8,9
 876 1550 876 1550 898 1550 c 0,10,11
 912 1550 912 1550 928 1541 c 2,12,-1
 976 1513 l 2,13,14
 1002 1497 1002 1497 1002 1474 c 0,15,16
 1002 1461 1002 1461 994 1445 c 2,17,-1
 154 -12 l 2,18,19
 138 -40 138 -40 114 -40 c 0,0,1
EndSplineSet
Validated: 1
EndChar

StartChar: Euro
Encoding: 8364 8364 53
Width: 1505
GlyphClass: 2
Flags: W
HStem: -20 61<730.379 1047.92> 614 80<100 218 445 1020> 814 80<100 218 444 1020> 1099 21G<1280.5 1317.5> 1469 61<730.192 1047.92>
VStem: 216 222<460.215 614 694 814 894 1048.92> 1272 53<284.456 409.535 1100.46 1225.54>
LayerCount: 2
Fore
SplineSet
873 -20 m 0,0,1
 573 -20 573 -20 394 206 c 0,2,3
 256 380 256 380 225 614 c 1,4,-1
 116 614 l 2,5,6
 100 614 100 614 100 629 c 2,7,-1
 100 679 l 2,8,9
 100 694 100 694 116 694 c 2,10,-1
 218 694 l 1,11,12
 216 724 216 724 216 755 c 0,13,14
 216 785 216 785 218 814 c 1,15,-1
 116 814 l 2,16,17
 100 814 100 814 100 829 c 2,18,-1
 100 879 l 2,19,20
 100 894 100 894 116 894 c 2,21,-1
 225 894 l 1,22,23
 256 1130 256 1130 394 1304 c 0,24,25
 572 1530 572 1530 873 1530 c 0,26,27
 1123 1530 1123 1530 1291 1405 c 0,28,29
 1325 1379 1325 1379 1325 1331 c 2,30,-1
 1325 1114 l 2,31,32
 1325 1099 1325 1099 1310 1099 c 2,33,-1
 1287 1099 l 2,34,35
 1274 1099 1274 1099 1272 1114 c 0,36,37
 1225 1469 1225 1469 873 1469 c 0,38,39
 674 1469 674 1469 558 1272 c 0,40,41
 466 1115 466 1115 444 894 c 1,42,-1
 1006 894 l 2,43,44
 1020 894 1020 894 1020 879 c 2,45,-1
 1020 829 l 2,46,47
 1020 814 1020 814 1006 814 c 2,48,-1
 439 814 l 1,49,50
 438 785 438 785 438 755 c 0,51,52
 438 724 438 724 439 694 c 1,53,-1
 1006 694 l 2,54,55
 1020 694 1020 694 1020 679 c 2,56,-1
 1020 629 l 2,57,58
 1020 614 1020 614 1006 614 c 2,59,-1
 445 614 l 1,60,61
 467 394 467 394 558 238 c 0,62,63
 674 41 674 41 873 41 c 0,64,65
 1225 41 1225 41 1272 396 c 0,66,67
 1274 411 1274 411 1287 411 c 2,68,-1
 1310 411 l 2,69,70
 1325 411 1325 411 1325 396 c 2,71,-1
 1325 179 l 2,72,73
 1325 131 1325 131 1291 105 c 0,74,75
 1123 -20 1123 -20 873 -20 c 0,0,1
EndSplineSet
Validated: 1
EndChar

StartChar: afii61248
Encoding: 8453 8453 54
Width: 1780
GlyphClass: 2
Flags: W
HStem: -20 70<1186.42 1375.58> 736 70<401.547 617.337 1201.22 1360.05> 1460 70<401.38 617.337>
VStem: 150 151<929.221 1337.02> 683 62<883.803 984.905 1281.09 1382.2> 932 152<179.252 595.276> 1478 152<176.805 594.748>
DStem2: 1226 1522 1360 1445 0.499465 0.866334<-1711.56 28.9864>
LayerCount: 2
Fore
SplineSet
499 1530 m 0,0,1
 633 1530 633 1530 720 1464 c 0,2,3
 745 1445 745 1445 745 1411 c 2,4,-1
 745 1291 l 2,5,6
 745 1284 745 1284 743 1281 c 0,7,8
 739 1275 739 1275 731 1275 c 2,9,-1
 694 1275 l 2,10,11
 688 1275 688 1275 683 1280 c 0,12,13
 680 1283 680 1283 678 1299 c 0,14,15
 668 1372 668 1372 632 1412 c 0,16,17
 587 1460 587 1460 499 1460 c 0,18,19
 410 1460 410 1460 358 1374 c 0,20,21
 301 1280 301 1280 301 1133 c 128,-1,22
 301 986 301 986 358 892 c 0,23,24
 410 806 410 806 499 806 c 0,25,26
 587 806 587 806 632 854 c 0,27,28
 668 894 668 894 678 967 c 0,29,30
 680 983 680 983 683 986 c 0,31,32
 688 991 688 991 694 991 c 2,33,-1
 731 991 l 2,34,35
 739 991 739 991 743 985 c 0,36,37
 745 982 745 982 745 975 c 2,38,-1
 745 855 l 2,39,40
 745 821 745 821 720 802 c 0,41,42
 633 736 633 736 499 736 c 0,43,44
 339 736 339 736 243 853 c 0,45,46
 150 967 150 967 150 1133 c 128,-1,47
 150 1299 150 1299 244 1414 c 0,48,49
 338 1530 338 1530 499 1530 c 0,0,1
1281 724 m 128,-1,51
 1193 724 1193 724 1141 636 c 0,52,53
 1084 539 1084 539 1084 387 c 128,-1,54
 1084 235 1084 235 1141 138 c 0,55,56
 1193 50 1193 50 1281 50 c 128,-1,57
 1369 50 1369 50 1421 138 c 0,58,59
 1478 235 1478 235 1478 387 c 128,-1,60
 1478 539 1478 539 1421 636 c 0,61,50
 1369 724 1369 724 1281 724 c 128,-1,51
1281 -20 m 128,-1,63
 1122 -20 1122 -20 1026 100 c 0,64,65
 932 218 932 218 932 388 c 128,-1,66
 932 558 932 558 1026 674 c 0,67,68
 1122 794 1122 794 1280 795 c 0,69,70
 1439 795 1439 795 1536 674 c 0,71,72
 1630 556 1630 556 1630 386 c 128,-1,73
 1630 216 1630 216 1536 99 c 0,74,62
 1440 -20 1440 -20 1281 -20 c 128,-1,63
480 -40 m 0,75,76
 468 -40 468 -40 452 -31 c 2,77,-1
 404 -3 l 2,78,79
 376 13 376 13 376 36 c 0,80,81
 376 49 376 49 386 65 c 2,82,-1
 1226 1522 l 2,83,84
 1242 1550 1242 1550 1264 1550 c 0,85,86
 1278 1550 1278 1550 1294 1541 c 2,87,-1
 1342 1513 l 2,88,89
 1368 1497 1368 1497 1368 1474 c 0,90,91
 1368 1461 1368 1461 1360 1445 c 2,92,-1
 520 -12 l 2,93,94
 504 -40 504 -40 480 -40 c 0,75,76
EndSplineSet
Validated: 1
EndChar

StartChar: afii61289
Encoding: 8467 8467 55
Width: 958
GlyphClass: 2
Flags: W
HStem: -20 136<458.002 569.961> 0 21G<50 263> 1500 20G<627 694>
VStem: 232 155<466 794.977> 655 153<1042.58 1356.69>
LayerCount: 2
Fore
SplineSet
387 466 m 1,0,1
 498 708 498 708 554 860 c 0,2,3
 655 1134 655 1134 655 1359 c 1,4,5
 587 1266 587 1266 494 1004 c 0,6,7
 387 704 387 704 387 466 c 1,0,1
50 0 m 1,8,9
 161 144 161 144 242 292 c 1,10,11
 232 362 232 362 232 443 c 0,12,13
 232 590 232 590 261 732 c 0,14,15
 369 1246 369 1246 517 1434 c 0,16,17
 585 1520 585 1520 669 1520 c 0,18,19
 719 1520 719 1520 759 1488 c 0,20,21
 808 1449 808 1449 808 1318 c 0,22,23
 808 1226 808 1226 778 1072 c 0,24,25
 708 722 708 722 422 271 c 1,26,27
 454 116 454 116 511 116 c 0,28,29
 530 116 530 116 553 140 c 0,30,31
 584 172 584 172 616 228 c 1,32,-1
 792 228 l 1,33,34
 715 100 715 100 650.5 40 c 128,-1,35
 586 -20 586 -20 502 -20 c 0,36,37
 382 -20 382 -20 305 90 c 1,38,-1
 251 0 l 1,39,-1
 50 0 l 1,8,9
EndSplineSet
Validated: 1
EndChar

StartChar: trademark
Encoding: 8482 8482 56
Width: 1870
GlyphClass: 2
Flags: W
HStem: 726 64<711 790.234 1589.5 1670> 1440 80<185.177 369 509 692.823> 1456 64<792 867.998 1512 1588>
VStem: 369 140<726 1440>
DStem2: 868 1447 873 781 0.121572 0.992583<-667.2 -197.562> 1012 1468 933 1240 0.287932 -0.957651<195.598 628.622> 1193 866 1249 753 0.308157 0.951336<0 406.577> 1512 1447 1401 1226 0.122341 -0.992488<205.76 667.499>
LayerCount: 2
Fore
SplineSet
794 726 m 2,0,1
 728 726 l 2,2,3
 711 726 711 726 711 740 c 2,4,-1
 711 774 l 2,5,6
 711 789 711 789 728 789 c 2,7,-1
 778 790 l 2,8,9
 788 790 788 790 789 802 c 10,10,-1
 868 1447 l 1,11,12
 868 1456 868 1456 859 1456 c 2,13,-1
 809 1456 l 2,14,15
 792 1456 792 1456 792 1470 c 2,16,-1
 792 1505 l 2,17,18
 792 1520 792 1520 809 1520 c 2,19,-1
 934 1520 l 2,20,21
 996 1520 996 1520 1012 1468 c 2,22,-1
 1193 866 l 1,23,-1
 1388 1468 l 2,24,25
 1405 1520 1405 1520 1466 1520 c 2,26,-1
 1571 1520 l 2,27,28
 1588 1520 1588 1520 1588 1505 c 2,29,30
 1588 1470 l 2,31,32
 1588 1456 1588 1456 1571 1456 c 2,33,-1
 1521 1456 l 2,34,35
 1512 1456 1512 1456 1512 1447 c 1,36,-1
 1592 798 l 2,37,38
 1593 790 1593 790 1603 790 c 2,39,-1
 1653 790 l 2,40,41
 1670 790 1670 790 1670 775 c 2,42,-1
 1670 740 l 2,43,44
 1670 726 1670 726 1653 726 c 2,45,-1
 1537 726 l 2,46,47
 1465 726 1465 726 1458 781 c 2,48,-1
 1401 1226 l 1,49,-1
 1249 753 l 2,50,51
 1240 726 1240 726 1208 726 c 2,52,-1
 1118 726 l 2,53,54
 1086 726 1086 726 1078 754 c 2,55,-1
 933 1240 l 1,56,-1
 873 781 l 2,57,58
 866 726 866 726 794 726 c 2,0,1
388 726 m 2,59,60
 369 726 369 726 369 743 c 2,61,-1
 369 1440 l 1,62,-1
 278 1440 l 2,63,64
 209 1440 209 1440 167 1378 c 0,65,66
 154 1359 154 1359 148 1359 c 0,67,68
 144 1359 144 1359 140 1361 c 2,69,-1
 107 1379 l 2,70,71
 100 1383 100 1383 100 1388 c 0,72,73
 100 1392 100 1392 104 1399 c 2,74,-1
 149 1479 l 2,75,76
 172 1520 172 1520 220 1520 c 2,77,-1
 658 1520 l 2,78,79
 706 1520 706 1520 729 1479 c 2,80,-1
 774 1399 l 2,81,82
 778 1392 778 1392 778 1388 c 0,83,84
 778 1383 778 1383 771 1379 c 2,85,-1
 738 1361 l 2,86,87
 734 1359 734 1359 730 1359 c 0,88,89
 724 1359 724 1359 711 1378 c 0,90,91
 669 1440 669 1440 600 1440 c 2,92,-1
 509 1440 l 1,93,-1
 509 743 l 2,94,95
 509 726 509 726 492 726 c 2,96,-1
 388 726 l 2,59,60
EndSplineSet
Validated: 1
EndChar

StartChar: uni2126
Encoding: 8486 8486 57
Width: 1582
GlyphClass: 2
Flags: W
HStem: 0 80<233.755 445 1136 1348.25> 1469 61<648.379 933.621>
VStem: 134 222<453.288 1051.59> 1226 222<453.835 1051.89>
LayerCount: 2
Fore
SplineSet
536 0 m 2,0,1
 271 0 l 2,2,3
 201 0 201 0 164 63 c 2,4,-1
 82 204 l 2,5,6
 80 207 80 207 80 211 c 0,7,8
 80 218 80 218 89 223 c 2,9,-1
 110 234 l 2,10,11
 114 236 114 236 117 236 c 0,12,13
 124 236 124 236 130 226 c 0,14,15
 217 80 217 80 387 80 c 2,16,-1
 445 80 l 1,17,18
 370 134 370 134 312 206 c 0,19,20
 134 427 134 427 134 753.5 c 128,-1,21
 134 1080 134 1080 312 1304 c 0,22,23
 491 1530 491 1530 791 1530 c 128,-1,24
 1091 1530 1091 1530 1270 1304 c 0,25,26
 1448 1080 1448 1080 1448 755 c 0,27,28
 1448 428 1448 428 1270 206 c 0,29,30
 1213 135 1213 135 1136 80 c 1,31,-1
 1195 80 l 2,32,33
 1365 80 1365 80 1452 226 c 0,34,35
 1458 236 1458 236 1465 236 c 0,36,37
 1468 236 1468 236 1472 234 c 2,38,-1
 1493 223 l 2,39,40
 1502 218 1502 218 1502 211 c 0,41,42
 1502 207 1502 207 1500 204 c 2,43,-1
 1418 63 l 2,44,45
 1381 0 1381 0 1311 0 c 2,46,-1
 1045 0 l 2,47,48
 970 0 970 0 970 45 c 0,49,50
 970 86 970 86 989 104 c 24,51,52
 1077 189 1077 189 1106 238 c 0,53,54
 1226 442 1226 442 1226 756 c 0,55,56
 1226 1068 1226 1068 1106 1272 c 0,57,58
 990 1469 990 1469 791 1469 c 128,-1,59
 592 1469 592 1469 476 1272 c 0,60,61
 356 1068 356 1068 356 755 c 128,-1,62
 356 442 356 442 476 238 c 0,63,64
 504 190 504 190 592 104 c 24,65,66
 611 85 611 85 611 45 c 0,67,68
 611 0 611 0 536 0 c 2,0,1
EndSplineSet
Validated: 1
EndChar

StartChar: estimated
Encoding: 8494 8494 58
Width: 1258
GlyphClass: 2
Flags: W
HStem: 0 73<451.557 805.461> 565 74<331 927> 1057 73<452.165 800.247>
VStem: 100 231<322.452 565 639 808.838> 927 231<639 804.607>
LayerCount: 2
Fore
SplineSet
331 565 m 1,0,-1
 331 194 l 1,1,2
 451 73 451 73 629 73 c 0,3,4
 883 73 883 73 1024 319 c 1,5,-1
 1096 276 l 1,6,7
 976 103 976 103 864 51.5 c 128,-1,8
 752 0 752 0 629 0 c 0,9,10
 392 0 392 0 246 160 c 128,-1,11
 100 320 100 320 100 565 c 0,12,13
 100 812 100 812 247 971 c 128,-1,14
 394 1130 394 1130 629 1130 c 0,15,16
 843 1130 843 1130 995 988 c 128,-1,17
 1147 846 1147 846 1158 565 c 1,18,-1
 331 565 l 1,0,-1
927 639 m 1,19,-1
 927 936 l 1,20,21
 799 1057 799 1057 627 1057 c 0,22,23
 452 1057 452 1057 331 935 c 1,24,-1
 331 639 l 1,25,-1
 927 639 l 1,19,-1
EndSplineSet
Validated: 1
EndChar

StartChar: partialdiff
Encoding: 8706 8706 59
Width: 1285
GlyphClass: 2
Flags: W
HStem: -20 153<399.379 663.581> 870 140<547.102 824.163> 1325 152<492 830.231>
VStem: 150 188<198.966 602.91> 953 182<873.869 1171.56>
LayerCount: 2
Fore
SplineSet
420 1415 m 1,0,1
 554 1477 554 1477 703 1477 c 0,2,3
 1135 1477 1135 1477 1135 934 c 0,4,5
 1135 545 1135 545 966.5 262.5 c 128,-1,6
 798 -20 798 -20 512 -20 c 0,7,8
 150 -20 150 -20 150 375 c 0,9,10
 150 624 150 624 288 817 c 128,-1,11
 426 1010 426 1010 670 1010 c 0,12,13
 854 1010 854 1010 953 862 c 1,14,15
 953 1103 953 1103 898 1204 c 0,16,17
 832 1325 832 1325 678 1325 c 0,18,19
 547 1325 547 1325 420 1241 c 1,20,-1
 420 1415 l 1,0,1
920 680 m 1,21,22
 898 765 898 765 834.5 817.5 c 128,-1,23
 771 870 771 870 695 870 c 0,24,25
 535 870 535 870 436.5 710 c 128,-1,26
 338 550 338 550 338 369 c 0,27,28
 338 133 338 133 525 133 c 0,29,30
 663 133 663 133 772.5 286 c 128,-1,31
 882 439 882 439 920 680 c 1,21,22
EndSplineSet
Validated: 1
EndChar

StartChar: uni2206
Encoding: 8710 8710 60
Width: 1476
GlyphClass: 2
Flags: W
HStem: 0 80<222 1138> 0 50<12.6697 122.344 1353.66 1463.33> 1417 93<648 828>
DStem2: 130 90 222 80 0.323367 0.946274<20.287 1433.56> 1346 90 680 1417 0.323367 -0.946274<-1470.88 -57.7976>
LayerCount: 2
Fore
SplineSet
25 0 m 2,0,1
 10 0 10 0 10 15 c 2,2,-1
 10 35 l 2,3,4
 10 50 10 50 25 50 c 2,5,-1
 70 50 l 2,6,7
 116 50 116 50 130 90 c 2,8,-1
 605 1480 l 2,9,10
 615 1510 615 1510 648 1510 c 2,11,-1
 828 1510 l 2,12,13
 861 1510 861 1510 871 1480 c 2,14,-1
 1346 90 l 2,15,16
 1360 50 1360 50 1406 50 c 2,17,-1
 1451 50 l 2,18,19
 1466 50 1466 50 1466 35 c 2,20,-1
 1466 15 l 2,21,22
 1466 0 1466 0 1451 0 c 2,23,-1
 25 0 l 2,0,1
1138 80 m 1,24,-1
 680 1417 l 1,25,-1
 222 80 l 1,26,27
 1138 80 l 1,24,-1
EndSplineSet
Validated: 1
EndChar

StartChar: product
Encoding: 8719 8719 61
Width: 1549
GlyphClass: 2
Flags: W
HStem: -410 50<52.6697 178.884 1370.12 1496.33> 1460 50<52.6697 178.884 1370.12 1496.33>
VStem: 200 200<-349.707 1429.92> 1149 200<-349.707 1429.92>
LayerCount: 2
Fore
SplineSet
260 -410 m 2,0,-1
 65 -410 l 2,1,2
 50 -410 50 -410 50 -395 c 2,3,-1
 50 -375 l 2,4,5
 50 -360 50 -360 65 -360 c 2,6,-1
 110 -360 l 2,7,8
 200 -360 200 -360 200 -270 c 2,9,-1
 200 1370 l 2,10,11
 200 1460 200 1460 110 1460 c 2,12,-1
 65 1460 l 2,13,14
 50 1460 50 1460 50 1475 c 2,15,-1
 50 1495 l 2,16,17
 50 1510 50 1510 65 1510 c 2,18,-1
 1484 1510 l 2,19,20
 1499 1510 1499 1510 1499 1495 c 2,21,-1
 1499 1475 l 2,22,23
 1499 1460 1499 1460 1484 1460 c 2,24,-1
 1439 1460 l 2,25,26
 1349 1460 1349 1460 1349 1370 c 2,27,-1
 1349 -270 l 2,28,29
 1349 -360 1349 -360 1439 -360 c 2,30,-1
 1484 -360 l 2,31,32
 1499 -360 1499 -360 1499 -375 c 2,33,-1
 1499 -395 l 2,34,35
 1499 -410 1499 -410 1484 -410 c 2,36,-1
 1289 -410 l 2,37,38
 1149 -410 1149 -410 1149 -270 c 2,39,-1
 1149 1430 l 1,40,-1
 400 1430 l 1,41,-1
 400 -270 l 2,42,43
 400 -410 400 -410 260 -410 c 2,0,-1
EndSplineSet
Validated: 1
EndChar

StartChar: summation
Encoding: 8721 8721 62
Width: 1200
GlyphClass: 2
Flags: W
HStem: -410 80<361 995.746> 1430 80<350 971.746>
DStem2: 350 1430 105 1461 0.481107 -0.876662<0 848.494> 129 -361 361 -330 0.430817 0.902439<127.925 1053.81>
LayerCount: 2
Fore
SplineSet
161 -410 m 18,0,1
 124 -410 124 -410 124 -380 c 0,2,3
 124 -371 124 -371 129 -361 c 2,4,-1
 583 590 l 1,5,-1
 105 1461 l 2,6,7
 100 1470 100 1470 100 1480 c 0,8,9
 100 1510 100 1510 137 1510 c 10,10,-1
 935 1510 l 2,11,12
 1005 1510 1005 1510 1042 1447 c 2,13,-1
 1124 1306 l 2,14,15
 1126 1303 1126 1303 1126 1299 c 0,16,17
 1126 1292 1126 1292 1117 1287 c 2,18,-1
 1096 1276 l 2,19,20
 1092 1274 1092 1274 1089 1274 c 0,21,22
 1082 1274 1082 1274 1076 1284 c 0,23,24
 988 1430 988 1430 819 1430 c 2,25,-1
 350 1430 l 1,26,-1
 791 636 l 2,27,28
 802 616 802 616 802 594 c 128,-1,29
 802 572 802 572 793 554 c 2,30,-1
 361 -330 l 1,31,-1
 843 -330 l 2,32,33
 1012 -330 1012 -330 1100 -184 c 0,34,35
 1106 -174 1106 -174 1113 -174 c 0,36,37
 1116 -174 1116 -174 1120 -176 c 2,38,-1
 1141 -187 l 2,39,40
 1150 -192 1150 -192 1150 -199 c 0,41,42
 1150 -203 1150 -203 1148 -206 c 2,43,-1
 1066 -347 l 2,44,45
 1029 -410 1029 -410 959 -410 c 2,46,-1
 161 -410 l 18,0,1
EndSplineSet
Validated: 1
EndChar

StartChar: minus
Encoding: 8722 8722 63
Width: 1133
GlyphClass: 2
Flags: W
HStem: 680 150<150.195 982.805>
LayerCount: 2
Fore
SplineSet
200 830 m 2,0,-1
 933 830 l 2,1,2
 983 830 983 830 983 780 c 2,3,4
 983 730 l 2,5,6
 983 680 983 680 933 680 c 2,7,-1
 200 680 l 2,8,9
 150 680 150 680 150 730 c 2,10,-1
 150 780 l 2,11,12
 150 830 150 830 200 830 c 2,0,-1
EndSplineSet
Validated: 1
EndChar

StartChar: uni2215
Encoding: 8725 8725 64
Width: 1012
GlyphClass: 2
Flags: W
DStem2: 860 1522 994 1445 0.499465 0.866334<-1711.56 28.9864>
LayerCount: 2
Fore
SplineSet
114 -40 m 0,0,1
 102 -40 102 -40 86 -31 c 2,2,-1
 38 -3 l 2,3,4
 10 13 10 13 10 36 c 0,5,6
 10 49 10 49 20 65 c 2,7,-1
 860 1522 l 2,8,9
 876 1550 876 1550 898 1550 c 0,10,11
 912 1550 912 1550 928 1541 c 2,12,-1
 976 1513 l 2,13,14
 1002 1497 1002 1497 1002 1474 c 0,15,16
 1002 1461 1002 1461 994 1445 c 2,17,-1
 154 -12 l 2,18,19
 138 -40 138 -40 114 -40 c 0,0,1
EndSplineSet
Validated: 1
EndChar

StartChar: uni2219
Encoding: 8729 8729 65
Width: 340
GlyphClass: 2
Flags: W
HStem: 632 245<86.0974 253.903>
VStem: 50 240<669.129 839.871>
LayerCount: 2
Fore
SplineSet
170 877 m 128,-1,1
 220 877 220 877 255 841 c 128,-1,2
 290 805 290 805 290 754.5 c 128,-1,3
 290 704 290 704 255 668 c 128,-1,4
 220 632 220 632 170 632 c 128,-1,5
 120 632 120 632 85 668 c 128,-1,6
 50 704 50 704 50 754.5 c 128,-1,7
 50 805 50 805 85 841 c 128,-1,0
 120 877 120 877 170 877 c 128,-1,1
EndSplineSet
Validated: 1
EndChar

StartChar: radical
Encoding: 8730 8730 66
Width: 1187
GlyphClass: 2
Flags: W
HStem: 0 21G<443 588> 730 50<52.6697 168.404> 1460 50<1015.61 1134.33>
DStem2: 350 746 204 642 0.324324 -0.945946<-50.4459 666> 566 116 618 35 0.265815 0.964024<0 1418.16>
LayerCount: 2
Fore
SplineSet
462 0 m 2,0,1
 424 0 424 0 412 35 c 2,2,-1
 204 642 l 2,3,4
 174 730 174 730 110 730 c 2,5,-1
 65 730 l 2,6,7
 50 730 50 730 50 745 c 2,8,-1
 50 765 l 2,9,10
 50 780 50 780 65 780 c 2,11,-1
 301 780 l 2,12,13
 338 780 338 780 350 746 c 2,14,-1
 566 116 l 1,15,-1
 941 1476 l 2,16,17
 950 1510 950 1510 991 1510 c 2,18,-1
 1122 1510 l 2,19,20
 1137 1510 1137 1510 1137 1495 c 2,21,-1
 1137 1475 l 2,22,23
 1137 1460 1137 1460 1122 1460 c 2,24,-1
 1077 1460 l 2,25,26
 1007 1460 1007 1460 983 1372 c 2,27,-1
 618 35 l 2,28,29
 608 0 608 0 568 0 c 2,30,-1
 462 0 l 2,0,1
EndSplineSet
Validated: 1
EndChar

StartChar: infinity
Encoding: 8734 8734 67
Width: 1476
GlyphClass: 2
Flags: W
HStem: 430 46<407.557 555.909 921.557 1069.91> 1033 47<405.271 554.632 919.271 1068.63>
VStem: 150 148<584.757 926.278> 664 148<567.793 941.328> 1178 148<584.9 926.41>
CounterMasks: 1 38
LayerCount: 2
Fore
SplineSet
481 476 m 0,0,1
 559 476 559 476 613 558 c 0,2,3
 664 635 664 635 664 755 c 0,4,5
 664 876 664 876 613 951 c 0,6,7
 557 1033 557 1033 481 1033 c 0,8,9
 403 1033 403 1033 349 951 c 0,10,11
 298 875 298 875 298 755 c 0,12,13
 298 634 298 634 349 558 c 0,14,15
 404 476 404 476 481 476 c 0,0,1
481 1080 m 0,16,17
 624 1080 624 1080 713 994 c 0,18,19
 726 981 726 981 738 967 c 1,20,21
 750 981 750 981 763 994 c 0,22,23
 854 1080 854 1080 995 1080 c 0,24,25
 1138 1080 1138 1080 1227 994 c 0,26,27
 1326 899 1326 899 1326 755 c 0,28,29
 1326 612 1326 612 1227 516 c 0,30,31
 1137 430 1137 430 995 430 c 0,32,33
 849 430 849 430 763 516 c 0,34,35
 750 529 750 529 738 543 c 1,36,37
 726 529 726 529 713 516 c 0,38,39
 623 430 623 430 481 430 c 0,40,41
 335 430 335 430 249 516 c 0,42,43
 150 612 150 612 150 755 c 0,44,45
 150 899 150 899 249 994 c 0,46,47
 340 1080 340 1080 481 1080 c 0,16,17
995 476 m 0,48,49
 1073 476 1073 476 1127 558 c 0,50,51
 1178 635 1178 635 1178 755 c 0,52,53
 1178 876 1178 876 1127 951 c 0,54,55
 1071 1033 1071 1033 995 1033 c 0,56,57
 917 1033 917 1033 863 951 c 0,58,59
 812 875 812 875 812 755 c 0,60,61
 812 634 812 634 863 558 c 0,62,63
 918 476 918 476 995 476 c 0,48,49
EndSplineSet
Validated: 1
EndChar

StartChar: approxequal
Encoding: 8776 8776 68
Width: 1128
GlyphClass: 2
Flags: W
HStem: 376 147<655.871 870.046> 590 147<257.954 472.129> 776 147<655.871 870.046> 990 147<257.954 472.129> 1096 20G<921 963>
VStem: 150 72<397.066 546.663 797.066 946.663> 906 72<566.337 715.934 966.337 1115.93>
LayerCount: 2
Fore
SplineSet
381 737 m 0,0,1
 518 737 518 737 616 610 c 0,2,3
 683 523 683 523 758 523 c 0,4,5
 906 523 906 523 906 686 c 8,6,7
 906 716 906 716 936 716 c 2,8,-1
 948 716 l 2,9,10
 978 716 978 716 978 686 c 0,11,12
 978 376 978 376 747 376 c 0,13,14
 610 376 610 376 512 503 c 0,15,16
 445 590 445 590 370 590 c 0,17,18
 222 590 222 590 222 427 c 8,19,20
 222 397 222 397 192 397 c 2,21,-1
 180 397 l 2,22,23
 150 397 150 397 150 427 c 0,24,25
 150 737 150 737 381 737 c 0,0,1
381 1137 m 0,26,27
 518 1137 518 1137 616 1010 c 0,28,29
 683 923 683 923 758 923 c 0,30,31
 906 923 906 923 906 1086 c 8,32,33
 906 1116 906 1116 936 1116 c 2,34,-1
 948 1116 l 2,35,36
 978 1116 978 1116 978 1086 c 0,37,38
 978 776 978 776 747 776 c 0,39,40
 610 776 610 776 512 903 c 0,41,42
 445 990 445 990 370 990 c 0,43,44
 222 990 222 990 222 827 c 8,45,46
 222 797 222 797 192 797 c 2,47,-1
 180 797 l 2,48,49
 150 797 150 797 150 827 c 0,50,51
 150 1137 150 1137 381 1137 c 0,26,27
EndSplineSet
Validated: 1
EndChar

StartChar: notequal
Encoding: 8800 8800 69
Width: 1133
GlyphClass: 2
Flags: W
HStem: 490 150<150.195 357 560 982.805> 870 150<150.195 576 780 982.805>
DStem2: 214 242 301 192 0.500143 0.865943<-23.619 286.274 517.695 724.864 956.784 1259.48>
LayerCount: 2
Fore
SplineSet
863 1334 m 0,0,1
 874 1334 874 1334 887 1327 c 2,2,-1
 905 1316 l 2,3,4
 927 1303 927 1303 927 1285 c 0,5,6
 927 1274 927 1274 919 1262 c 2,7,-1
 780 1020 l 1,8,-1
 933 1020 l 2,9,10
 983 1020 983 1020 983 970 c 2,11,-1
 983 920 l 2,12,13
 983 870 983 870 933 870 c 2,14,-1
 693 870 l 1,15,-1
 560 640 l 1,16,-1
 933 640 l 2,17,18
 983 640 983 640 983 590 c 2,19,-1
 983 540 l 2,20,21
 983 490 983 490 933 490 c 2,22,-1
 473 490 l 1,23,-1
 301 192 l 2,24,25
 288 170 288 170 270 170 c 0,26,27
 259 170 259 170 246 177 c 2,28,-1
 228 188 l 2,29,30
 206 201 206 201 206 219 c 0,31,32
 206 230 206 230 214 242 c 2,33,-1
 357 490 l 1,34,-1
 200 490 l 2,35,36
 150 490 150 490 150 540 c 2,37,-1
 150 590 l 2,38,39
 150 640 150 640 200 640 c 2,40,-1
 443 640 l 1,41,-1
 576 870 l 1,42,-1
 200 870 l 2,43,44
 150 870 150 870 150 920 c 2,45,-1
 150 970 l 2,46,47
 150 1020 150 1020 200 1020 c 2,48,-1
 663 1020 l 1,49,-1
 832 1312 l 2,50,51
 845 1334 845 1334 863 1334 c 0,0,1
EndSplineSet
Validated: 1
EndChar

StartChar: lessequal
Encoding: 8804 8804 70
Width: 1233
GlyphClass: 2
Flags: W
HStem: 190 150<200.195 1032.8>
DStem2: 250 969 316 922 0.877998 0.478664<35.4507 766.155> 316 922 250 788 0.884548 -0.46645<0 727.191>
LayerCount: 2
Fore
SplineSet
200 899 m 2,0,1
 200 942 200 942 250 969 c 2,2,-1
 903 1325 l 2,3,4
 916 1332 916 1332 925 1332 c 0,5,6
 939 1332 939 1332 948 1317 c 2,7,-1
 959 1299 l 2,8,9
 966 1288 966 1288 966 1278 c 0,10,11
 966 1261 966 1261 952 1254 c 2,12,-1
 316 922 l 1,13,-1
 938 594 l 2,14,15
 966 579 966 579 966 556 c 0,16,17
 966 544 966 544 956 526 c 2,18,-1
 927 474 l 2,19,20
 912 447 912 447 888 447 c 0,21,22
 876 447 876 447 859 456 c 2,23,-1
 250 788 l 2,24,25
 200 815 200 815 200 858 c 2,26,-1
 200 899 l 2,0,1
250 340 m 2,27,-1
 983 340 l 2,28,29
 1033 340 1033 340 1033 290 c 2,30,-1
 1033 240 l 2,31,32
 1033 190 1033 190 983 190 c 2,33,-1
 250 190 l 2,34,35
 200 190 200 190 200 240 c 2,36,-1
 200 290 l 2,37,38
 200 340 200 340 250 340 c 2,27,-1
EndSplineSet
Validated: 1
EndChar

StartChar: greaterequal
Encoding: 8805 8805 71
Width: 1233
GlyphClass: 2
Flags: W
HStem: 190 150<200.195 1032.8>
DStem2: 281 538 330 467 0.877998 0.478664<-13.3812 717.323> 374 1336 917 870 0.884548 -0.46645<-29.5161 697.066>
LayerCount: 2
Fore
SplineSet
1033 893 m 2,0,1
 1033 850 1033 850 983 823 c 2,2,-1
 330 467 l 2,3,4
 317 460 317 460 308 460 c 0,5,6
 294 460 294 460 285 475 c 2,7,-1
 274 493 l 2,8,9
 267 504 267 504 267 514 c 0,10,11
 267 531 267 531 281 538 c 2,12,-1
 917 870 l 1,13,-1
 295 1198 l 2,14,15
 267 1213 267 1213 267 1236 c 0,16,17
 267 1248 267 1248 277 1266 c 2,18,-1
 306 1318 l 2,19,20
 321 1345 321 1345 345 1345 c 0,21,22
 357 1345 357 1345 374 1336 c 2,23,-1
 983 1004 l 2,24,25
 1033 977 1033 977 1033 934 c 2,26,-1
 1033 893 l 2,0,1
250 340 m 2,27,-1
 983 340 l 2,28,29
 1033 340 1033 340 1033 290 c 2,30,-1
 1033 240 l 2,31,32
 1033 190 1033 190 983 190 c 2,33,-1
 250 190 l 2,34,35
 200 190 200 190 200 240 c 2,36,-1
 200 290 l 2,37,38
 200 340 200 340 250 340 c 2,27,-1
EndSplineSet
Validated: 1
EndChar

StartChar: lozenge
Encoding: 9674 9674 72
Width: 1134
GlyphClass: 2
Flags: W
HStem: -20 21G<554.678 579.273> 1510 20G<555.207 578.838>
DStem2: 100 738 247 845 0.507923 0.861403<166.835 667.112> 247 845 100 738 0.524536 -0.851388<13.9917 731.768> 567 1530 501 1276 0.509354 -0.860557<184.964 916.848> 626 219 567 -20 0.523035 0.852311<0 492.332>
LayerCount: 2
Fore
SplineSet
626 219 m 1,0,-1
 878 642 l 1,1,-1
 501 1276 l 1,2,-1
 247 845 l 1,3,-1
 626 219 l 1,0,-1
567 -20 m 1,4,-1
 100 738 l 1,5,-1
 567 1530 l 1,6,-1
 1034 741 l 1,7,-1
 567 -20 l 1,4,-1
EndSplineSet
Validated: 1
EndChar

StartChar: uni1E02
Encoding: 7682 7682 73
Width: 1270
Flags: W
HStem: 0 61<52.6697 190.31 400 758.25> 806 60<400 728.426> 1449 61<52.6697 190.31 400 729.23> 1630 245<481.097 648.903>
VStem: 200 200<61.6235 806 866 1448.38> 445 240<1667.13 1837.87> 870 209<991.904 1325.69> 960 210<255.807 642.577>
LayerCount: 2
Fore
SplineSet
565 1875 m 128,-1,1
 615 1875 615 1875 650 1839 c 128,-1,2
 685 1803 685 1803 685 1752.5 c 128,-1,3
 685 1702 685 1702 650 1666 c 128,-1,4
 615 1630 615 1630 565 1630 c 128,-1,5
 515 1630 515 1630 480 1666 c 128,-1,6
 445 1702 445 1702 445 1752.5 c 128,-1,7
 445 1803 445 1803 480 1839 c 128,-1,0
 515 1875 515 1875 565 1875 c 128,-1,1
400 1449 m 1,8,-1
 400 866 l 1,9,-1
 575 866 l 2,10,11
 737 866 737 866 812 958 c 0,12,13
 870 1028 870 1028 870 1158 c 0,14,15
 870 1287 870 1287 812 1357 c 0,16,17
 736 1449 736 1449 575 1449 c 2,18,-1
 400 1449 l 1,8,-1
400 61 m 1,19,-1
 575 61 l 2,20,21
 772 61 772 61 870 161 c 0,22,23
 960 253 960 253 960 435 c 0,24,25
 960 614 960 614 870 706 c 0,26,27
 772 806 772 806 575 806 c 2,28,-1
 400 806 l 1,29,-1
 400 61 l 1,19,-1
65 0 m 2,30,31
 50 0 50 0 50 15 c 2,32,-1
 50 35 l 2,33,34
 50 50 50 50 65 50 c 2,35,-1
 110 50 l 2,36,37
 200 50 200 50 200 140 c 2,38,-1
 200 1370 l 2,39,40
 200 1460 200 1460 110 1460 c 2,41,-1
 65 1460 l 2,42,43
 50 1460 50 1460 50 1475 c 2,44,-1
 50 1495 l 2,45,46
 50 1510 50 1510 65 1510 c 2,47,-1
 665 1510 l 2,48,49
 835 1510 835 1510 948 1422 c 0,50,51
 1079 1320 1079 1320 1079 1158 c 0,52,53
 1079 959 1079 959 877 855 c 1,54,55
 955 833 955 833 1018 785 c 0,56,57
 1170 669 1170 669 1170 463 c 0,58,59
 1170 264 1170 264 1042 137 c 0,60,61
 905 0 905 0 665 0 c 2,62,-1
 65 0 l 2,30,31
EndSplineSet
Validated: 1
EndChar

StartChar: uni1E03
Encoding: 7683 7683 74
Width: 1239
Flags: W
HStem: -20 55<559.412 752.667> 0 21G<215 365> 1065 55<554.441 758.174> 1220 245<598.097 765.903> 1460 50<52.6697 178.884>
VStem: 200 180<0 183 224.672 877.369 917 1449.71> 562 240<1257.13 1427.87> 942 197<288.654 813.234>
LayerCount: 2
Fore
SplineSet
682 1465 m 128,-1,1
 732 1465 732 1465 767 1429 c 128,-1,2
 802 1393 802 1393 802 1342.5 c 128,-1,3
 802 1292 802 1292 767 1256 c 128,-1,4
 732 1220 732 1220 682 1220 c 128,-1,5
 632 1220 632 1220 597 1256 c 128,-1,6
 562 1292 562 1292 562 1342.5 c 128,-1,7
 562 1393 562 1393 597 1429 c 128,-1,0
 632 1465 632 1465 682 1465 c 128,-1,1
656 35 m 128,-1,9
 768 35 768 35 853 161 c 0,10,11
 942 294 942 294 942 550 c 0,12,13
 942 809 942 809 851 947 c 0,14,15
 773 1065 773 1065 656 1065 c 128,-1,16
 539 1065 539 1065 461 947 c 0,17,18
 400 855 400 855 380 709 c 1,19,-1
 380 392 l 1,20,21
 400 249 400 249 459 161 c 0,22,8
 544 35 544 35 656 35 c 128,-1,9
230 0 m 2,23,24
 200 0 200 0 200 30 c 2,25,-1
 200 1370 l 2,26,27
 200 1460 200 1460 110 1460 c 2,28,-1
 65 1460 l 2,29,30
 50 1460 50 1460 50 1475 c 2,31,-1
 50 1495 l 2,32,33
 50 1510 50 1510 65 1510 c 2,34,-1
 240 1510 l 2,35,36
 380 1510 380 1510 380 1370 c 2,37,-1
 380 917 l 1,38,39
 394 948 394 948 412 976 c 0,40,41
 454 1042 454 1042 518 1080 c 0,42,43
 586 1120 586 1120 686 1120 c 0,44,45
 890 1120 890 1120 1001 980 c 0,46,47
 1139 805 1139 805 1139 550 c 0,48,49
 1139 294 1139 294 1001 120 c 0,50,51
 890 -20 890 -20 686 -20 c 0,52,53
 586 -20 586 -20 518 20 c 0,54,55
 454 58 454 58 412 124 c 0,56,57
 394 152 394 152 380 183 c 1,58,-1
 380 30 l 2,59,60
 380 0 380 0 350 0 c 2,61,-1
 230 0 l 2,23,24
EndSplineSet
Validated: 1
EndChar

StartChar: uni1E0A
Encoding: 7690 7690 75
Width: 1447
Flags: W
HStem: 0 61<52.6697 190.31 400 832.062> 1449 61<52.6697 190.31 400 832.062> 1630 245<581.097 748.903>
VStem: 200 200<61.6235 1448.38> 545 240<1667.13 1837.87> 1125 222<469.638 1036.74>
LayerCount: 2
Fore
SplineSet
665 1875 m 128,-1,1
 715 1875 715 1875 750 1839 c 128,-1,2
 785 1803 785 1803 785 1752.5 c 128,-1,3
 785 1702 785 1702 750 1666 c 128,-1,4
 715 1630 715 1630 665 1630 c 128,-1,5
 615 1630 615 1630 580 1666 c 128,-1,6
 545 1702 545 1702 545 1752.5 c 128,-1,7
 545 1803 545 1803 580 1839 c 128,-1,0
 615 1875 615 1875 665 1875 c 128,-1,1
400 61 m 1,8,-1
 690 61 l 2,9,10
 889 61 889 61 1005 258 c 0,11,12
 1125 462 1125 462 1125 756 c 0,13,14
 1125 1048 1125 1048 1005 1252 c 0,15,16
 889 1449 889 1449 690 1449 c 2,17,-1
 400 1449 l 1,18,-1
 400 61 l 1,8,-1
65 0 m 2,19,20
 50 0 50 0 50 15 c 2,21,-1
 50 35 l 2,22,23
 50 50 50 50 65 50 c 2,24,-1
 110 50 l 2,25,26
 200 50 200 50 200 140 c 2,27,-1
 200 1370 l 2,28,29
 200 1460 200 1460 110 1460 c 2,30,-1
 65 1460 l 2,31,32
 50 1460 50 1460 50 1475 c 2,33,-1
 50 1495 l 2,34,35
 50 1510 50 1510 65 1510 c 2,36,-1
 690 1510 l 2,37,38
 989 1510 989 1510 1169 1284 c 0,39,40
 1347 1060 1347 1060 1347 755 c 128,-1,41
 1347 450 1347 450 1169 226 c 0,42,43
 989 0 989 0 690 0 c 2,44,-1
 65 0 l 2,19,20
EndSplineSet
Validated: 1
EndChar

StartChar: uni1E0B
Encoding: 7691 7691 76
Width: 1239
Flags: W
HStem: -20 55<487.696 679.588> 0 50<1060.12 1186.33> 1065 55<482.499 684.559> 1220 245<438.097 605.903> 1460 50<711.67 837.884>
VStem: 100 197<289.961 810.225> 402 240<1257.13 1427.87> 859 180<60.293 183 224.672 877.82 917 1449.71>
LayerCount: 2
Fore
SplineSet
522 1465 m 128,-1,1
 572 1465 572 1465 607 1429 c 128,-1,2
 642 1393 642 1393 642 1342.5 c 128,-1,3
 642 1292 642 1292 607 1256 c 128,-1,4
 572 1220 572 1220 522 1220 c 128,-1,5
 472 1220 472 1220 437 1256 c 128,-1,6
 402 1292 402 1292 402 1342.5 c 128,-1,7
 402 1393 402 1393 437 1429 c 128,-1,0
 472 1465 472 1465 522 1465 c 128,-1,1
583 35 m 128,-1,9
 695 35 695 35 780 161 c 0,10,11
 839 249 839 249 859 392 c 1,12,-1
 859 709 l 1,13,14
 839 856 839 856 778 947 c 0,15,16
 700 1065 700 1065 583 1065 c 128,-1,17
 466 1065 466 1065 388 947 c 0,18,19
 297 809 297 809 297 550 c 0,20,21
 297 294 297 294 386 161 c 0,22,8
 471 35 471 35 583 35 c 128,-1,9
100 550 m 0,23,24
 100 818 100 818 248 980 c 0,25,26
 376 1120 376 1120 553 1120 c 0,27,28
 653 1120 653 1120 721 1080 c 0,29,30
 785 1042 785 1042 827 976 c 0,31,32
 845 948 845 948 859 917 c 1,33,-1
 859 1370 l 2,34,35
 859 1460 859 1460 769 1460 c 2,36,-1
 724 1460 l 2,37,38
 709 1460 709 1460 709 1475 c 2,39,-1
 709 1495 l 2,40,41
 709 1510 709 1510 724 1510 c 2,42,-1
 899 1510 l 2,43,44
 1039 1510 1039 1510 1039 1370 c 2,45,-1
 1039 140 l 2,46,47
 1039 50 1039 50 1129 50 c 2,48,-1
 1174 50 l 2,49,50
 1189 50 1189 50 1189 35 c 2,51,-1
 1189 15 l 2,52,53
 1189 0 1189 0 1174 0 c 2,54,-1
 999 0 l 2,55,56
 859 0 859 0 859 140 c 2,57,-1
 859 183 l 1,58,59
 845 152 845 152 827 124 c 0,60,61
 785 58 785 58 721 20 c 0,62,63
 653 -20 653 -20 553 -20 c 0,64,65
 376 -20 376 -20 248 120 c 0,66,67
 100 286 100 286 100 550 c 0,23,24
EndSplineSet
Validated: 1
EndChar

StartChar: uni1E1E
Encoding: 7710 7710 77
Width: 1091
Flags: W
HStem: 0 21G<215 385> 715 80<400 741.365> 1430 80<400 916.746> 1460 50<52.6697 178.884> 1630 245<481.097 648.903>
VStem: 200 200<0 715 795 1429.92> 445 240<1667.13 1837.87> 752 50<593.68 693.884 816.116 916.32>
LayerCount: 2
Fore
SplineSet
565 1875 m 128,-1,1
 615 1875 615 1875 650 1839 c 128,-1,2
 685 1803 685 1803 685 1752.5 c 128,-1,3
 685 1702 685 1702 650 1666 c 128,-1,4
 615 1630 615 1630 565 1630 c 128,-1,5
 515 1630 515 1630 480 1666 c 128,-1,6
 445 1702 445 1702 445 1752.5 c 128,-1,7
 445 1803 445 1803 480 1839 c 128,-1,0
 515 1875 515 1875 565 1875 c 128,-1,1
230 0 m 2,8,9
 200 0 200 0 200 30 c 2,10,-1
 200 1370 l 2,11,12
 200 1460 200 1460 110 1460 c 2,13,-1
 65 1460 l 2,14,15
 50 1460 50 1460 50 1475 c 2,16,-1
 50 1495 l 2,17,18
 50 1510 50 1510 65 1510 c 2,19,-1
 880 1510 l 2,20,21
 950 1510 950 1510 987 1447 c 2,22,-1
 1069 1306 l 2,23,24
 1071 1303 1071 1303 1071 1299 c 0,25,26
 1071 1292 1071 1292 1062 1287 c 2,27,-1
 1041 1276 l 2,28,29
 1037 1274 1037 1274 1034 1274 c 0,30,31
 1027 1274 1027 1274 1021 1284 c 0,32,33
 933 1430 933 1430 764 1430 c 2,34,-1
 400 1430 l 1,35,-1
 400 795 l 1,36,-1
 662 795 l 2,37,38
 752 795 752 795 752 885 c 2,39,-1
 752 905 l 2,40,41
 752 919 752 919 766 919 c 2,42,-1
 786 919 l 2,43,44
 802 919 802 919 802 905 c 2,45,-1
 802 605 l 2,46,47
 802 591 802 591 786 591 c 2,48,-1
 766 591 l 2,49,50
 752 591 752 591 752 605 c 2,51,-1
 752 625 l 2,52,53
 752 715 752 715 662 715 c 2,54,-1
 400 715 l 1,55,-1
 400 30 l 2,56,57
 400 0 400 0 370 0 c 2,58,-1
 230 0 l 2,8,9
EndSplineSet
Validated: 1
EndChar

StartChar: uni1E1F
Encoding: 7711 7711 78
Width: 875
Flags: W
HStem: 0 21G<215 365> 740 60<50 200 380 670> 1480 50<504.517 703.715> 1630 245<481.097 648.903>
VStem: 200 180<0 740 800 1332.23> 445 240<1667.13 1837.87> 802 53<1232.46 1359.12>
LayerCount: 2
Fore
SplineSet
565 1875 m 128,-1,1
 615 1875 615 1875 650 1839 c 128,-1,2
 685 1803 685 1803 685 1752.5 c 128,-1,3
 685 1702 685 1702 650 1666 c 128,-1,4
 615 1630 615 1630 565 1630 c 128,-1,5
 515 1630 515 1630 480 1666 c 128,-1,6
 445 1702 445 1702 445 1752.5 c 128,-1,7
 445 1803 445 1803 480 1839 c 128,-1,0
 515 1875 515 1875 565 1875 c 128,-1,1
350 0 m 2,8,-1
 230 0 l 2,9,10
 200 0 200 0 200 30 c 2,11,-1
 200 740 l 1,12,-1
 65 740 l 2,13,14
 50 740 50 740 50 755 c 2,15,-1
 50 785 l 2,16,17
 50 800 50 800 65 800 c 2,18,-1
 200 800 l 1,19,-1
 200 1130 l 2,20,21
 200 1320 200 1320 320 1431 c 0,22,23
 428 1530 428 1530 587 1530 c 0,24,25
 730 1530 730 1530 831 1454 c 0,26,27
 855 1436 855 1436 855 1402 c 2,28,-1
 855 1246 l 2,29,30
 855 1231 855 1231 844 1231 c 2,31,-1
 817 1231 l 2,32,33
 804 1231 804 1231 802 1246 c 0,34,35
 777 1480 777 1480 616 1480 c 0,36,37
 502 1480 502 1480 444 1406 c 0,38,39
 380 1325 380 1325 380 1130 c 2,40,-1
 380 800 l 1,41,-1
 655 800 l 2,42,43
 670 800 670 800 670 785 c 2,44,-1
 670 755 l 2,45,46
 670 740 670 740 655 740 c 2,47,-1
 380 740 l 1,48,-1
 380 30 l 2,49,50
 380 0 380 0 350 0 c 2,8,-1
EndSplineSet
Validated: 1
EndChar

StartChar: uni1E41
Encoding: 7745 7745 79
Width: 1976
Flags: W
HStem: 0 50<1797.12 1923.33> 1020 100<601.41 826.719 1297.01 1534.72> 1050 50<52.6697 178.884> 1220 245<868.097 1035.9>
VStem: 200 180<0 530.559 574 1039.71> 832 240<1257.13 1427.87> 888 180<0 530.559 574 956.875> 1596 180<60.293 956.875>
LayerCount: 2
Fore
SplineSet
952 1465 m 128,-1,1
 1002 1465 1002 1465 1037 1429 c 128,-1,2
 1072 1393 1072 1393 1072 1342.5 c 128,-1,3
 1072 1292 1072 1292 1037 1256 c 128,-1,4
 1002 1220 1002 1220 952 1220 c 128,-1,5
 902 1220 902 1220 867 1256 c 128,-1,6
 832 1292 832 1292 832 1342.5 c 128,-1,7
 832 1393 832 1393 867 1429 c 128,-1,0
 902 1465 902 1465 952 1465 c 128,-1,1
230 0 m 2,8,9
 200 0 200 0 200 30 c 2,10,-1
 200 960 l 2,11,12
 200 1050 200 1050 110 1050 c 2,13,-1
 65 1050 l 2,14,15
 50 1050 50 1050 50 1065 c 2,16,-1
 50 1085 l 2,17,18
 50 1100 50 1100 65 1100 c 2,19,-1
 240 1100 l 2,20,21
 380 1100 380 1100 380 960 c 2,22,-1
 380 574 l 1,23,24
 441 1120 441 1120 758 1120 c 0,25,26
 901 1120 901 1120 982 1036 c 0,27,28
 1068 947 1068 947 1068 770 c 2,29,-1
 1068 574 l 1,30,31
 1129 1120 1129 1120 1466 1120 c 0,32,33
 1609 1120 1609 1120 1690 1036 c 0,34,35
 1776 947 1776 947 1776 770 c 2,36,-1
 1776 140 l 2,37,38
 1776 50 1776 50 1866 50 c 2,39,-1
 1911 50 l 2,40,41
 1926 50 1926 50 1926 35 c 2,42,-1
 1926 15 l 2,43,44
 1926 0 1926 0 1911 0 c 2,45,-1
 1736 0 l 2,46,47
 1596 0 1596 0 1596 140 c 2,48,-1
 1596 770 l 2,49,50
 1596 890 1596 890 1564 941 c 0,51,52
 1514 1020 1514 1020 1413 1020 c 0,53,54
 1068 1020 1068 1020 1068 30 c 0,55,56
 1068 0 1068 0 1038 0 c 2,57,-1
 918 0 l 2,58,59
 888 0 888 0 888 30 c 2,60,-1
 888 770 l 2,61,62
 888 890 888 890 856 941 c 0,63,64
 806 1020 806 1020 705 1020 c 0,65,66
 380 1020 380 1020 380 30 c 24,67,68
 380 0 380 0 350 0 c 2,69,-1
 230 0 l 2,8,9
EndSplineSet
Validated: 1
EndChar

StartChar: uni1E56
Encoding: 7766 7766 80
Width: 1208
Flags: W
HStem: 0 21G<225 375> 548 61<400 677.656> 1449 61<52.6697 190.31 400 677.656> 1630 245<481.097 648.903>
VStem: 200 200<0.191406 548 609 1448.38> 445 240<1667.13 1837.87> 898 210<815.19 1243.2>
LayerCount: 2
Fore
SplineSet
565 1875 m 128,-1,1
 615 1875 615 1875 650 1839 c 128,-1,2
 685 1803 685 1803 685 1752.5 c 128,-1,3
 685 1702 685 1702 650 1666 c 128,-1,4
 615 1630 615 1630 565 1630 c 128,-1,5
 515 1630 515 1630 480 1666 c 128,-1,6
 445 1702 445 1702 445 1752.5 c 128,-1,7
 445 1803 445 1803 480 1839 c 128,-1,0
 515 1875 515 1875 565 1875 c 128,-1,1
250 0 m 2,8,9
 200 0 200 0 200 49 c 2,10,-1
 200 1370 l 2,11,12
 200 1460 200 1460 110 1460 c 2,13,-1
 65 1460 l 2,14,15
 50 1460 50 1460 50 1475 c 2,16,-1
 50 1495 l 2,17,18
 50 1510 50 1510 65 1510 c 2,19,-1
 623 1510 l 2,20,21
 847 1510 847 1510 985 1361 c 0,22,23
 1108 1229 1108 1229 1108 1029 c 128,-1,24
 1108 829 1108 829 985 697 c 0,25,26
 847 548 847 548 623 548 c 2,27,-1
 400 548 l 1,28,-1
 400 49 l 2,29,30
 400 0 400 0 350 0 c 2,31,-1
 250 0 l 2,8,9
400 1449 m 1,32,-1
 400 609 l 1,33,-1
 503 609 l 2,34,35
 724 609 724 609 827 755 c 0,36,37
 898 859 898 859 898 1029 c 0,38,39
 898 1201 898 1201 827 1303 c 0,40,41
 724 1449 724 1449 503 1449 c 2,42,-1
 400 1449 l 1,32,-1
EndSplineSet
Validated: 1
EndChar

StartChar: uni1E57
Encoding: 7767 7767 81
Width: 1239
Flags: W
HStem: -410 21G<215 365> -20 55<554.441 758.174> 1050 50<52.6697 178.884> 1065 55<559.412 752.667> 1220 245<568.097 735.903>
VStem: 200 180<-410 183 222.18 875.328 917 1039.71> 532 240<1257.13 1427.87> 942 197<286.766 811.346>
LayerCount: 2
Fore
SplineSet
652 1465 m 128,-1,1
 702 1465 702 1465 737 1429 c 128,-1,2
 772 1393 772 1393 772 1342.5 c 128,-1,3
 772 1292 772 1292 737 1256 c 128,-1,4
 702 1220 702 1220 652 1220 c 128,-1,5
 602 1220 602 1220 567 1256 c 128,-1,6
 532 1292 532 1292 532 1342.5 c 128,-1,7
 532 1393 532 1393 567 1429 c 128,-1,0
 602 1465 602 1465 652 1465 c 128,-1,1
656 1065 m 128,-1,9
 544 1065 544 1065 459 939 c 0,10,11
 400 851 400 851 380 708 c 1,12,-1
 380 391 l 1,13,14
 400 244 400 244 461 153 c 0,15,16
 539 35 539 35 656 35 c 128,-1,17
 773 35 773 35 851 153 c 0,18,19
 942 291 942 291 942 550 c 0,20,21
 942 806 942 806 853 939 c 0,22,8
 768 1065 768 1065 656 1065 c 128,-1,9
686 -20 m 0,23,24
 586 -20 586 -20 518 20 c 0,25,26
 454 58 454 58 412 124 c 0,27,28
 394 152 394 152 380 183 c 1,29,-1
 380 -380 l 2,30,31
 380 -410 380 -410 350 -410 c 2,32,-1
 230 -410 l 2,33,34
 200 -410 200 -410 200 -380 c 2,35,-1
 200 960 l 2,36,37
 200 1050 200 1050 110 1050 c 2,38,-1
 65 1050 l 2,39,40
 50 1050 50 1050 50 1065 c 2,41,-1
 50 1085 l 2,42,43
 50 1100 50 1100 65 1100 c 2,44,-1
 240 1100 l 2,45,46
 380 1100 380 1100 380 960 c 2,47,-1
 380 917 l 1,48,49
 394 948 394 948 412 976 c 0,50,51
 454 1042 454 1042 518 1080 c 0,52,53
 586 1120 586 1120 686 1120 c 0,54,55
 890 1120 890 1120 1001 980 c 0,56,57
 1139 806 1139 806 1139 550 c 0,58,59
 1139 295 1139 295 1001 120 c 0,60,61
 890 -20 890 -20 686 -20 c 0,23,24
EndSplineSet
Validated: 1
EndChar

StartChar: uni1E60
Encoding: 7776 7776 82
Width: 1160
Flags: W
HStem: -20 61<339.104 646.609> 1469 61<453.518 699.431> 1630 245<481.097 648.903>
VStem: 80 53<273.483 393.535> 179 177<1099.09 1343.81> 445 240<1667.13 1837.87> 840 200<272.379 576.516> 868 53<1126.46 1251.81>
DStem2: 567 970 438 811 0.90695 -0.421238<-201.288 342.966>
LayerCount: 2
Fore
SplineSet
565 1875 m 128,-1,1
 615 1875 615 1875 650 1839 c 128,-1,2
 685 1803 685 1803 685 1752.5 c 128,-1,3
 685 1702 685 1702 650 1666 c 128,-1,4
 615 1630 615 1630 565 1630 c 128,-1,5
 515 1630 515 1630 480 1666 c 128,-1,6
 445 1702 445 1702 445 1752.5 c 128,-1,7
 445 1803 445 1803 480 1839 c 128,-1,0
 515 1875 515 1875 565 1875 c 128,-1,1
506 -20 m 0,8,9
 258 -20 258 -20 114 89 c 0,10,11
 80 115 80 115 80 163 c 2,12,-1
 80 380 l 2,13,14
 80 395 80 395 95 395 c 2,15,-1
 118 395 l 2,16,17
 131 395 131 395 133 380 c 0,18,19
 180 41 180 41 506 41 c 0,20,21
 654 41 654 41 747 149 c 128,-1,22
 840 257 840 257 840 396 c 0,23,24
 840 622 840 622 632 720 c 2,25,-1
 438 811 l 2,26,27
 179 932 179 932 179 1162 c 0,28,29
 179 1343 179 1343 318 1456 c 0,30,31
 410 1530 410 1530 565 1530 c 0,32,33
 757 1530 757 1530 887 1431 c 0,34,35
 921 1405 921 1405 921 1357 c 2,36,-1
 921 1140 l 2,37,38
 921 1125 921 1125 906 1125 c 2,39,-1
 883 1125 l 2,40,41
 870 1125 870 1125 868 1140 c 0,42,43
 821 1469 821 1469 565 1469 c 0,44,45
 475 1469 475 1469 415.5 1408.5 c 128,-1,46
 356 1348 356 1348 356 1238 c 0,47,48
 357 1068 357 1068 567 970 c 2,49,-1
 778 872 l 2,50,51
 1040 750 1040 750 1040 472 c 0,52,53
 1040 294 1040 294 915 149 c 0,54,55
 771 -20 771 -20 506 -20 c 0,8,9
EndSplineSet
Validated: 1
EndChar

StartChar: uni1E61
Encoding: 7777 7777 83
Width: 956
Flags: W
HStem: -20 50<303.195 524.699> 1070 50<387.486 555.161> 1220 245<388.097 555.903>
VStem: 80 53<227.508 331.535> 150 170<775.687 989.988> 352 240<1257.13 1427.87> 661 175<172.47 426.9> 681 53<792.615 895.719>
DStem2: 473 704 409 535 0.932266 -0.361775<-151.731 262.359>
LayerCount: 2
Fore
SplineSet
472 1465 m 128,-1,1
 522 1465 522 1465 557 1429 c 128,-1,2
 592 1393 592 1393 592 1342.5 c 128,-1,3
 592 1292 592 1292 557 1256 c 128,-1,4
 522 1220 522 1220 472 1220 c 128,-1,5
 422 1220 422 1220 387 1256 c 128,-1,6
 352 1292 352 1292 352 1342.5 c 128,-1,7
 352 1393 352 1393 387 1429 c 128,-1,0
 422 1465 422 1465 472 1465 c 128,-1,1
426 -20 m 0,8,9
 255 -20 255 -20 114 88 c 0,10,11
 80 114 80 114 80 162 c 2,12,-1
 80 318 l 2,13,14
 80 333 80 333 95 333 c 2,15,-1
 118 333 l 2,16,17
 131 333 131 333 133 318 c 0,18,19
 189 30 189 30 421 30 c 0,20,21
 530 30 530 30 599 118 c 0,22,23
 661 198 661 198 661 298 c 0,24,25
 661 442 661 442 517 495 c 2,26,-1
 409 535 l 2,27,28
 150 631 150 631 150 845 c 0,29,30
 150 964 150 964 248 1050 c 0,31,32
 328 1120 328 1120 463 1120 c 0,33,34
 613 1120 613 1120 700 1036 c 24,35,36
 734 1002 734 1002 734 962 c 2,37,-1
 734 806 l 2,38,39
 734 791 734 791 719 791 c 2,40,-1
 696 791 l 2,41,42
 684 791 684 791 681 806 c 0,43,44
 620 1070 620 1070 479 1070 c 0,45,46
 393 1070 393 1070 352 1011 c 0,47,48
 320 965 320 965 320 900 c 0,49,50
 320 763 320 763 473 704 c 2,51,-1
 607 652 l 2,52,53
 836 563 836 563 836 350 c 0,54,55
 836 194 836 194 728 92 c 0,56,57
 609 -20 609 -20 426 -20 c 0,8,9
EndSplineSet
Validated: 1
EndChar

StartChar: uni1E6A
Encoding: 7786 7786 84
Width: 1278
Flags: W
HStem: 0 21G<554 724> 1430 80<164.254 539 739 1113.75> 1630 245<561.097 728.903>
VStem: 525 240<1667.13 1837.87> 539 200<0 1430>
LayerCount: 2
Fore
SplineSet
645 1875 m 128,-1,1
 695 1875 695 1875 730 1839 c 128,-1,2
 765 1803 765 1803 765 1752.5 c 128,-1,3
 765 1702 765 1702 730 1666 c 128,-1,4
 695 1630 695 1630 645 1630 c 128,-1,5
 595 1630 595 1630 560 1666 c 128,-1,6
 525 1702 525 1702 525 1752.5 c 128,-1,7
 525 1803 525 1803 560 1839 c 128,-1,0
 595 1875 595 1875 645 1875 c 128,-1,1
569 0 m 2,8,9
 539 0 539 0 539 30 c 2,10,-1
 539 1430 l 1,11,-1
 317 1430 l 2,12,13
 148 1430 148 1430 60 1284 c 0,14,15
 54 1274 54 1274 47 1274 c 0,16,17
 44 1274 44 1274 40 1276 c 2,18,-1
 19 1287 l 2,19,20
 10 1292 10 1292 10 1299 c 0,21,22
 10 1303 10 1303 12 1306 c 2,23,-1
 94 1447 l 2,24,25
 131 1510 131 1510 201 1510 c 2,26,-1
 1077 1510 l 2,27,28
 1147 1510 1147 1510 1184 1447 c 2,29,-1
 1266 1306 l 2,30,31
 1268 1303 1268 1303 1268 1299 c 0,32,33
 1268 1292 1268 1292 1259 1287 c 2,34,-1
 1238 1276 l 2,35,36
 1234 1274 1234 1274 1231 1274 c 0,37,38
 1224 1274 1224 1274 1218 1284 c 0,39,40
 1130 1430 1130 1430 961 1430 c 2,41,-1
 739 1430 l 1,42,-1
 739 30 l 2,43,44
 739 0 739 0 709 0 c 2,45,-1
 569 0 l 2,8,9
EndSplineSet
Validated: 1
EndChar

StartChar: uni1E6B
Encoding: 7787 7787 85
Width: 640
Flags: W
HStem: 0 50<431.116 557.33> 1040 60<10 230 410 630> 1460 50<82.6697 208.884> 1630 245<211.097 378.903>
VStem: 175 240<1667.13 1837.87> 230 180<60.293 1040 1100 1449.71>
LayerCount: 2
Fore
SplineSet
295 1875 m 128,-1,1
 345 1875 345 1875 380 1839 c 128,-1,2
 415 1803 415 1803 415 1752.5 c 128,-1,3
 415 1702 415 1702 380 1666 c 128,-1,4
 345 1630 345 1630 295 1630 c 128,-1,5
 245 1630 245 1630 210 1666 c 128,-1,6
 175 1702 175 1702 175 1752.5 c 128,-1,7
 175 1803 175 1803 210 1839 c 128,-1,0
 245 1875 245 1875 295 1875 c 128,-1,1
370 0 m 2,8,9
 230 0 230 0 230 140 c 2,10,-1
 230 1040 l 1,11,-1
 25 1040 l 2,12,13
 10 1040 10 1040 10 1055 c 2,14,-1
 10 1085 l 2,15,16
 10 1100 10 1100 25 1100 c 2,17,-1
 230 1100 l 1,18,-1
 230 1370 l 2,19,20
 230 1460 230 1460 140 1460 c 2,21,-1
 95 1460 l 2,22,23
 80 1460 80 1460 80 1475 c 2,24,-1
 80 1495 l 2,25,26
 80 1510 80 1510 95 1510 c 2,27,-1
 270 1510 l 2,28,29
 410 1510 410 1510 410 1370 c 2,30,-1
 410 1100 l 1,31,-1
 615 1100 l 2,32,33
 630 1100 630 1100 630 1085 c 2,34,-1
 630 1055 l 2,35,36
 630 1040 630 1040 615 1040 c 2,37,-1
 410 1040 l 1,38,-1
 410 140 l 2,39,40
 410 50 410 50 500 50 c 2,41,-1
 545 50 l 2,42,43
 560 50 560 50 560 35 c 2,44,-1
 560 15 l 2,45,46
 560 0 560 0 545 0 c 2,47,-1
 370 0 l 2,8,9
EndSplineSet
Validated: 1
EndChar

StartChar: Wgrave
Encoding: 7808 7808 86
Width: 1993
Flags: W
HStem: 0 21G<631.5 844.5 1148.5 1361.5> 1460 50<12.6697 122.344 529.67 639.344 1354.66 1463.33 1871.66 1980.33>
DStem2: 337 1434 130 1420 0.323367 -0.946274<-89.1914 1417.19> 854 1434 647 1420 0.323367 -0.946274<-89.1914 620.459 767.513 878.581 1027.2 1417.19> 796 93 871 30 0.323367 0.946274<0 352.341 797.242 1490.43> 1313 93 1388 30 0.323367 0.946274<0 1490.43>
LayerCount: 2
Fore
SplineSet
648 0 m 2,0,1
 615 0 615 0 605 30 c 2,2,-1
 130 1420 l 2,3,4
 116 1460 116 1460 70 1460 c 2,5,-1
 25 1460 l 2,6,7
 10 1460 10 1460 10 1475 c 2,8,-1
 10 1495 l 2,9,10
 10 1510 10 1510 25 1510 c 2,11,-1
 219 1510 l 2,12,13
 311 1510 311 1510 337 1434 c 2,14,-1
 796 93 l 1,15,-1
 949 538 l 1,16,-1
 647 1420 l 2,17,18
 633 1460 633 1460 587 1460 c 2,19,-1
 542 1460 l 2,20,21
 527 1460 527 1460 527 1475 c 2,22,-1
 527 1495 l 2,23,24
 527 1510 527 1510 542 1510 c 2,25,-1
 736 1510 l 2,26,27
 828 1510 828 1510 854 1434 c 2,28,-1
 1055 847 l 1,29,-1
 1256 1434 l 2,30,31
 1282 1510 1282 1510 1374 1510 c 2,32,-1
 1451 1510 l 2,33,34
 1466 1510 1466 1510 1466 1495 c 2,35,-1
 1466 1475 l 2,36,37
 1466 1460 1466 1460 1451 1460 c 2,38,-1
 1406 1460 l 2,39,40
 1360 1460 1360 1460 1346 1420 c 2,41,-1
 1103 708 l 1,42,-1
 1313 93 l 1,43,-1
 1773 1434 l 2,44,45
 1799 1510 1799 1510 1891 1510 c 2,46,-1
 1968 1510 l 2,47,48
 1983 1510 1983 1510 1983 1495 c 2,49,-1
 1983 1475 l 2,50,51
 1983 1460 1983 1460 1968 1460 c 2,52,-1
 1923 1460 l 2,53,54
 1877 1460 1877 1460 1863 1420 c 2,55,-1
 1388 30 l 2,56,57
 1378 0 1378 0 1345 0 c 2,58,-1
 1165 0 l 2,59,60
 1132 0 1132 0 1122 30 c 2,61,-1
 996 397 l 1,62,-1
 871 30 l 2,63,64
 861 0 861 0 828 0 c 2,65,-1
 648 0 l 2,0,1
798 1901 m 2,66,-1
 948 1901 l 2,67,68
 979 1901 979 1901 990 1871 c 2,69,-1
 1090 1600 l 2,70,71
 1093 1592 1093 1592 1093 1588 c 0,72,73
 1093 1570 1093 1570 1072 1570 c 2,74,-1
 1031 1570 l 2,75,76
 1002 1570 1002 1570 983 1596 c 2,77,-1
 780 1871 l 2,78,79
 774 1879 774 1879 774 1886 c 0,80,81
 774 1901 774 1901 798 1901 c 2,66,-1
EndSplineSet
Validated: 1
EndChar

StartChar: wgrave
Encoding: 7809 7809 87
Width: 1684
Flags: W
HStem: 0 21G<531.5 684 1004.5 1157> 1050 50<12.6697 122.002 485.67 595.002 1090.32 1198.33 1563.32 1671.33>
DStem2: 317 1024 130 1010 0.354884 -0.93491<-91.9991 974.138> 790 1024 603 1010 0.354884 -0.93491<-91.9991 305.712 419.008 508.175 622.761 974.138> 662 113 712 30 0.352379 0.935857<0 311.783 668.072 1042.63> 1135 113 1185 30 0.352379 0.935857<0 1042.63>
LayerCount: 2
Fore
SplineSet
639 1491 m 2,0,-1
 789 1491 l 2,1,2
 820 1491 820 1491 831 1461 c 2,3,-1
 931 1190 l 2,4,5
 934 1182 934 1182 934 1178 c 0,6,7
 934 1160 934 1160 913 1160 c 2,8,-1
 872 1160 l 2,9,10
 843 1160 843 1160 824 1186 c 2,11,-1
 621 1461 l 2,12,13
 615 1469 615 1469 615 1476 c 0,14,15
 615 1491 615 1491 639 1491 c 2,0,-1
550 0 m 2,16,17
 513 0 513 0 502 30 c 2,18,-1
 130 1010 l 2,19,20
 115 1050 115 1050 70 1050 c 2,21,-1
 25 1050 l 2,22,23
 10 1050 10 1050 10 1065 c 2,24,-1
 10 1085 l 2,25,26
 10 1100 10 1100 25 1100 c 2,27,-1
 199 1100 l 2,28,29
 288 1100 288 1100 317 1024 c 2,30,-1
 662 113 l 1,31,-1
 802 485 l 1,32,-1
 603 1010 l 2,33,34
 588 1050 588 1050 543 1050 c 2,35,-1
 498 1050 l 2,36,37
 483 1050 483 1050 483 1065 c 2,38,-1
 483 1085 l 2,39,40
 483 1100 483 1100 498 1100 c 2,41,-1
 672 1100 l 2,42,43
 761 1100 761 1100 790 1024 c 2,44,-1
 898 738 l 1,45,-1
 1006 1024 l 2,46,47
 1035 1100 1035 1100 1124 1100 c 2,48,-1
 1186 1100 l 2,49,50
 1201 1100 1201 1100 1201 1085 c 2,51,-1
 1201 1065 l 2,52,53
 1201 1050 1201 1050 1186 1050 c 2,54,-1
 1141 1050 l 2,55,56
 1096 1050 1096 1050 1081 1010 c 2,57,-1
 938 632 l 1,58,-1
 1135 113 l 1,59,-1
 1479 1024 l 2,60,61
 1508 1100 1508 1100 1597 1100 c 2,62,-1
 1659 1100 l 2,63,64
 1674 1100 1674 1100 1674 1085 c 2,65,-1
 1674 1065 l 2,66,67
 1674 1050 1674 1050 1659 1050 c 2,68,-1
 1614 1050 l 2,69,70
 1569 1050 1569 1050 1554 1010 c 2,71,-1
 1185 30 l 2,72,73
 1174 0 1174 0 1140 0 c 2,74,-1
 1023 0 l 2,75,76
 986 0 986 0 975 30 c 2,77,-1
 843 378 l 1,78,-1
 712 30 l 2,79,80
 701 0 701 0 667 0 c 2,81,-1
 550 0 l 2,16,17
EndSplineSet
Validated: 1
EndChar

StartChar: Wacute
Encoding: 7810 7810 88
Width: 1993
Flags: W
HStem: 0 21G<631.5 844.5 1148.5 1361.5> 1460 50<12.6697 122.344 529.67 639.344 1354.66 1463.33 1871.66 1980.33>
DStem2: 337 1434 130 1420 0.323367 -0.946274<-89.1914 1417.19> 854 1434 647 1420 0.323367 -0.946274<-89.1914 620.459 767.513 878.581 1027.2 1417.19> 796 93 871 30 0.323367 0.946274<0 352.341 797.242 1490.43> 1313 93 1388 30 0.323367 0.946274<0 1490.43>
LayerCount: 2
Fore
SplineSet
648 0 m 2,0,1
 615 0 615 0 605 30 c 2,2,-1
 130 1420 l 2,3,4
 116 1460 116 1460 70 1460 c 2,5,-1
 25 1460 l 2,6,7
 10 1460 10 1460 10 1475 c 2,8,-1
 10 1495 l 2,9,10
 10 1510 10 1510 25 1510 c 2,11,-1
 219 1510 l 2,12,13
 311 1510 311 1510 337 1434 c 2,14,-1
 796 93 l 1,15,-1
 949 538 l 1,16,-1
 647 1420 l 2,17,18
 633 1460 633 1460 587 1460 c 2,19,-1
 542 1460 l 2,20,21
 527 1460 527 1460 527 1475 c 2,22,-1
 527 1495 l 2,23,24
 527 1510 527 1510 542 1510 c 2,25,-1
 736 1510 l 2,26,27
 828 1510 828 1510 854 1434 c 2,28,-1
 1055 847 l 1,29,-1
 1256 1434 l 2,30,31
 1282 1510 1282 1510 1374 1510 c 2,32,-1
 1451 1510 l 2,33,34
 1466 1510 1466 1510 1466 1495 c 2,35,-1
 1466 1475 l 2,36,37
 1466 1460 1466 1460 1451 1460 c 2,38,-1
 1406 1460 l 2,39,40
 1360 1460 1360 1460 1346 1420 c 2,41,-1
 1103 708 l 1,42,-1
 1313 93 l 1,43,-1
 1773 1434 l 2,44,45
 1799 1510 1799 1510 1891 1510 c 2,46,-1
 1968 1510 l 2,47,48
 1983 1510 1983 1510 1983 1495 c 2,49,-1
 1983 1475 l 2,50,51
 1983 1460 1983 1460 1968 1460 c 2,52,-1
 1923 1460 l 2,53,54
 1877 1460 1877 1460 1863 1420 c 2,55,-1
 1388 30 l 2,56,57
 1378 0 1378 0 1345 0 c 2,58,-1
 1165 0 l 2,59,60
 1132 0 1132 0 1122 30 c 2,61,-1
 996 397 l 1,62,-1
 871 30 l 2,63,64
 861 0 861 0 828 0 c 2,65,-1
 648 0 l 2,0,1
1301 1901 m 2,66,67
 1325 1901 1325 1901 1325 1886 c 0,68,69
 1325 1879 1325 1879 1319 1871 c 2,70,-1
 1116 1596 l 2,71,72
 1097 1570 1097 1570 1068 1570 c 2,73,-1
 1027 1570 l 2,74,75
 1006 1570 1006 1570 1006 1588 c 0,76,77
 1006 1592 1006 1592 1009 1600 c 2,78,-1
 1109 1871 l 2,79,80
 1120 1901 1120 1901 1151 1901 c 2,81,-1
 1301 1901 l 2,66,67
EndSplineSet
Validated: 1
EndChar

StartChar: wacute
Encoding: 7811 7811 89
Width: 1684
Flags: W
HStem: 0 21G<531.5 684 1004.5 1157> 1050 50<12.6697 122.002 485.67 595.002 1090.32 1198.33 1563.32 1671.33>
DStem2: 317 1024 130 1010 0.354884 -0.93491<-91.9991 974.138> 790 1024 603 1010 0.354884 -0.93491<-91.9991 305.712 419.008 508.175 622.761 974.138> 662 113 712 30 0.352379 0.935857<0 311.783 668.072 1042.63> 1135 113 1185 30 0.352379 0.935857<0 1042.63>
LayerCount: 2
Fore
SplineSet
1149 1491 m 2,0,1
 1173 1491 1173 1491 1173 1476 c 0,2,3
 1173 1469 1173 1469 1167 1461 c 2,4,-1
 964 1186 l 2,5,6
 945 1160 945 1160 916 1160 c 2,7,-1
 875 1160 l 2,8,9
 854 1160 854 1160 854 1178 c 0,10,11
 854 1182 854 1182 857 1190 c 2,12,-1
 957 1461 l 2,13,14
 968 1491 968 1491 999 1491 c 2,15,-1
 1149 1491 l 2,0,1
550 0 m 2,16,17
 513 0 513 0 502 30 c 2,18,-1
 130 1010 l 2,19,20
 115 1050 115 1050 70 1050 c 2,21,-1
 25 1050 l 2,22,23
 10 1050 10 1050 10 1065 c 2,24,-1
 10 1085 l 2,25,26
 10 1100 10 1100 25 1100 c 2,27,-1
 199 1100 l 2,28,29
 288 1100 288 1100 317 1024 c 2,30,-1
 662 113 l 1,31,-1
 802 485 l 1,32,-1
 603 1010 l 2,33,34
 588 1050 588 1050 543 1050 c 2,35,-1
 498 1050 l 2,36,37
 483 1050 483 1050 483 1065 c 2,38,-1
 483 1085 l 2,39,40
 483 1100 483 1100 498 1100 c 2,41,-1
 672 1100 l 2,42,43
 761 1100 761 1100 790 1024 c 2,44,-1
 898 738 l 1,45,-1
 1006 1024 l 2,46,47
 1035 1100 1035 1100 1124 1100 c 2,48,-1
 1186 1100 l 2,49,50
 1201 1100 1201 1100 1201 1085 c 2,51,-1
 1201 1065 l 2,52,53
 1201 1050 1201 1050 1186 1050 c 2,54,-1
 1141 1050 l 2,55,56
 1096 1050 1096 1050 1081 1010 c 2,57,-1
 938 632 l 1,58,-1
 1135 113 l 1,59,-1
 1479 1024 l 2,60,61
 1508 1100 1508 1100 1597 1100 c 2,62,-1
 1659 1100 l 2,63,64
 1674 1100 1674 1100 1674 1085 c 2,65,-1
 1674 1065 l 2,66,67
 1674 1050 1674 1050 1659 1050 c 2,68,-1
 1614 1050 l 2,69,70
 1569 1050 1569 1050 1554 1010 c 2,71,-1
 1185 30 l 2,72,73
 1174 0 1174 0 1140 0 c 2,74,-1
 1023 0 l 2,75,76
 986 0 986 0 975 30 c 2,77,-1
 843 378 l 1,78,-1
 712 30 l 2,79,80
 701 0 701 0 667 0 c 2,81,-1
 550 0 l 2,16,17
EndSplineSet
Validated: 1
EndChar

StartChar: Wdieresis
Encoding: 7812 7812 90
Width: 1993
Flags: W
HStem: 0 21G<631.5 844.5 1148.5 1361.5> 1460 50<12.6697 122.344 529.67 639.344 1354.66 1463.33 1871.66 1980.33> 1640 227<814.034 969.966 1091 1247>
VStem: 780 224<1674.55 1832.45> 1058 222<1675.07 1832.93>
DStem2: 337 1434 130 1420 0.323367 -0.946274<-89.1914 1417.19> 854 1434 647 1420 0.323367 -0.946274<-89.1914 620.459 767.513 878.581 1027.2 1417.19> 796 93 871 30 0.323367 0.946274<0 352.341 797.242 1490.43> 1313 93 1388 30 0.323367 0.946274<0 1490.43>
LayerCount: 2
Fore
SplineSet
648 0 m 2,0,1
 615 0 615 0 605 30 c 2,2,-1
 130 1420 l 2,3,4
 116 1460 116 1460 70 1460 c 2,5,-1
 25 1460 l 2,6,7
 10 1460 10 1460 10 1475 c 2,8,-1
 10 1495 l 2,9,10
 10 1510 10 1510 25 1510 c 2,11,-1
 219 1510 l 2,12,13
 311 1510 311 1510 337 1434 c 2,14,-1
 796 93 l 1,15,-1
 949 538 l 1,16,-1
 647 1420 l 2,17,18
 633 1460 633 1460 587 1460 c 2,19,-1
 542 1460 l 2,20,21
 527 1460 527 1460 527 1475 c 2,22,-1
 527 1495 l 2,23,24
 527 1510 527 1510 542 1510 c 2,25,-1
 736 1510 l 2,26,27
 828 1510 828 1510 854 1434 c 2,28,-1
 1055 847 l 1,29,-1
 1256 1434 l 2,30,31
 1282 1510 1282 1510 1374 1510 c 2,32,-1
 1451 1510 l 2,33,34
 1466 1510 1466 1510 1466 1495 c 2,35,-1
 1466 1475 l 2,36,37
 1466 1460 1466 1460 1451 1460 c 2,38,-1
 1406 1460 l 2,39,40
 1360 1460 1360 1460 1346 1420 c 2,41,-1
 1103 708 l 1,42,-1
 1313 93 l 1,43,-1
 1773 1434 l 2,44,45
 1799 1510 1799 1510 1891 1510 c 2,46,-1
 1968 1510 l 2,47,48
 1983 1510 1983 1510 1983 1495 c 2,49,-1
 1983 1475 l 2,50,51
 1983 1460 1983 1460 1968 1460 c 2,52,-1
 1923 1460 l 2,53,54
 1877 1460 1877 1460 1863 1420 c 2,55,-1
 1388 30 l 2,56,57
 1378 0 1378 0 1345 0 c 2,58,-1
 1165 0 l 2,59,60
 1132 0 1132 0 1122 30 c 2,61,-1
 996 397 l 1,62,-1
 871 30 l 2,63,64
 861 0 861 0 828 0 c 2,65,-1
 648 0 l 2,0,1
1169 1868 m 128,-1,67
 1216 1868 1216 1868 1248 1834 c 128,-1,68
 1280 1800 1280 1800 1280 1754 c 128,-1,69
 1280 1708 1280 1708 1248 1674 c 128,-1,70
 1216 1640 1216 1640 1169 1640 c 128,-1,71
 1122 1640 1122 1640 1090 1674 c 128,-1,72
 1058 1708 1058 1708 1058 1754 c 128,-1,73
 1058 1800 1058 1800 1090 1834 c 128,-1,66
 1122 1868 1122 1868 1169 1868 c 128,-1,67
892 1867 m 128,-1,75
 938 1867 938 1867 971 1833.5 c 128,-1,76
 1004 1800 1004 1800 1004 1753.5 c 128,-1,77
 1004 1707 1004 1707 971 1673.5 c 128,-1,78
 938 1640 938 1640 892 1640 c 128,-1,79
 846 1640 846 1640 813 1673.5 c 128,-1,80
 780 1707 780 1707 780 1753.5 c 128,-1,81
 780 1800 780 1800 813 1833.5 c 128,-1,74
 846 1867 846 1867 892 1867 c 128,-1,75
EndSplineSet
Validated: 1
EndChar

StartChar: wdieresis
Encoding: 7813 7813 91
Width: 1684
Flags: W
HStem: 0 21G<531.5 684 1004.5 1157> 1050 50<12.6697 122.002 485.67 595.002 1090.32 1198.33 1563.32 1671.33> 1230 227<654.034 809.966 931.004 1087>
VStem: 620 224<1264.55 1422.45> 898 222<1265.07 1422.93>
DStem2: 317 1024 130 1010 0.354884 -0.93491<-91.9991 974.138> 790 1024 603 1010 0.354884 -0.93491<-91.9991 305.712 419.008 508.175 622.761 974.138> 662 113 712 30 0.352379 0.935857<0 311.783 668.072 1042.63> 1135 113 1185 30 0.352379 0.935857<0 1042.63>
LayerCount: 2
Fore
SplineSet
1009 1458 m 128,-1,1
 1056 1458 1056 1458 1088 1424 c 128,-1,2
 1120 1390 1120 1390 1120 1344 c 128,-1,3
 1120 1298 1120 1298 1088 1264 c 128,-1,4
 1056 1230 1056 1230 1009 1230 c 128,-1,5
 962 1230 962 1230 930 1264 c 128,-1,6
 898 1298 898 1298 898 1344 c 128,-1,7
 898 1390 898 1390 930 1424 c 128,-1,0
 962 1458 962 1458 1009 1458 c 128,-1,1
732 1457 m 128,-1,9
 778 1457 778 1457 811 1423.5 c 128,-1,10
 844 1390 844 1390 844 1343.5 c 128,-1,11
 844 1297 844 1297 811 1263.5 c 128,-1,12
 778 1230 778 1230 732 1230 c 128,-1,13
 686 1230 686 1230 653 1263.5 c 128,-1,14
 620 1297 620 1297 620 1343.5 c 128,-1,15
 620 1390 620 1390 653 1423.5 c 128,-1,8
 686 1457 686 1457 732 1457 c 128,-1,9
550 0 m 2,16,17
 513 0 513 0 502 30 c 2,18,-1
 130 1010 l 2,19,20
 115 1050 115 1050 70 1050 c 2,21,-1
 25 1050 l 2,22,23
 10 1050 10 1050 10 1065 c 2,24,-1
 10 1085 l 2,25,26
 10 1100 10 1100 25 1100 c 2,27,-1
 199 1100 l 2,28,29
 288 1100 288 1100 317 1024 c 2,30,-1
 662 113 l 1,31,-1
 802 485 l 1,32,-1
 603 1010 l 2,33,34
 588 1050 588 1050 543 1050 c 2,35,-1
 498 1050 l 2,36,37
 483 1050 483 1050 483 1065 c 2,38,-1
 483 1085 l 2,39,40
 483 1100 483 1100 498 1100 c 2,41,-1
 672 1100 l 2,42,43
 761 1100 761 1100 790 1024 c 2,44,-1
 898 738 l 1,45,-1
 1006 1024 l 2,46,47
 1035 1100 1035 1100 1124 1100 c 2,48,-1
 1186 1100 l 2,49,50
 1201 1100 1201 1100 1201 1085 c 2,51,-1
 1201 1065 l 2,52,53
 1201 1050 1201 1050 1186 1050 c 2,54,-1
 1141 1050 l 2,55,56
 1096 1050 1096 1050 1081 1010 c 2,57,-1
 938 632 l 1,58,-1
 1135 113 l 1,59,-1
 1479 1024 l 2,60,61
 1508 1100 1508 1100 1597 1100 c 2,62,-1
 1659 1100 l 2,63,64
 1674 1100 1674 1100 1674 1085 c 2,65,-1
 1674 1065 l 2,66,67
 1674 1050 1674 1050 1659 1050 c 2,68,-1
 1614 1050 l 2,69,70
 1569 1050 1569 1050 1554 1010 c 2,71,-1
 1185 30 l 2,72,73
 1174 0 1174 0 1140 0 c 2,74,-1
 1023 0 l 2,75,76
 986 0 986 0 975 30 c 2,77,-1
 843 378 l 1,78,-1
 712 30 l 2,79,80
 701 0 701 0 667 0 c 2,81,-1
 550 0 l 2,16,17
EndSplineSet
Validated: 1
EndChar

StartChar: Ygrave
Encoding: 7922 7922 92
Width: 1321
Flags: W
HStem: 0 21G<577 747> 1460 50<12.6697 119.609 1203.06 1308.33>
VStem: 562 200<0 640>
DStem2: 332 1434 130 1420 0.4845 -0.874791<-105.524 806.019> 723 729 762 640 0.481919 0.876216<0 897.678>
LayerCount: 2
Fore
SplineSet
498 1901 m 2,0,-1
 648 1901 l 2,1,2
 679 1901 679 1901 690 1871 c 2,3,-1
 790 1600 l 2,4,5
 793 1592 793 1592 793 1588 c 0,6,7
 793 1570 793 1570 772 1570 c 2,8,-1
 731 1570 l 2,9,10
 702 1570 702 1570 683 1596 c 2,11,-1
 480 1871 l 2,12,13
 474 1879 474 1879 474 1886 c 0,14,15
 474 1901 474 1901 498 1901 c 2,0,-1
592 0 m 2,16,17
 562 0 562 0 562 30 c 2,18,-1
 562 640 l 1,19,-1
 130 1420 l 2,20,21
 108 1460 108 1460 70 1460 c 2,22,-1
 25 1460 l 2,23,24
 10 1460 10 1460 10 1475 c 2,25,-1
 10 1495 l 2,26,27
 10 1510 10 1510 25 1510 c 2,28,-1
 199 1510 l 2,29,30
 290 1510 290 1510 332 1434 c 2,31,-1
 723 729 l 1,32,-1
 1106 1434 l 2,33,34
 1147 1510 1147 1510 1224 1510 c 2,35,-1
 1296 1510 l 2,36,37
 1311 1510 1311 1510 1311 1495 c 2,38,-1
 1311 1475 l 2,39,40
 1311 1460 1311 1460 1296 1460 c 2,41,-1
 1251 1460 l 2,42,43
 1213 1460 1213 1460 1191 1420 c 2,44,-1
 762 640 l 1,45,-1
 762 30 l 2,46,47
 762 0 762 0 732 0 c 2,48,-1
 592 0 l 2,16,17
EndSplineSet
Validated: 1
EndChar

StartChar: ygrave
Encoding: 7923 7923 93
Width: 1215
Flags: W
HStem: -410 50<400.67 504.615> 1050 50<12.6697 122.002 1104.32 1202.33>
DStem2: 317 1024 130 1010 0.354884 -0.93491<-91.9991 994.386> 513 -320 588 -334 0.352954 0.935641<-55.3618 342.112 442.416 1505.31>
LayerCount: 2
Fore
SplineSet
439 1491 m 2,0,-1
 589 1491 l 2,1,2
 620 1491 620 1491 631 1461 c 2,3,-1
 731 1190 l 2,4,5
 734 1182 734 1182 734 1178 c 0,6,7
 734 1160 734 1160 713 1160 c 2,8,-1
 672 1160 l 2,9,10
 643 1160 643 1160 624 1186 c 2,11,-1
 421 1461 l 2,12,13
 415 1469 415 1469 415 1476 c 0,14,15
 415 1491 415 1491 439 1491 c 2,0,-1
550 0 m 2,16,17
 513 0 513 0 502 30 c 2,18,-1
 130 1010 l 2,19,20
 115 1050 115 1050 70 1050 c 2,21,-1
 25 1050 l 2,22,23
 10 1050 10 1050 10 1065 c 2,24,-1
 10 1085 l 2,25,26
 10 1100 10 1100 25 1100 c 2,27,-1
 199 1100 l 2,28,29
 288 1100 288 1100 317 1024 c 2,30,-1
 669 94 l 1,31,-1
 1020 1024 l 2,32,33
 1049 1100 1049 1100 1138 1100 c 2,34,-1
 1190 1100 l 2,35,36
 1205 1100 1205 1100 1205 1085 c 2,37,-1
 1205 1065 l 2,38,39
 1205 1050 1205 1050 1190 1050 c 2,40,-1
 1155 1050 l 2,41,42
 1110 1050 1110 1050 1095 1010 c 2,43,-1
 588 -334 l 2,44,45
 559 -410 559 -410 490 -410 c 2,46,-1
 413 -410 l 2,47,48
 398 -410 398 -410 398 -395 c 2,49,-1
 398 -375 l 2,50,51
 398 -360 398 -360 413 -360 c 2,52,-1
 453 -360 l 2,53,54
 498 -360 498 -360 513 -320 c 2,55,-1
 634 -0 l 1,56,-1
 550 0 l 2,16,17
EndSplineSet
Validated: 1
EndChar

StartChar: uni1E40
Encoding: 7744 7744 94
Width: 1871
Flags: W
HStem: 0 50<52.6697 164.453 1705.58 1818.33> 1460 50<215.67 326.027 1543.66 1653.33> 1630 245<861.097 1028.9>
VStem: 825 240<1667.13 1837.87>
DStem2: 170 90 260 76 0.121646 0.992574<-44.6528 1110.49> 540 1434 405 1180 0.287944 -0.957647<204.37 1385.69> 939 107 1014 30 0.308259 0.951302<0 1121.88> 1536 1420 1372 1146 0.123116 -0.992392<251.724 1385.64>
LayerCount: 2
Fore
SplineSet
1806 0 m 2,0,-1
 1629 0 l 2,1,2
 1521 0 1521 0 1511 76 c 2,3,-1
 1372 1146 l 1,4,-1
 1014 30 l 2,5,6
 1004 0 1004 0 971 0 c 2,7,-1
 791 0 l 2,8,9
 757 0 757 0 748 30 c 2,10,-1
 405 1180 l 1,11,-1
 260 76 l 2,12,13
 250 0 250 0 142 0 c 2,14,-1
 65 0 l 2,15,16
 50 0 50 0 50 15 c 2,17,-1
 50 35 l 2,18,19
 50 50 50 50 65 50 c 2,20,-1
 110 50 l 2,21,22
 165 50 165 50 170 90 c 2,23,-1
 333 1420 l 1,24,25
 321 1460 321 1460 273 1460 c 2,26,-1
 228 1460 l 2,27,28
 213 1460 213 1460 213 1475 c 2,29,-1
 213 1495 l 2,30,31
 213 1510 213 1510 228 1510 c 2,32,-1
 422 1510 l 2,33,34
 517 1510 517 1510 540 1434 c 2,35,-1
 939 107 l 1,36,-1
 1369 1434 l 2,37,38
 1394 1510 1394 1510 1487 1510 c 2,39,-1
 1641 1510 l 2,40,41
 1656 1510 1656 1510 1656 1495 c 2,42,-1
 1656 1475 l 2,43,44
 1656 1460 1656 1460 1641 1460 c 2,45,-1
 1596 1460 l 2,46,47
 1550 1460 1550 1460 1536 1420 c 1,48,-1
 1701 90 l 2,49,50
 1706 50 1706 50 1761 50 c 2,51,-1
 1806 50 l 2,52,53
 1821 50 1821 50 1821 35 c 2,54,-1
 1821 15 l 2,55,56
 1821 0 1821 0 1806 0 c 2,0,-1
945 1875 m 128,-1,58
 995 1875 995 1875 1030 1839 c 128,-1,59
 1065 1803 1065 1803 1065 1752.5 c 128,-1,60
 1065 1702 1065 1702 1030 1666 c 128,-1,61
 995 1630 995 1630 945 1630 c 128,-1,62
 895 1630 895 1630 860 1666 c 128,-1,63
 825 1702 825 1702 825 1752.5 c 128,-1,64
 825 1803 825 1803 860 1839 c 128,-1,57
 895 1875 895 1875 945 1875 c 128,-1,58
EndSplineSet
Validated: 1
EndChar

StartChar: p
Encoding: 112 112 95
Width: 1239
Flags: W
HStem: -410 21G<215 365> -20 55<554.441 758.174> 1050 50<52.6697 178.884> 1065 55<559.412 752.667>
VStem: 200 180<-410 183 222.18 875.328 917 1039.71> 942 197<286.766 811.346>
LayerCount: 2
Fore
SplineSet
656 1065 m 128,-1,1
 544 1065 544 1065 459 939 c 0,2,3
 400 851 400 851 380 708 c 1,4,-1
 380 391 l 1,5,6
 400 244 400 244 461 153 c 0,7,8
 539 35 539 35 656 35 c 128,-1,9
 773 35 773 35 851 153 c 0,10,11
 942 291 942 291 942 550 c 0,12,13
 942 806 942 806 853 939 c 0,14,0
 768 1065 768 1065 656 1065 c 128,-1,1
686 -20 m 0,15,16
 586 -20 586 -20 518 20 c 0,17,18
 454 58 454 58 412 124 c 0,19,20
 394 152 394 152 380 183 c 1,21,-1
 380 -380 l 2,22,23
 380 -410 380 -410 350 -410 c 2,24,-1
 230 -410 l 2,25,26
 200 -410 200 -410 200 -380 c 2,27,-1
 200 960 l 2,28,29
 200 1050 200 1050 110 1050 c 2,30,-1
 65 1050 l 2,31,32
 50 1050 50 1050 50 1065 c 2,33,-1
 50 1085 l 2,34,35
 50 1100 50 1100 65 1100 c 2,36,-1
 240 1100 l 2,37,38
 380 1100 380 1100 380 960 c 2,39,-1
 380 917 l 1,40,41
 394 948 394 948 412 976 c 0,42,43
 454 1042 454 1042 518 1080 c 0,44,45
 586 1120 586 1120 686 1120 c 0,46,47
 890 1120 890 1120 1001 980 c 0,48,49
 1139 806 1139 806 1139 550 c 0,50,51
 1139 295 1139 295 1001 120 c 0,52,53
 890 -20 890 -20 686 -20 c 0,15,16
EndSplineSet
Validated: 1
EndChar

StartChar: b
Encoding: 98 98 96
Width: 1239
Flags: W
HStem: -20 55<559.412 752.667> 0 21G<215 365> 1065 55<554.441 758.174> 1460 50<52.6697 178.884>
VStem: 200 180<0 183 224.672 877.369 917 1449.71> 942 197<288.654 813.234>
LayerCount: 2
Fore
SplineSet
656 35 m 128,-1,1
 768 35 768 35 853 161 c 0,2,3
 942 294 942 294 942 550 c 0,4,5
 942 809 942 809 851 947 c 0,6,7
 773 1065 773 1065 656 1065 c 128,-1,8
 539 1065 539 1065 461 947 c 0,9,10
 400 855 400 855 380 709 c 1,11,-1
 380 392 l 1,12,13
 400 249 400 249 459 161 c 0,14,0
 544 35 544 35 656 35 c 128,-1,1
230 0 m 2,15,16
 200 0 200 0 200 30 c 2,17,-1
 200 1370 l 2,18,19
 200 1460 200 1460 110 1460 c 2,20,-1
 65 1460 l 2,21,22
 50 1460 50 1460 50 1475 c 2,23,-1
 50 1495 l 2,24,25
 50 1510 50 1510 65 1510 c 2,26,-1
 240 1510 l 2,27,28
 380 1510 380 1510 380 1370 c 2,29,-1
 380 917 l 1,30,31
 394 948 394 948 412 976 c 0,32,33
 454 1042 454 1042 518 1080 c 0,34,35
 586 1120 586 1120 686 1120 c 0,36,37
 890 1120 890 1120 1001 980 c 0,38,39
 1139 805 1139 805 1139 550 c 0,40,41
 1139 294 1139 294 1001 120 c 0,42,43
 890 -20 890 -20 686 -20 c 0,44,45
 586 -20 586 -20 518 20 c 0,46,47
 454 58 454 58 412 124 c 0,48,49
 394 152 394 152 380 183 c 1,50,-1
 380 30 l 2,51,52
 380 0 380 0 350 0 c 2,53,-1
 230 0 l 2,15,16
EndSplineSet
Validated: 1
EndChar

StartChar: q
Encoding: 113 113 97
Width: 1239
Flags: W
HStem: -410 50<1060.12 1186.33> -20 55<480.826 684.559> 1065 55<486.333 679.588> 1080 20G<874 1024>
VStem: 100 197<286.766 811.346> 859 180<-349.707 183 222.631 875.328 917 1100>
LayerCount: 2
Fore
SplineSet
583 1065 m 128,-1,1
 471 1065 471 1065 386 939 c 0,2,3
 297 806 297 806 297 550 c 0,4,5
 297 291 297 291 388 153 c 0,6,7
 466 35 466 35 583 35 c 128,-1,8
 700 35 700 35 778 153 c 0,9,10
 839 245 839 245 859 391 c 1,11,-1
 859 708 l 1,12,13
 839 851 839 851 780 939 c 0,14,0
 695 1065 695 1065 583 1065 c 128,-1,1
553 -20 m 0,15,16
 349 -20 349 -20 238 120 c 0,17,18
 100 295 100 295 100 550 c 0,19,20
 100 806 100 806 238 980 c 0,21,22
 349 1120 349 1120 553 1120 c 0,23,24
 653 1120 653 1120 721 1080 c 0,25,26
 785 1042 785 1042 827 976 c 0,27,28
 845 948 845 948 859 917 c 1,29,-1
 859 1070 l 2,30,31
 859 1100 859 1100 889 1100 c 2,32,-1
 1009 1100 l 2,33,34
 1039 1100 1039 1100 1039 1070 c 2,35,-1
 1039 -270 l 2,36,37
 1039 -360 1039 -360 1129 -360 c 2,38,-1
 1174 -360 l 2,39,40
 1189 -360 1189 -360 1189 -375 c 2,41,-1
 1189 -395 l 2,42,43
 1189 -410 1189 -410 1174 -410 c 2,44,-1
 999 -410 l 2,45,46
 859 -410 859 -410 859 -270 c 2,47,-1
 859 183 l 1,48,49
 845 152 845 152 827 124 c 0,50,51
 785 58 785 58 721 20 c 0,52,53
 653 -20 653 -20 553 -20 c 0,15,16
EndSplineSet
Validated: 1
EndChar

StartChar: g
Encoding: 103 103 98
Width: 1239
Flags: W
HStem: -430 50<397.79 644.583> -20 55<483.111 684.559> 1065 55<485.692 679.588> 1080 20G<874 1024>
VStem: 100 197<279.181 822.418> 180 53<-197.117 -79.3672> 859 180<-126.425 183 222.631 875.328 917 1100>
LayerCount: 2
Fore
SplineSet
583 1065 m 128,-1,1
 471 1065 471 1065 386 939 c 0,2,3
 297 806 297 806 297 550 c 0,4,5
 297 291 297 291 388 153 c 0,6,7
 466 35 466 35 583 35 c 128,-1,8
 700 35 700 35 778 153 c 0,9,10
 839 245 839 245 859 391 c 1,11,-1
 859 708 l 1,12,13
 839 851 839 851 780 939 c 0,14,0
 695 1065 695 1065 583 1065 c 128,-1,1
553 -20 m 0,15,16
 364 -20 364 -20 238 120 c 0,17,18
 100 276 100 276 100 550 c 0,19,20
 100 828 100 828 238 980 c 0,21,22
 364 1120 364 1120 553 1120 c 0,23,24
 653 1120 653 1120 721 1080 c 0,25,26
 785 1042 785 1042 827 976 c 0,27,28
 845 948 845 948 859 917 c 1,29,-1
 859 1070 l 2,30,31
 859 1100 859 1100 889 1100 c 2,32,-1
 1009 1100 l 2,33,34
 1039 1100 1039 1100 1039 1070 c 2,35,-1
 1039 139 l 2,36,37
 1039 -140 1039 -140 893 -290 c 0,38,39
 755 -430 755 -430 562 -430 c 0,40,41
 352 -430 352 -430 214 -322 c 0,42,43
 180 -296 180 -296 180 -248 c 2,44,-1
 180 -92 l 2,45,46
 180 -78 180 -78 195 -78 c 2,47,-1
 218 -78 l 2,48,49
 231 -78 231 -78 233 -92 c 0,50,51
 273 -380 273 -380 521 -380 c 0,52,53
 678 -380 678 -380 767 -254 c 0,54,55
 859 -124 859 -124 859 139 c 2,56,-1
 859 183 l 1,57,58
 845 152 845 152 827 124 c 0,59,60
 785 58 785 58 721 20 c 0,61,62
 653 -20 653 -20 553 -20 c 0,15,16
EndSplineSet
Validated: 1
EndChar

StartChar: f
Encoding: 102 102 99
Width: 875
Flags: W
HStem: 0 21G<215 365> 740 60<50 200 380 670> 1480 50<504.517 703.715>
VStem: 200 180<0 740 800 1332.23> 802 53<1232.46 1359.12>
LayerCount: 2
Fore
SplineSet
350 0 m 2,0,-1
 230 0 l 2,1,2
 200 0 200 0 200 30 c 2,3,-1
 200 740 l 1,4,-1
 65 740 l 2,5,6
 50 740 50 740 50 755 c 2,7,-1
 50 785 l 2,8,9
 50 800 50 800 65 800 c 2,10,-1
 200 800 l 1,11,-1
 200 1130 l 2,12,13
 200 1320 200 1320 320 1431 c 0,14,15
 428 1530 428 1530 587 1530 c 0,16,17
 730 1530 730 1530 831 1454 c 0,18,19
 855 1436 855 1436 855 1402 c 2,20,-1
 855 1246 l 2,21,22
 855 1231 855 1231 844 1231 c 2,23,-1
 817 1231 l 2,24,25
 804 1231 804 1231 802 1246 c 0,26,27
 777 1480 777 1480 616 1480 c 0,28,29
 502 1480 502 1480 444 1406 c 0,30,31
 380 1325 380 1325 380 1130 c 2,32,-1
 380 800 l 1,33,-1
 655 800 l 2,34,35
 670 800 670 800 670 785 c 2,36,-1
 670 755 l 2,37,38
 670 740 670 740 655 740 c 2,39,-1
 380 740 l 1,40,-1
 380 30 l 2,41,42
 380 0 380 0 350 0 c 2,0,-1
EndSplineSet
Validated: 1
EndChar

StartChar: a
Encoding: 97 97 100
Width: 1145
Flags: W
HStem: -20 50<435.724 634.077> 0 50<966.116 1092.33> 614 50<429.032 640.771> 1070 50<376.049 595.423>
VStem: 100 198<156.468 491.095> 192 53<779.465 907.628> 765 180<129.821 516.812 566 888.418>
LayerCount: 2
Fore
SplineSet
534.5 30 m 128,-1,1
 627 30 627 30 698 103 c 0,2,3
 750 156 750 156 765 245 c 1,4,-1
 765 400 l 1,5,6
 750 491 750 491 696 547 c 0,7,8
 632 614 632 614 534.5 614 c 128,-1,9
 437 614 437 614 373 547 c 0,10,11
 298 468 298 468 298 322 c 0,12,13
 298 177 298 177 371 103 c 0,14,0
 442 30 442 30 534.5 30 c 128,-1,1
905 0 m 2,15,16
 795 0 795 0 771 86 c 1,17,18
 724 29 724 29 659 4.5 c 128,-1,19
 594 -20 594 -20 508 -20 c 0,20,21
 324 -20 324 -20 224 64 c 0,22,23
 100 168 100 168 100 322 c 0,24,25
 100 484 100 484 224 580 c 0,26,27
 334 664 334 664 508 664 c 0,28,29
 598 664 598 664 661 637 c 128,-1,30
 724 610 724 610 765 566 c 1,31,-1
 765 665 l 2,32,33
 765 882 765 882 682 980 c 0,34,35
 606 1070 606 1070 479 1070 c 0,36,37
 282 1070 282 1070 245 793 c 0,38,39
 243 778 243 778 230 778 c 2,40,-1
 207 778 l 2,41,42
 192 778 192 778 192 793 c 2,43,-1
 192 986 l 2,44,45
 192 1024 192 1024 223 1045 c 0,46,47
 334 1120 334 1120 505 1120 c 0,48,49
 692 1120 692 1120 814 1008 c 0,50,51
 945 888 945 888 945 665 c 2,52,-1
 945 140 l 2,53,54
 945 50 945 50 1035 50 c 2,55,-1
 1080 50 l 2,56,57
 1095 50 1095 50 1095 35 c 2,58,-1
 1095 15 l 2,59,60
 1095 0 1095 0 1080 0 c 2,61,-1
 905 0 l 2,15,16
EndSplineSet
Validated: 1
EndChar

StartChar: s
Encoding: 115 115 101
Width: 956
Flags: W
HStem: -20 50<303.195 524.699> 1070 50<387.486 555.161>
VStem: 80 53<227.508 331.535> 150 170<775.687 989.988> 661 175<172.47 426.9> 681 53<792.615 895.719>
DStem2: 473 704 409 535 0.932266 -0.361775<-151.731 262.359>
LayerCount: 2
Fore
SplineSet
426 -20 m 0,0,1
 255 -20 255 -20 114 88 c 0,2,3
 80 114 80 114 80 162 c 2,4,-1
 80 318 l 2,5,6
 80 333 80 333 95 333 c 2,7,-1
 118 333 l 2,8,9
 131 333 131 333 133 318 c 0,10,11
 189 30 189 30 421 30 c 0,12,13
 530 30 530 30 599 118 c 0,14,15
 661 198 661 198 661 298 c 0,16,17
 661 442 661 442 517 495 c 2,18,-1
 409 535 l 2,19,20
 150 631 150 631 150 845 c 0,21,22
 150 964 150 964 248 1050 c 0,23,24
 328 1120 328 1120 463 1120 c 0,25,26
 613 1120 613 1120 700 1036 c 24,27,28
 734 1002 734 1002 734 962 c 2,29,-1
 734 806 l 2,30,31
 734 791 734 791 719 791 c 2,32,-1
 696 791 l 2,33,34
 684 791 684 791 681 806 c 0,35,36
 620 1070 620 1070 479 1070 c 0,37,38
 393 1070 393 1070 352 1011 c 0,39,40
 320 965 320 965 320 900 c 0,41,42
 320 763 320 763 473 704 c 2,43,-1
 607 652 l 2,44,45
 836 563 836 563 836 350 c 0,46,47
 836 194 836 194 728 92 c 0,48,49
 609 -20 609 -20 426 -20 c 0,0,1
EndSplineSet
Validated: 1
EndChar

StartChar: x
Encoding: 120 120 102
Width: 1069
Flags: W
HStem: 0 50<52.6697 151.745 915.074 1016.33> 1050 50<52.6697 148.926 922.549 1016.33>
DStem2: 571 657 160 1010 0.506738 -0.8621<-536.929 0 76.1547 77.733 153.532 685.108> 165 90 240 76 0.582308 0.812968<-73.362 475.196 697.37 1253.98>
LayerCount: 2
Fore
SplineSet
142 0 m 2,0,-1
 65 0 l 2,1,2
 50 0 50 0 50 15 c 2,3,-1
 50 35 l 2,4,5
 50 50 50 50 65 50 c 2,6,-1
 105 50 l 2,7,8
 136 50 136 50 165 90 c 2,9,-1
 459 501 l 1,10,-1
 160 1010 l 2,11,12
 136 1050 136 1050 100 1050 c 2,13,-1
 65 1050 l 2,14,15
 50 1050 50 1050 50 1065 c 2,16,-1
 50 1085 l 2,17,18
 50 1100 50 1100 65 1100 c 2,19,-1
 237 1100 l 2,20,21
 310 1100 310 1100 355 1024 c 2,22,-1
 571 657 l 1,23,-1
 834 1024 l 2,24,25
 888 1100 888 1100 952 1100 c 2,26,-1
 1004 1100 l 2,27,28
 1019 1100 1019 1100 1019 1085 c 2,29,-1
 1019 1065 l 2,30,31
 1019 1050 1019 1050 1004 1050 c 2,32,-1
 969 1050 l 2,33,34
 938 1050 938 1050 909 1010 c 2,35,-1
 609 591 l 1,36,-1
 904 90 l 2,37,38
 928 50 928 50 964 50 c 2,39,-1
 1004 50 l 2,40,41
 1019 50 1019 50 1019 35 c 2,42,-1
 1019 15 l 2,43,44
 1019 0 1019 0 1004 0 c 2,45,-1
 807 0 l 2,46,47
 754 0 754 0 709 76 c 2,48,-1
 498 436 l 1,49,-1
 240 76 l 2,50,51
 186 0 186 0 142 0 c 2,0,-1
EndSplineSet
Validated: 1
EndChar

StartChar: K
Encoding: 75 75 103
Width: 1271
Flags: W
HStem: 0 50<52.6697 178.884 1110.02 1218.33> 1460 50<52.6697 178.884 1104.21 1198.33>
VStem: 200 200<60.293 462 608 1449.71>
DStem2: 400 608 400 462 0.584996 0.811036<0 203.248 433.887 1141.83> 723 910 588 723 0.418637 -0.908154<113.309 925.524>
LayerCount: 2
Fore
SplineSet
260 0 m 2,0,-1
 65 0 l 2,1,2
 50 0 50 0 50 15 c 2,3,-1
 50 35 l 2,4,5
 50 50 50 50 65 50 c 2,6,-1
 110 50 l 2,7,8
 200 50 200 50 200 140 c 2,9,-1
 200 1370 l 2,10,11
 200 1460 200 1460 110 1460 c 2,12,-1
 65 1460 l 2,13,14
 50 1460 50 1460 50 1475 c 2,15,-1
 50 1495 l 2,16,17
 50 1510 50 1510 65 1510 c 2,18,-1
 260 1510 l 2,19,20
 400 1510 400 1510 400 1370 c 2,21,-1
 400 608 l 1,22,-1
 996 1434 l 2,23,24
 1051 1510 1051 1510 1114 1510 c 2,25,-1
 1186 1510 l 2,26,27
 1201 1510 1201 1510 1201 1495 c 2,28,-1
 1201 1475 l 2,29,30
 1201 1460 1201 1460 1186 1460 c 2,31,-1
 1151 1460 l 2,32,33
 1120 1460 1120 1460 1091 1420 c 2,34,-1
 723 910 l 1,35,-1
 1101 90 l 2,36,37
 1119 50 1119 50 1161 50 c 2,38,-1
 1206 50 l 2,39,40
 1221 50 1221 50 1221 35 c 2,41,-1
 1221 15 l 2,42,43
 1221 0 1221 0 1206 0 c 2,44,-1
 1002 0 l 2,45,46
 919 0 919 0 884 76 c 2,47,-1
 588 723 l 1,48,-1
 400 462 l 1,49,-1
 400 140 l 2,50,51
 400 0 400 0 260 0 c 2,0,-1
EndSplineSet
Validated: 1
EndChar

StartChar: D
Encoding: 68 68 104
Width: 1447
Flags: W
HStem: 0 61<52.6697 190.31 400 832.062> 1449 61<52.6697 190.31 400 832.062>
VStem: 200 200<61.6235 1448.38> 1125 222<469.638 1036.74>
LayerCount: 2
Fore
SplineSet
400 61 m 1,0,-1
 690 61 l 2,1,2
 889 61 889 61 1005 258 c 0,3,4
 1125 462 1125 462 1125 756 c 0,5,6
 1125 1048 1125 1048 1005 1252 c 0,7,8
 889 1449 889 1449 690 1449 c 2,9,-1
 400 1449 l 1,10,-1
 400 61 l 1,0,-1
65 0 m 2,11,12
 50 0 50 0 50 15 c 2,13,-1
 50 35 l 2,14,15
 50 50 50 50 65 50 c 2,16,-1
 110 50 l 2,17,18
 200 50 200 50 200 140 c 2,19,-1
 200 1370 l 2,20,21
 200 1460 200 1460 110 1460 c 2,22,-1
 65 1460 l 2,23,24
 50 1460 50 1460 50 1475 c 2,25,-1
 50 1495 l 2,26,27
 50 1510 50 1510 65 1510 c 2,28,-1
 690 1510 l 2,29,30
 989 1510 989 1510 1169 1284 c 0,31,32
 1347 1060 1347 1060 1347 755 c 128,-1,33
 1347 450 1347 450 1169 226 c 0,34,35
 989 0 989 0 690 0 c 2,36,-1
 65 0 l 2,11,12
EndSplineSet
Validated: 1
EndChar

StartChar: C
Encoding: 67 67 105
Width: 1359
Flags: W
HStem: -20 61<614.379 931.921> 1099 21G<1164.5 1201.5> 1469 61<614.192 931.921>
VStem: 100 222<458.224 1051.78> 1156 53<284.456 409.535 1100.46 1225.54>
LayerCount: 2
Fore
SplineSet
757 -20 m 0,0,1
 457 -20 457 -20 278 206 c 0,2,3
 100 430 100 430 100 755 c 128,-1,4
 100 1080 100 1080 278 1304 c 0,5,6
 456 1530 456 1530 757 1530 c 0,7,8
 1007 1530 1007 1530 1175 1405 c 0,9,10
 1209 1379 1209 1379 1209 1331 c 2,11,-1
 1209 1114 l 2,12,13
 1209 1099 1209 1099 1194 1099 c 2,14,-1
 1171 1099 l 2,15,16
 1158 1099 1158 1099 1156 1114 c 0,17,18
 1109 1469 1109 1469 757 1469 c 0,19,20
 558 1469 558 1469 442 1272 c 0,21,22
 322 1068 322 1068 322 755 c 128,-1,23
 322 442 322 442 442 238 c 0,24,25
 558 41 558 41 757 41 c 0,26,27
 1109 41 1109 41 1156 396 c 0,28,29
 1158 411 1158 411 1171 411 c 2,30,-1
 1194 411 l 2,31,32
 1209 411 1209 411 1209 396 c 2,33,-1
 1209 179 l 2,34,35
 1209 131 1209 131 1175 105 c 0,36,37
 1007 -20 1007 -20 757 -20 c 0,0,1
EndSplineSet
Validated: 1
EndChar

StartChar: G
Encoding: 71 71 106
Width: 1462
Flags: W
HStem: -20 61<614.379 949.88> 745 50<934.67 1060.88> 1099 21G<1164.5 1201.5> 1469 61<614.192 933.093>
VStem: 100 222<458.224 1051.78> 1082 200<163.14 734.707> 1156 53<1100.46 1225.54>
LayerCount: 2
Fore
SplineSet
757 -20 m 0,0,1
 457 -20 457 -20 278 206 c 0,2,3
 100 430 100 430 100 755 c 128,-1,4
 100 1080 100 1080 278 1304 c 0,5,6
 456 1530 456 1530 757 1530 c 0,7,8
 1012 1530 1012 1530 1175 1405 c 0,9,10
 1209 1379 1209 1379 1209 1331 c 2,11,-1
 1209 1114 l 2,12,13
 1209 1099 1209 1099 1194 1099 c 2,14,-1
 1171 1099 l 2,15,16
 1158 1099 1158 1099 1156 1114 c 0,17,18
 1109 1469 1109 1469 757 1469 c 0,19,20
 558 1469 558 1469 442 1272 c 0,21,22
 322 1068 322 1068 322 755 c 128,-1,23
 322 442 322 442 442 238 c 0,24,25
 558 41 558 41 757 41 c 0,26,27
 926 41 926 41 1047 117 c 0,28,29
 1082 139 1082 139 1082 185 c 2,30,-1
 1082 655 l 2,31,32
 1082 745 1082 745 992 745 c 2,33,-1
 947 745 l 2,34,35
 932 745 932 745 932 760 c 2,36,-1
 932 780 l 2,37,38
 932 795 932 795 947 795 c 2,39,-1
 1142 795 l 2,40,41
 1282 795 1282 795 1282 655 c 2,42,-1
 1282 243 l 2,43,44
 1282 198 1282 198 1248 169 c 0,45,46
 1039 -20 1039 -20 757 -20 c 0,0,1
EndSplineSet
Validated: 1
EndChar

StartChar: T
Encoding: 84 84 107
Width: 1278
Flags: W
HStem: 0 21G<554 724> 1430 80<164.254 539 739 1113.75>
VStem: 539 200<0 1430>
LayerCount: 2
Fore
SplineSet
569 0 m 2,0,1
 539 0 539 0 539 30 c 2,2,-1
 539 1430 l 1,3,-1
 317 1430 l 2,4,5
 148 1430 148 1430 60 1284 c 0,6,7
 54 1274 54 1274 47 1274 c 0,8,9
 44 1274 44 1274 40 1276 c 2,10,-1
 19 1287 l 2,11,12
 10 1292 10 1292 10 1299 c 0,13,14
 10 1303 10 1303 12 1306 c 2,15,-1
 94 1447 l 2,16,17
 131 1510 131 1510 201 1510 c 2,18,-1
 1077 1510 l 2,19,20
 1147 1510 1147 1510 1184 1447 c 2,21,-1
 1266 1306 l 2,22,23
 1268 1303 1268 1303 1268 1299 c 0,24,25
 1268 1292 1268 1292 1259 1287 c 2,26,-1
 1238 1276 l 2,27,28
 1234 1274 1234 1274 1231 1274 c 0,29,30
 1224 1274 1224 1274 1218 1284 c 0,31,32
 1130 1430 1130 1430 961 1430 c 2,33,-1
 739 1430 l 1,34,-1
 739 30 l 2,35,36
 739 0 739 0 709 0 c 2,37,-1
 569 0 l 2,0,1
EndSplineSet
Validated: 1
EndChar

StartChar: S
Encoding: 83 83 108
Width: 1160
Flags: W
HStem: -20 61<339.104 646.609> 1469 61<453.518 699.431>
VStem: 80 53<273.483 393.535> 179 177<1099.09 1343.81> 840 200<272.379 576.516> 868 53<1126.46 1251.81>
DStem2: 567 970 438 811 0.90695 -0.421238<-201.288 342.966>
LayerCount: 2
Fore
SplineSet
506 -20 m 0,0,1
 258 -20 258 -20 114 89 c 0,2,3
 80 115 80 115 80 163 c 2,4,-1
 80 380 l 2,5,6
 80 395 80 395 95 395 c 2,7,-1
 118 395 l 2,8,9
 131 395 131 395 133 380 c 0,10,11
 180 41 180 41 506 41 c 0,12,13
 654 41 654 41 747 149 c 128,-1,14
 840 257 840 257 840 396 c 0,15,16
 840 622 840 622 632 720 c 2,17,-1
 438 811 l 2,18,19
 179 932 179 932 179 1162 c 0,20,21
 179 1343 179 1343 318 1456 c 0,22,23
 410 1530 410 1530 565 1530 c 0,24,25
 757 1530 757 1530 887 1431 c 0,26,27
 921 1405 921 1405 921 1357 c 2,28,-1
 921 1140 l 2,29,30
 921 1125 921 1125 906 1125 c 2,31,32
 883 1125 l 2,33,34
 870 1125 870 1125 868 1140 c 0,35,36
 821 1469 821 1469 565 1469 c 0,37,38
 475 1469 475 1469 415.5 1408.5 c 128,-1,39
 356 1348 356 1348 356 1238 c 0,40,41
 357 1068 357 1068 567 970 c 2,42,-1
 778 872 l 2,43,44
 1040 750 1040 750 1040 472 c 0,45,46
 1040 294 1040 294 915 149 c 0,47,48
 771 -20 771 -20 506 -20 c 0,0,1
EndSplineSet
Validated: 1
EndChar

StartChar: U
Encoding: 85 85 109
Width: 1450
Flags: W
HStem: -20 91<581.05 943.105> 1460 50<52.6697 178.884 1271.12 1397.33>
VStem: 200 200<295.594 1449.71> 1160 90<305.99 1449.71>
LayerCount: 2
Fore
SplineSet
725 -20 m 128,-1,1
 501 -20 501 -20 366 114 c 0,2,3
 200 278 200 278 200 528 c 2,4,-1
 200 1370 l 2,5,6
 200 1460 200 1460 110 1460 c 2,7,-1
 65 1460 l 2,8,9
 50 1460 50 1460 50 1475 c 2,10,-1
 50 1495 l 2,11,12
 50 1510 50 1510 65 1510 c 2,13,14
 260 1510 l 2,15,16
 400 1510 400 1510 400 1370 c 2,17,-1
 400 528 l 2,18,19
 400 290 400 290 500 180 c 0,20,21
 599 71 599 71 771 71 c 0,22,23
 916 71 916 71 1027 179 c 0,24,25
 1160 307 1160 307 1160 528 c 2,26,-1
 1160 1370 l 2,27,28
 1160 1510 1160 1510 1300 1510 c 2,29,-1
 1385 1510 l 2,30,31
 1400 1510 1400 1510 1400 1495 c 2,32,-1
 1400 1475 l 2,33,34
 1400 1460 1400 1460 1385 1460 c 2,35,-1
 1340 1460 l 2,36,37
 1250 1460 1250 1460 1250 1370 c 2,38,-1
 1250 528 l 2,39,40
 1250 278 1250 278 1084 114 c 0,41,0
 949 -20 949 -20 725 -20 c 128,-1,1
EndSplineSet
Validated: 1
EndChar

StartChar: J
Encoding: 74 74 110
Width: 1171
Flags: W
HStem: -20 61<253.614 533.118> 1430 80<256.254 771> 1460 50<992.116 1118.33>
VStem: 20 53<264.793 393.535> 771 200<293.052 1429.92>
LayerCount: 2
Fore
SplineSet
446 -20 m 0,0,1
 198 -20 198 -20 54 89 c 0,2,3
 20 115 20 115 20 163 c 2,4,-1
 20 380 l 2,5,6
 20 395 20 395 35 395 c 2,7,-1
 58 395 l 2,8,9
 71 395 71 395 73 380 c 0,10,11
 118 41 118 41 397 41 c 0,12,13
 549 41 549 41 671 175 c 0,14,15
 771 284 771 284 771 528 c 2,16,-1
 771 1430 l 1,17,-1
 409 1430 l 2,18,19
 240 1430 240 1430 152 1284 c 0,20,21
 146 1274 146 1274 139 1274 c 0,22,23
 136 1274 136 1274 132 1276 c 2,24,-1
 111 1287 l 2,25,26
 102 1292 102 1292 102 1299 c 0,27,28
 102 1303 102 1303 104 1306 c 2,29,-1
 186 1447 l 2,30,31
 223 1510 223 1510 293 1510 c 2,32,-1
 1106 1510 l 2,33,34
 1121 1510 1121 1510 1121 1495 c 2,35,-1
 1121 1475 l 2,36,37
 1121 1460 1121 1460 1106 1460 c 2,38,-1
 1061 1460 l 2,39,40
 971 1460 971 1460 971 1370 c 2,41,-1
 971 528 l 2,42,43
 971 278 971 278 805 114 c 0,44,45
 670 -20 670 -20 446 -20 c 0,0,1
EndSplineSet
Validated: 1
EndChar

StartChar: M
Encoding: 77 77 111
Width: 1871
Flags: W
HStem: 0 50<52.6697 164.453 1705.58 1818.33> 1460 50<215.67 326.027 1543.66 1653.33>
DStem2: 170 90 260 76 0.121646 0.992574<-44.6528 1110.49> 540 1434 405 1180 0.287944 -0.957647<204.37 1385.69> 939 107 1014 30 0.308259 0.951302<0 1121.88> 1536 1420 1372 1146 0.123116 -0.992392<251.724 1385.64>
LayerCount: 2
Fore
SplineSet
1806 0 m 2,0,-1
 1629 0 l 2,1,2
 1521 0 1521 0 1511 76 c 2,3,-1
 1372 1146 l 1,4,-1
 1014 30 l 2,5,6
 1004 0 1004 0 971 0 c 2,7,-1
 791 0 l 2,8,9
 757 0 757 0 748 30 c 2,10,-1
 405 1180 l 1,11,-1
 260 76 l 2,12,13
 250 0 250 0 142 0 c 2,14,-1
 65 0 l 2,15,16
 50 0 50 0 50 15 c 2,17,-1
 50 35 l 2,18,19
 50 50 50 50 65 50 c 2,20,-1
 110 50 l 2,21,22
 165 50 165 50 170 90 c 2,23,-1
 333 1420 l 1,24,25
 321 1460 321 1460 273 1460 c 2,26,-1
 228 1460 l 2,27,28
 213 1460 213 1460 213 1475 c 2,29,-1
 213 1495 l 2,30,31
 213 1510 213 1510 228 1510 c 2,32,-1
 422 1510 l 2,33,34
 517 1510 517 1510 540 1434 c 2,35,-1
 939 107 l 1,36,-1
 1369 1434 l 2,37,38
 1394 1510 1394 1510 1487 1510 c 2,39,-1
 1641 1510 l 2,40,41
 1656 1510 1656 1510 1656 1495 c 2,42,-1
 1656 1475 l 2,43,44
 1656 1460 1656 1460 1641 1460 c 2,45,-1
 1596 1460 l 2,46,47
 1550 1460 1550 1460 1536 1420 c 1,48,-1
 1701 90 l 2,49,50
 1706 50 1706 50 1761 50 c 2,51,-1
 1806 50 l 2,52,53
 1821 50 1821 50 1821 35 c 2,54,-1
 1821 15 l 2,55,56
 1821 0 1821 0 1806 0 c 2,0,-1
EndSplineSet
Validated: 1
EndChar

StartChar: Y
Encoding: 89 89 112
Width: 1321
Flags: W
HStem: 0 21G<577 747> 1460 50<12.6697 119.609 1203.06 1308.33>
VStem: 562 200<0 640>
DStem2: 332 1434 130 1420 0.4845 -0.874791<-105.524 806.019> 723 729 762 640 0.481919 0.876216<0 897.678>
LayerCount: 2
Fore
SplineSet
592 0 m 2,0,1
 562 0 562 0 562 30 c 2,2,-1
 562 640 l 1,3,-1
 130 1420 l 2,4,5
 108 1460 108 1460 70 1460 c 2,6,-1
 25 1460 l 2,7,8
 10 1460 10 1460 10 1475 c 2,9,-1
 10 1495 l 2,10,11
 10 1510 10 1510 25 1510 c 2,12,-1
 199 1510 l 2,13,14
 290 1510 290 1510 332 1434 c 2,15,-1
 723 729 l 1,16,-1
 1106 1434 l 2,17,18
 1147 1510 1147 1510 1224 1510 c 2,19,-1
 1296 1510 l 2,20,21
 1311 1510 1311 1510 1311 1495 c 2,22,-1
 1311 1475 l 2,23,24
 1311 1460 1311 1460 1296 1460 c 2,25,-1
 1251 1460 l 2,26,27
 1213 1460 1213 1460 1191 1420 c 2,28,-1
 762 640 l 1,29,-1
 762 30 l 2,30,31
 762 0 762 0 732 0 c 2,32,-1
 592 0 l 2,0,1
EndSplineSet
Validated: 1
EndChar

StartChar: X
Encoding: 88 88 113
Width: 1259
Flags: W
HStem: 0 50<52.6697 153.584 1104.05 1206.33> 1460 50<52.6697 149.951 1111.84 1206.33>
DStem2: 375 1434 160 1420 0.471712 -0.881753<-105.855 619.177 713.589 730.986 824.927 1544.81> 165 90 253 76 0.532713 0.846296<-72.7516 670.395 942.766 1694.91>
LayerCount: 2
Fore
SplineSet
155 0 m 2,0,-1
 65 0 l 2,1,2
 50 0 50 0 50 15 c 2,3,-1
 50 35 l 2,4,5
 50 50 50 50 65 50 c 2,6,-1
 105 50 l 2,7,8
 140 50 140 50 165 90 c 2,9,-1
 547 697 l 1,10,-1
 160 1420 l 2,11,12
 139 1460 139 1460 100 1460 c 2,13,-1
 65 1460 l 2,14,15
 50 1460 50 1460 50 1475 c 2,16,-1
 50 1495 l 2,17,18
 50 1510 50 1510 65 1510 c 2,19,-1
 257 1510 l 2,20,21
 334 1510 334 1510 375 1434 c 2,22,-1
 667 888 l 1,23,-1
 1011 1434 l 2,24,25
 1059 1510 1059 1510 1129 1510 c 2,26,-1
 1194 1510 l 2,27,28
 1209 1510 1209 1510 1209 1495 c 2,29,-1
 1209 1475 l 2,30,31
 1209 1460 1209 1460 1194 1460 c 2,32,-1
 1159 1460 l 2,33,34
 1124 1460 1124 1460 1099 1420 c 2,35,-1
 712 805 l 1,36,-1
 1094 90 l 2,37,38
 1115 50 1115 50 1154 50 c 2,39,-1
 1194 50 l 2,40,41
 1209 50 1209 50 1209 35 c 2,42,-1
 1209 15 l 2,43,44
 1209 0 1209 0 1194 0 c 2,45,-1
 977 0 l 2,46,47
 920 0 920 0 879 76 c 2,48,-1
 591 614 l 1,49,-1
 253 76 l 2,50,51
 205 0 205 0 155 0 c 2,0,-1
EndSplineSet
Validated: 1
EndChar

StartChar: Q
Encoding: 81 81 114
Width: 1514
Flags: W
HStem: -195 50<1208.73 1310.33> -20 61<614.379 892.009> 320 50<661.67 758.268> 1469 61<614.379 899.621>
VStem: 100 222<458.224 1051.78> 1192 222<458.342 1051.89>
DStem2: 1032 179 769 280 0.505886 -0.8626<-244.639 0 117.396 356.282>
LayerCount: 2
Fore
SplineSet
757 -20 m 0,0,1
 457 -20 457 -20 278 206 c 0,2,3
 100 430 100 430 100 755 c 128,-1,4
 100 1080 100 1080 278 1304 c 0,5,6
 457 1530 457 1530 757 1530 c 128,-1,7
 1057 1530 1057 1530 1236 1304 c 0,8,9
 1414 1080 1414 1080 1414 755 c 128,-1,10
 1414 430 1414 430 1236 206 c 0,11,12
 1172 126 1172 126 1093 74 c 1,13,-1
 1198 -105 l 2,14,15
 1221 -145 1221 -145 1258 -145 c 2,16,-1
 1298 -145 l 2,17,18
 1313 -145 1313 -145 1313 -160 c 2,19,-1
 1313 -180 l 2,20,21
 1313 -195 1313 -195 1298 -195 c 2,22,-1
 1101 -195 l 2,23,24
 1048 -195 1048 -195 1003 -119 c 2,25,-1
 932 2 l 1,26,27
 850 -20 850 -20 757 -20 c 0,0,1
1032 179 m 1,28,29
 1053 206 1053 206 1072 238 c 0,30,31
 1192 442 1192 442 1192 756 c 0,32,33
 1192 1068 1192 1068 1072 1272 c 0,34,35
 956 1469 956 1469 757 1469 c 128,-1,36
 558 1469 558 1469 442 1272 c 0,37,38
 322 1068 322 1068 322 755 c 128,-1,39
 322 442 322 442 442 238 c 0,40,41
 558 41 558 41 757 41 c 0,42,43
 831 41 831 41 893 68 c 1,44,-1
 769 280 l 2,45,46
 746 320 746 320 709 320 c 2,47,-1
 674 320 l 2,48,49
 659 320 659 320 659 335 c 2,50,-1
 659 355 l 2,51,52
 659 370 659 370 674 370 c 2,53,-1
 846 370 l 2,54,55
 919 370 919 370 964 294 c 2,56,-1
 1032 179 l 1,28,29
EndSplineSet
Validated: 1
EndChar

StartChar: N
Encoding: 78 78 115
Width: 1399
Flags: W
HStem: 0 50<52.6697 178.884> 1460 50<52.6697 157.9 1220.12 1346.33>
VStem: 200 90<60.293 1240> 1109 90<386 1449.71>
DStem2: 392 1434 170 1420 0.554838 -0.831958<-116.82 -57.4434 104.806 1269.71>
LayerCount: 2
Fore
SplineSet
150 0 m 2,0,-1
 65 0 l 2,1,2
 50 0 50 0 50 15 c 2,3,-1
 50 35 l 2,4,5
 50 50 50 50 65 50 c 2,6,-1
 110 50 l 2,7,8
 200 50 200 50 200 140 c 2,9,-1
 200 1375 l 1,10,-1
 170 1420 l 2,11,12
 143 1460 143 1460 110 1460 c 2,13,-1
 65 1460 l 2,14,15
 50 1460 50 1460 50 1475 c 2,16,-1
 50 1495 l 2,17,18
 50 1510 50 1510 65 1510 c 2,19,-1
 259 1510 l 2,20,21
 340 1510 340 1510 392 1434 c 2,22,-1
 1109 386 l 1,23,-1
 1109 1370 l 2,24,25
 1109 1510 1109 1510 1249 1510 c 2,26,-1
 1334 1510 l 2,27,28
 1349 1510 1349 1510 1349 1495 c 2,29,-1
 1349 1475 l 2,30,31
 1349 1460 1349 1460 1334 1460 c 2,32,-1
 1289 1460 l 2,33,34
 1199 1460 1199 1460 1199 1370 c 2,35,-1
 1199 30 l 2,36,37
 1199 0 1199 0 1169 0 c 2,38,-1
 1137 0 l 2,39,40
 1117 0 1117 0 1097 30 c 2,41,-1
 290 1240 l 1,42,-1
 290 140 l 2,43,44
 290 0 290 0 150 0 c 2,0,-1
EndSplineSet
Validated: 1
EndChar

StartChar: B
Encoding: 66 66 116
Width: 1270
Flags: W
HStem: 0 61<52.6697 190.31 400 758.25> 806 60<400 728.426> 1449 61<52.6697 190.31 400 729.23>
VStem: 200 200<61.6235 806 866 1448.38> 870 209<991.904 1325.69> 960 210<255.807 642.577>
LayerCount: 2
Fore
SplineSet
400 1449 m 1,0,-1
 400 866 l 1,1,-1
 575 866 l 2,2,3
 737 866 737 866 812 958 c 0,4,5
 870 1028 870 1028 870 1158 c 0,6,7
 870 1287 870 1287 812 1357 c 0,8,9
 736 1449 736 1449 575 1449 c 2,10,-1
 400 1449 l 1,0,-1
400 61 m 1,11,-1
 575 61 l 2,12,13
 772 61 772 61 870 161 c 0,14,15
 960 253 960 253 960 435 c 0,16,17
 960 614 960 614 870 706 c 0,18,19
 772 806 772 806 575 806 c 2,20,-1
 400 806 l 1,21,-1
 400 61 l 1,11,-1
65 0 m 2,22,23
 50 0 50 0 50 15 c 2,24,-1
 50 35 l 2,25,26
 50 50 50 50 65 50 c 2,27,-1
 110 50 l 2,28,29
 200 50 200 50 200 140 c 2,30,-1
 200 1370 l 2,31,32
 200 1460 200 1460 110 1460 c 2,33,-1
 65 1460 l 2,34,35
 50 1460 50 1460 50 1475 c 2,36,-1
 50 1495 l 2,37,38
 50 1510 50 1510 65 1510 c 2,39,-1
 665 1510 l 2,40,41
 835 1510 835 1510 948 1422 c 0,42,43
 1079 1320 1079 1320 1079 1158 c 0,44,45
 1079 959 1079 959 877 855 c 1,46,47
 955 833 955 833 1018 785 c 0,48,49
 1170 669 1170 669 1170 463 c 0,50,51
 1170 264 1170 264 1042 137 c 0,52,53
 905 0 905 0 665 0 c 2,54,-1
 65 0 l 2,22,23
EndSplineSet
Validated: 1
EndChar

StartChar: P
Encoding: 80 80 117
Width: 1208
Flags: W
HStem: 0 21G<225 375> 548 61<400 677.656> 1449 61<52.6697 190.31 400 677.656>
VStem: 200 200<0.191406 548 609 1448.38> 898 210<815.19 1243.2>
LayerCount: 2
Fore
SplineSet
250 0 m 2,0,1
 200 0 200 0 200 49 c 2,2,-1
 200 1370 l 2,3,4
 200 1460 200 1460 110 1460 c 2,5,-1
 65 1460 l 2,6,7
 50 1460 50 1460 50 1475 c 2,8,-1
 50 1495 l 2,9,10
 50 1510 50 1510 65 1510 c 2,11,-1
 623 1510 l 2,12,13
 847 1510 847 1510 985 1361 c 0,14,15
 1108 1229 1108 1229 1108 1029 c 128,-1,16
 1108 829 1108 829 985 697 c 0,17,18
 847 548 847 548 623 548 c 2,19,-1
 400 548 l 1,20,-1
 400 49 l 2,21,22
 400 0 400 0 350 0 c 2,23,-1
 250 0 l 2,0,1
400 1449 m 1,24,-1
 400 609 l 1,25,-1
 503 609 l 2,26,27
 724 609 724 609 827 755 c 0,28,29
 898 859 898 859 898 1029 c 0,30,31
 898 1201 898 1201 827 1303 c 0,32,33
 724 1449 724 1449 503 1449 c 2,34,-1
 400 1449 l 1,24,-1
EndSplineSet
Validated: 1
EndChar

StartChar: R
Encoding: 82 82 118
Width: 1301
Flags: W
HStem: 0 50<1181.73 1288.33> 548 61<400 668.281> 1449 61<52.6697 190.31 400 677.656>
VStem: 200 200<0.191406 548 609 1448.38> 898 210<815.19 1243.2>
DStem2: 869 606 669 550 0.505118 -0.86305<-0.872339 605.618>
LayerCount: 2
Fore
SplineSet
400 1449 m 1,0,-1
 400 609 l 1,1,-1
 503 609 l 2,2,3
 724 609 724 609 827 755 c 0,4,5
 898 859 898 859 898 1029 c 0,6,7
 898 1201 898 1201 827 1303 c 0,8,9
 724 1449 724 1449 503 1449 c 2,10,-1
 400 1449 l 1,0,-1
250 0 m 2,11,12
 200 0 200 0 200 49 c 2,13,-1
 200 1370 l 2,14,15
 200 1460 200 1460 110 1460 c 2,16,-1
 65 1460 l 2,17,18
 50 1460 50 1460 50 1475 c 2,19,-1
 50 1495 l 2,20,21
 50 1510 50 1510 65 1510 c 2,22,-1
 623 1510 l 2,23,24
 847 1510 847 1510 985 1361 c 0,25,26
 1108 1229 1108 1229 1108 1029 c 128,-1,27
 1108 829 1108 829 985 697 c 0,28,29
 933 641 933 641 869 606 c 1,30,-1
 1171 90 l 2,31,32
 1194 50 1194 50 1231 50 c 2,33,-1
 1276 50 l 2,34,35
 1291 50 1291 50 1291 35 c 2,36,-1
 1291 15 l 2,37,38
 1291 0 1291 0 1276 0 c 2,39,-1
 1072 0 l 2,40,41
 1000 0 1000 0 954 76 c 2,42,-1
 669 550 l 1,43,44
 646 548 646 548 623 548 c 2,45,-1
 400 548 l 1,46,-1
 400 49 l 2,47,48
 400 0 400 0 350 0 c 2,49,-1
 250 0 l 2,11,12
EndSplineSet
Validated: 1
EndChar

StartChar: grave
Encoding: 96 96 119
Width: 419
Flags: W
HStem: 1199 331<246.312 270.688>
VStem: 50 319
LayerCount: 2
Fore
SplineSet
74 1530 m 2,0,1
 224 1530 l 2,2,3
 255 1530 255 1530 266 1500 c 2,4,-1
 366 1229 l 2,5,6
 369 1221 369 1221 369 1217 c 0,7,8
 369 1199 369 1199 348 1199 c 2,9,-1
 307 1199 l 2,10,11
 278 1199 278 1199 259 1225 c 2,12,-1
 56 1500 l 2,13,14
 50 1508 50 1508 50 1515 c 0,15,16
 50 1530 50 1530 74 1530 c 2,0,1
EndSplineSet
Validated: 1
EndChar

StartChar: asciitilde
Encoding: 126 126 120
Width: 1128
Flags: W
HStem: 576 147<655.871 870.046> 790 147<257.954 472.129>
VStem: 150 72<597.066 746.663> 906 72<766.337 915.934>
LayerCount: 2
Fore
SplineSet
381 937 m 0,0,1
 518 937 518 937 616 810 c 0,2,3
 683 723 683 723 758 723 c 0,4,5
 906 723 906 723 906 886 c 8,6,7
 906 916 906 916 936 916 c 2,8,-1
 948 916 l 2,9,10
 978 916 978 916 978 886 c 0,11,12
 978 576 978 576 747 576 c 0,13,14
 610 576 610 576 512 703 c 0,15,16
 445 790 445 790 370 790 c 0,17,18
 222 790 222 790 222 627 c 8,19,20
 222 597 222 597 192 597 c 2,21,-1
 180 597 l 2,22,23
 150 597 150 597 150 627 c 0,24,25
 150 937 150 937 381 937 c 0,0,1
EndSplineSet
Validated: 1
EndChar

StartChar: braceleft
Encoding: 123 123 121
Width: 765
Flags: W
HStem: -205 80<534.463 715> 715 80<50 242.949> 1630 80<534.463 715>
VStem: 250 180<-4.96875 708.271 801.729 1509.97>
LayerCount: 2
Fore
SplineSet
685 -205 m 0,0,1
 472 -205 472 -205 363 -99 c 0,2,3
 250 11 250 11 250 203 c 2,4,-1
 250 635 l 2,5,6
 250 715 250 715 170 715 c 2,7,-1
 80 715 l 2,8,9
 50 715 50 715 50 745 c 2,10,-1
 50 765 l 2,11,12
 50 795 50 795 80 795 c 2,13,-1
 170 795 l 2,14,15
 250 795 250 795 250 875 c 2,16,-1
 250 1302 l 2,17,18
 250 1494 250 1494 363 1604 c 0,19,20
 472 1710 472 1710 685 1710 c 0,21,22
 715 1710 715 1710 715 1681 c 2,23,-1
 715 1659 l 2,24,25
 715 1630 715 1630 685 1630 c 0,26,27
 580 1630 580 1630 505 1570 c 128,-1,28
 430 1510 430 1510 430 1404 c 2,29,-1
 430 915 l 2,30,31
 430 783 430 783 310 755 c 1,32,33
 430 727 430 727 430 595 c 2,34,-1
 430 101 l 2,35,36
 430 -5 430 -5 505 -65 c 128,-1,37
 580 -125 580 -125 685 -125 c 0,38,39
 715 -125 715 -125 715 -154 c 2,40,-1
 715 -176 l 2,41,42
 715 -205 715 -205 685 -205 c 0,0,1
EndSplineSet
Validated: 1
EndChar

StartChar: bar
Encoding: 124 124 122
Width: 655
Flags: W
VStem: 250 155<-149.805 1659.8>
LayerCount: 2
Fore
SplineSet
300 1660 m 2,0,-1
 355 1660 l 2,1,2
 405 1660 405 1660 405 1610 c 2,3,-1
 405 -100 l 2,4,5
 405 -150 405 -150 355 -150 c 2,6,-1
 300 -150 l 2,7,8
 250 -150 250 -150 250 -100 c 2,9,-1
 250 1610 l 2,10,11
 250 1660 250 1660 300 1660 c 2,0,-1
EndSplineSet
Validated: 1
EndChar

StartChar: bracketleft
Encoding: 91 91 123
Width: 765
Flags: W
HStem: -205 80<430 715> 1630 80<430 715>
VStem: 250 180<-125 1630>
LayerCount: 2
Fore
SplineSet
300 -205 m 2,0,1
 250 -205 250 -205 250 -155 c 2,2,-1
 250 1660 l 2,3,4
 250 1710 250 1710 300 1710 c 2,5,-1
 685 1710 l 2,6,7
 715 1710 715 1710 715 1680 c 2,8,-1
 715 1660 l 2,9,10
 715 1630 715 1630 685 1630 c 2,11,-1
 430 1630 l 1,12,-1
 430 -125 l 1,13,-1
 685 -125 l 2,14,15
 715 -125 715 -125 715 -155 c 2,16,-1
 715 -175 l 2,17,18
 715 -205 715 -205 685 -205 c 2,19,-1
 300 -205 l 2,0,1
EndSplineSet
Validated: 1
EndChar

StartChar: backslash
Encoding: 92 92 124
Width: 1141
Flags: W
DStem2: 1122 -45 988 -122 0.499856 -0.866108<-1968.11 29.2623>
LayerCount: 2
Fore
SplineSet
114 1662 m 0,0,1
 137 1662 137 1662 153 1634 c 2,2,-1
 1122 -45 l 2,3,4
 1131 -61 1131 -61 1131 -74 c 0,5,6
 1131 -97 1131 -97 1104 -113 c 2,7,-1
 1056 -141 l 2,8,9
 1041 -150 1041 -150 1028 -150 c 0,10,11
 1004 -150 1004 -150 988 -122 c 2,12,-1
 19 1557 l 2,13,14
 10 1573 10 1573 10 1586 c 0,15,16
 10 1609 10 1609 37 1625 c 2,17,-1
 85 1653 l 2,18,19
 100 1662 100 1662 114 1662 c 0,0,1
EndSplineSet
Validated: 1
EndChar

StartChar: asciicircum
Encoding: 94 94 125
Width: 883
Flags: W
HStem: 1043 487
DStem2: 55 1109 126 1055 0.622244 0.782823<-16.9089 450.264> 824 1162 410 1402 0.632859 -0.774267<-447.263 27.7139>
LayerCount: 2
Fore
SplineSet
430 1530 m 2,0,1
 491 1530 l 2,2,3
 531 1530 531 1530 556 1499 c 2,4,-1
 824 1162 l 2,5,6
 833 1151 833 1151 833 1133 c 0,7,8
 833 1116 833 1116 806 1094 c 2,9,-1
 751 1050 l 2,10,11
 742 1043 742 1043 725 1043 c 0,12,13
 703 1043 703 1043 683 1068 c 2,14,15
 410 1402 l 1,16,-1
 126 1055 l 2,17,18
 116 1043 116 1043 101 1043 c 0,19,20
 90 1043 90 1043 79 1053 c 2,21,-1
 59 1072 l 2,22,23
 50 1081 50 1081 50 1091 c 0,24,25
 50 1103 50 1103 55 1109 c 2,26,-1
 365 1499 l 2,27,28
 390 1530 390 1530 430 1530 c 2,0,1
EndSplineSet
Validated: 1
EndChar

StartChar: underscore
Encoding: 95 95 126
Width: 1233
Flags: W
HStem: -200 113<150 1083>
LayerCount: 2
Fore
SplineSet
190 -87 m 2,0,-1
 1043 -87 l 2,1,2
 1083 -87 1083 -87 1083 -127 c 2,3,4
 1083 -160 l 2,5,6
 1083 -200 1083 -200 1043 -200 c 2,7,-1
 190 -200 l 2,8,9
 150 -200 150 -200 150 -160 c 2,10,-1
 150 -127 l 2,11,12
 150 -87 150 -87 190 -87 c 2,0,-1
EndSplineSet
Validated: 1
EndChar

StartChar: bracketright
Encoding: 93 93 127
Width: 765
Flags: W
HStem: -205 80<50 335> 1630 80<50 335>
VStem: 335 180<-125 1630>
LayerCount: 2
Fore
SplineSet
465 -205 m 2,0,1
 80 -205 l 2,2,3
 50 -205 50 -205 50 -175 c 2,4,-1
 50 -155 l 2,5,6
 50 -125 50 -125 80 -125 c 2,7,-1
 335 -125 l 1,8,-1
 335 1630 l 1,9,-1
 80 1630 l 2,10,11
 50 1630 50 1630 50 1660 c 2,12,-1
 50 1680 l 2,13,14
 50 1710 50 1710 80 1710 c 2,15,-1
 465 1710 l 2,16,17
 515 1710 515 1710 515 1660 c 2,18,-1
 515 -155 l 2,19,20
 515 -205 515 -205 465 -205 c 2,0,1
EndSplineSet
Validated: 1
EndChar

StartChar: braceright
Encoding: 125 125 128
Width: 765
Flags: W
HStem: -205 80<50 230.537> 715 80<522.051 715> 1630 80<50 230.537>
VStem: 335 180<-4.96875 708.271 801.729 1509.97>
LayerCount: 2
Fore
SplineSet
80 -205 m 0,0,1
 50 -205 50 -205 50 -176 c 2,2,-1
 50 -154 l 2,3,4
 50 -125 50 -125 80 -125 c 0,5,6
 185 -125 185 -125 260 -65 c 128,-1,7
 335 -5 335 -5 335 101 c 2,8,-1
 335 595 l 2,9,10
 335 727 335 727 455 755 c 1,11,12
 335 783 335 783 335 915 c 2,13,-1
 335 1404 l 2,14,15
 335 1510 335 1510 260 1570 c 128,-1,16
 185 1630 185 1630 80 1630 c 0,17,18
 50 1630 50 1630 50 1659 c 2,19,-1
 50 1681 l 2,20,21
 50 1710 50 1710 80 1710 c 0,22,23
 293 1710 293 1710 402 1604 c 0,24,25
 515 1494 515 1494 515 1302 c 2,26,-1
 515 875 l 2,27,28
 515 795 515 795 595 795 c 2,29,-1
 685 795 l 2,30,31
 715 795 715 795 715 765 c 2,32,-1
 715 745 l 2,33,34
 715 715 715 715 685 715 c 2,35,-1
 595 715 l 2,36,37
 515 715 515 715 515 635 c 2,38,-1
 515 203 l 2,39,40
 515 11 515 11 402 -99 c 0,41,42
 293 -205 293 -205 80 -205 c 0,0,1
EndSplineSet
Validated: 1
EndChar

StartChar: parenleft
Encoding: 40 40 129
Width: 699
Flags: W
VStem: 200 180<415.276 1095.44>
LayerCount: 2
Fore
SplineSet
593 -250 m 2,0,1
 573 -250 573 -250 557 -228 c 0,2,3
 200 263 200 263 200 755 c 128,-1,4
 200 1247 200 1247 557 1738 c 0,5,6
 573 1760 573 1760 593 1760 c 2,7,-1
 625 1760 l 2,8,9
 649 1760 649 1760 649 1744 c 0,10,11
 649 1735 649 1735 643 1726 c 0,12,13
 380 1332 380 1332 380 755 c 0,14,15
 380 218 380 218 643 -216 c 0,16,17
 649 -225 649 -225 649 -234 c 0,18,19
 649 -250 649 -250 625 -250 c 2,20,-1
 593 -250 l 2,0,1
EndSplineSet
Validated: 1
EndChar

StartChar: asterisk
Encoding: 42 42 130
Width: 732
Flags: W
HStem: 1490 20G<320 412>
VStem: 300 132<827 1074 1263 1510>
LayerCount: 2
Fore
SplineSet
340 1510 m 2,0,-1
 392 1510 l 2,1,2
 432 1510 432 1510 432 1470 c 2,3,-1
 432 1263 l 1,4,-1
 594 1376 l 2,5,6
 604 1383 604 1383 618 1384 c 0,7,8
 636 1384 636 1384 649 1362 c 2,9,-1
 675 1317 l 2,10,11
 682 1305 682 1305 682 1293 c 0,12,13
 682 1273 682 1273 660 1262 c 2,14,-1
 478 1168 l 1,15,-1
 660 1075 l 2,16,17
 682 1064 682 1064 682 1044 c 0,18,19
 682 1032 682 1032 675 1020 c 2,20,-1
 649 975 l 2,21,22
 636 953 636 953 618 953 c 0,23,24
 605 953 605 953 594 961 c 2,25,-1
 432 1074 l 1,26,-1
 432 867 l 2,27,28
 432 827 432 827 392 827 c 2,29,-1
 340 827 l 2,30,31
 300 827 300 827 300 867 c 2,32,-1
 300 1074 l 1,33,-1
 138 961 l 2,34,35
 128 954 128 954 114 953 c 0,36,37
 96 953 96 953 83 975 c 2,38,-1
 57 1020 l 2,39,40
 50 1032 50 1032 50 1044 c 0,41,42
 50 1064 50 1064 72 1075 c 2,43,-1
 254 1168 l 1,44,-1
 72 1262 l 2,45,46
 50 1273 50 1273 50 1293 c 0,47,48
 50 1305 50 1305 57 1317 c 2,49,-1
 83 1362 l 2,50,51
 96 1384 96 1384 114 1384 c 0,52,53
 127 1384 127 1384 138 1376 c 2,54,-1
 300 1263 l 1,55,-1
 300 1470 l 2,56,57
 300 1510 300 1510 340 1510 c 2,0,-1
EndSplineSet
Validated: 1
EndChar

StartChar: plus
Encoding: 43 43 131
Width: 1133
Flags: W
HStem: 680 150<150.195 492 642 982.805>
VStem: 492 150<338.195 680 830 1171.8>
LayerCount: 2
Fore
SplineSet
542 1172 m 2,0,-1
 592 1172 l 2,1,2
 642 1172 642 1172 642 1122 c 2,3,-1
 642 830 l 1,4,-1
 933 830 l 2,5,6
 983 830 983 830 983 780 c 2,7,-1
 983 730 l 2,8,9
 983 680 983 680 933 680 c 2,10,-1
 642 680 l 1,11,-1
 642 388 l 2,12,13
 642 338 642 338 592 338 c 2,14,-1
 542 338 l 2,15,16
 492 338 492 338 492 388 c 2,17,-1
 492 680 l 1,18,-1
 200 680 l 2,19,20
 150 680 150 680 150 730 c 2,21,-1
 150 780 l 2,22,23
 150 830 150 830 200 830 c 2,24,-1
 492 830 l 1,25,-1
 492 1122 l 2,26,27
 492 1172 492 1172 542 1172 c 2,0,-1
EndSplineSet
Validated: 1
EndChar

StartChar: comma
Encoding: 44 44 132
Width: 336
Flags: W
HStem: -280 566
VStem: 155 131<-141.124 108.162>
LayerCount: 2
Fore
SplineSet
156 286 m 0,0,1
 171 286 171 286 191 268 c 0,2,3
 286 182 286 182 286 34 c 0,4,5
 286 -143 286 -143 130 -271 c 24,6,7
 119 -280 119 -280 107 -280 c 0,8,9
 99 -280 99 -280 92 -273 c 2,10,-1
 79 -260 l 2,11,12
 74 -255 74 -255 74 -247 c 0,13,14
 74 -241 74 -241 78 -237 c 0,15,16
 155 -160 155 -160 155 -47 c 0,17,18
 155 84 155 84 62 162 c 0,19,20
 50 172 50 172 50 188 c 0,21,22
 50 206 50 206 70 223 c 2,23,-1
 136 280 l 2,24,25
 143 286 143 286 156 286 c 0,0,1
EndSplineSet
Validated: 1
EndChar

StartChar: hyphen
Encoding: 45 45 133
Width: 1133
Flags: W
HStem: 680 150<150.195 982.805>
LayerCount: 2
Fore
SplineSet
200 830 m 2,0,-1
 933 830 l 2,1,2
 983 830 983 830 983 780 c 2,3,4
 983 730 l 2,5,6
 983 680 983 680 933 680 c 2,7,-1
 200 680 l 2,8,9
 150 680 150 680 150 730 c 2,10,-1
 150 780 l 2,11,12
 150 830 150 830 200 830 c 2,0,-1
EndSplineSet
Validated: 1
EndChar

StartChar: period
Encoding: 46 46 134
Width: 340
Flags: W
HStem: -20 245<86.0974 253.903>
VStem: 50 240<17.1285 187.871>
LayerCount: 2
Fore
SplineSet
170 -20 m 128,-1,1
 120 -20 120 -20 85 16 c 128,-1,2
 50 52 50 52 50 102.5 c 128,-1,3
 50 153 50 153 85 189 c 128,-1,4
 120 225 120 225 170 225 c 128,-1,5
 220 225 220 225 255 189 c 128,-1,6
 290 153 290 153 290 102.5 c 128,-1,7
 290 52 290 52 255 16 c 128,-1,0
 220 -20 220 -20 170 -20 c 128,-1,1
EndSplineSet
Validated: 1
EndChar

StartChar: slash
Encoding: 47 47 135
Width: 1141
Flags: W
DStem2: 19 -45 153 -122 0.499856 0.866108<-29.2623 1968.11>
LayerCount: 2
Fore
SplineSet
1027 1662 m 0,0,1
 1041 1662 1041 1662 1056 1653 c 2,2,-1
 1104 1625 l 2,3,4
 1131 1609 1131 1609 1131 1586 c 0,5,6
 1131 1573 1131 1573 1122 1557 c 2,7,-1
 153 -122 l 2,8,9
 137 -150 137 -150 113 -150 c 0,10,11
 100 -150 100 -150 85 -141 c 2,12,-1
 37 -113 l 2,13,14
 10 -97 10 -97 10 -74 c 0,15,16
 10 -61 10 -61 19 -45 c 2,17,-1
 988 1634 l 2,18,19
 1004 1662 1004 1662 1027 1662 c 0,0,1
EndSplineSet
Validated: 1
EndChar

StartChar: colon
Encoding: 58 58 136
Width: 340
Flags: W
HStem: -20 245<86.0974 253.903> 632 245<86.0974 253.903>
VStem: 50 240<17.1285 187.871 669.129 839.871>
LayerCount: 2
Fore
SplineSet
170 877 m 128,-1,1
 220 877 220 877 255 841 c 128,-1,2
 290 805 290 805 290 754.5 c 128,-1,3
 290 704 290 704 255 668 c 128,-1,4
 220 632 220 632 170 632 c 128,-1,5
 120 632 120 632 85 668 c 128,-1,6
 50 704 50 704 50 754.5 c 128,-1,7
 50 805 50 805 85 841 c 128,-1,0
 120 877 120 877 170 877 c 128,-1,1
170 -20 m 128,-1,9
 120 -20 120 -20 85 16 c 128,-1,10
 50 52 50 52 50 102.5 c 128,-1,11
 50 153 50 153 85 189 c 128,-1,12
 120 225 120 225 170 225 c 128,-1,13
 220 225 220 225 255 189 c 128,-1,14
 290 153 290 153 290 102.5 c 128,-1,15
 290 52 290 52 255 16 c 128,-1,8
 220 -20 220 -20 170 -20 c 128,-1,9
EndSplineSet
Validated: 1
EndChar

StartChar: semicolon
Encoding: 59 59 137
Width: 389
Flags: W
HStem: 632 245<106.097 273.903>
VStem: 70 240<669.129 839.871> 208 131<-141.124 108.162>
LayerCount: 2
Fore
SplineSet
209 286 m 0,0,1
 224 286 224 286 244 268 c 0,2,3
 339 182 339 182 339 34 c 0,4,5
 339 -143 339 -143 183 -271 c 24,6,7
 172 -280 172 -280 160 -280 c 0,8,9
 152 -280 152 -280 145 -273 c 2,10,-1
 132 -260 l 2,11,12
 127 -255 127 -255 127 -247 c 0,13,14
 127 -241 127 -241 131 -237 c 0,15,16
 208 -160 208 -160 208 -47 c 0,17,18
 208 84 208 84 115 162 c 0,19,20
 103 172 103 172 103 188 c 0,21,22
 103 206 103 206 123 223 c 2,23,-1
 189 280 l 2,24,25
 196 286 196 286 209 286 c 0,0,1
190 877 m 128,-1,27
 240 877 240 877 275 841 c 128,-1,28
 310 805 310 805 310 754.5 c 128,-1,29
 310 704 310 704 275 668 c 128,-1,30
 240 632 240 632 190 632 c 128,-1,31
 140 632 140 632 105 668 c 128,-1,32
 70 704 70 704 70 754.5 c 128,-1,33
 70 805 70 805 105 841 c 128,-1,26
 140 877 140 877 190 877 c 128,-1,27
EndSplineSet
Validated: 1
EndChar

StartChar: less
Encoding: 60 60 138
Width: 1116
Flags: W
DStem2: 200 850 266 803 0.877998 0.478664<35.4507 766.155> 266 803 200 669 0.884548 -0.46645<0 727.191>
LayerCount: 2
Fore
SplineSet
150 780 m 2,0,1
 150 823 150 823 200 850 c 2,2,-1
 853 1206 l 2,3,4
 866 1213 866 1213 875 1213 c 0,5,6
 889 1213 889 1213 898 1198 c 2,7,-1
 909 1180 l 2,8,9
 916 1169 916 1169 916 1159 c 0,10,11
 916 1142 916 1142 902 1135 c 2,12,-1
 266 803 l 1,13,-1
 888 475 l 2,14,15
 916 460 916 460 916 437 c 0,16,17
 916 425 916 425 906 407 c 2,18,-1
 877 355 l 2,19,20
 862 328 862 328 838 328 c 0,21,22
 826 328 826 328 809 337 c 2,23,-1
 200 669 l 2,24,25
 150 696 150 696 150 739 c 2,26,-1
 150 780 l 2,0,1
EndSplineSet
Validated: 1
EndChar

StartChar: equal
Encoding: 61 61 139
Width: 1133
Flags: W
HStem: 490 150<150.195 982.805> 870 150<150.195 982.805>
LayerCount: 2
Fore
SplineSet
200 640 m 2,0,-1
 933 640 l 2,1,2
 983 640 983 640 983 590 c 2,3,4
 983 540 l 2,5,6
 983 490 983 490 933 490 c 2,7,-1
 200 490 l 2,8,9
 150 490 150 490 150 540 c 2,10,-1
 150 590 l 2,11,12
 150 640 150 640 200 640 c 2,0,-1
200 1020 m 2,13,-1
 933 1020 l 2,14,15
 983 1020 983 1020 983 970 c 2,16,-1
 983 920 l 2,17,18
 983 870 983 870 933 870 c 2,19,-1
 200 870 l 2,20,21
 150 870 150 870 150 920 c 2,22,-1
 150 970 l 2,23,24
 150 1020 150 1020 200 1020 c 2,13,-1
EndSplineSet
Validated: 1
EndChar

StartChar: greater
Encoding: 62 62 140
Width: 1116
Flags: W
DStem2: 214 406 263 335 0.877998 0.478664<-13.3812 717.323> 307 1204 850 738 0.884548 -0.46645<-29.5161 697.066>
LayerCount: 2
Fore
SplineSet
966 761 m 2,0,1
 966 718 966 718 916 691 c 2,2,-1
 263 335 l 2,3,4
 250 328 250 328 241 328 c 0,5,6
 227 328 227 328 218 343 c 2,7,-1
 207 361 l 2,8,9
 200 372 200 372 200 382 c 0,10,11
 200 399 200 399 214 406 c 2,12,-1
 850 738 l 1,13,-1
 228 1066 l 2,14,15
 200 1081 200 1081 200 1104 c 0,16,17
 200 1116 200 1116 210 1134 c 2,18,-1
 239 1186 l 2,19,20
 254 1213 254 1213 278 1213 c 0,21,22
 290 1213 290 1213 307 1204 c 2,23,-1
 916 872 l 2,24,25
 966 845 966 845 966 802 c 2,26,-1
 966 761 l 2,0,1
EndSplineSet
Validated: 1
EndChar

StartChar: question
Encoding: 63 63 141
Width: 1230
Flags: W
HStem: -20 245<462.097 629.903> 1115 21G<157.5 194.5> 1469 61<397.212 687.984>
VStem: 150 53<1116.46 1245.21> 426 240<17.1285 187.871> 502 95<300 448.254> 860 220<870.97 1253.73>
LayerCount: 2
Fore
SplineSet
576 1530 m 0,0,1
 809 1530 809 1530 946 1385 c 0,2,3
 1080 1244 1080 1244 1080 1038 c 0,4,5
 1080 794 1080 794 837 626 c 0,6,7
 597 461 597 461 597 335 c 0,8,9
 597 300 597 300 569 300 c 2,10,-1
 532 300 l 2,11,12
 502 300 502 300 502 329 c 0,13,14
 502 514 502 514 687 694 c 0,15,16
 860 862 860 862 860 1060 c 0,17,18
 860 1247 860 1247 797 1340 c 0,19,20
 710 1469 710 1469 556 1469 c 0,21,22
 248 1469 248 1469 203 1130 c 0,23,24
 201 1115 201 1115 188 1115 c 2,25,-1
 165 1115 l 2,26,27
 150 1115 150 1115 150 1130 c 2,28,-1
 150 1347 l 2,29,30
 150 1395 150 1395 184 1421 c 0,31,32
 328 1530 328 1530 576 1530 c 0,0,1
546 -20 m 128,-1,34
 496 -20 496 -20 461 16 c 128,-1,35
 426 52 426 52 426 102.5 c 128,-1,36
 426 153 426 153 461 189 c 128,-1,37
 496 225 496 225 546 225 c 128,-1,38
 596 225 596 225 631 189 c 128,-1,39
 666 153 666 153 666 102.5 c 128,-1,40
 666 52 666 52 631 16 c 128,-1,33
 596 -20 596 -20 546 -20 c 128,-1,34
EndSplineSet
Validated: 1
EndChar

StartChar: exclam
Encoding: 33 33 142
Width: 692
Flags: W
HStem: -20 245<262.097 429.903> 1490 20G<261 431>
VStem: 226 240<17.1285 187.871 1232.43 1508.7>
LayerCount: 2
Fore
SplineSet
286 1510 m 2,0,-1
 406 1510 l 2,1,2
 456 1510 456 1510 456 1466 c 0,3,4
 456 1464 456 1464 456 1461 c 2,5,-1
 395 329 l 2,6,7
 393 300 393 300 366 300 c 2,8,-1
 326 300 l 2,9,10
 299 300 299 300 297 329 c 2,11,-1
 236 1461 l 2,12,13
 236 1464 236 1464 236 1466 c 0,14,15
 236 1510 236 1510 286 1510 c 2,0,-1
346 -20 m 128,-1,17
 296 -20 296 -20 261 16 c 128,-1,18
 226 52 226 52 226 102.5 c 128,-1,19
 226 153 226 153 261 189 c 128,-1,20
 296 225 296 225 346 225 c 128,-1,21
 396 225 396 225 431 189 c 128,-1,22
 466 153 466 153 466 102.5 c 128,-1,23
 466 52 466 52 431 16 c 128,-1,16
 396 -20 396 -20 346 -20 c 128,-1,17
EndSplineSet
Validated: 1
EndChar

StartChar: quotedbl
Encoding: 34 34 143
Width: 541
Flags: W
HStem: 1149 381<91.9844 199.016 341.984 449.016>
VStem: 50 191<1169.62 1530> 300 191<1169.62 1530>
LayerCount: 2
Fore
SplineSet
322 1530 m 2,0,1
 469 1530 l 2,2,3
 491 1530 491 1530 491 1509 c 0,4,5
 491 1508 491 1508 490 1500 c 2,6,-1
 447 1175 l 2,7,8
 444 1149 444 1149 413 1149 c 2,9,-1
 378 1149 l 2,10,11
 347 1149 347 1149 344 1175 c 2,12,-1
 301 1500 l 2,13,14
 300 1508 300 1508 300 1509 c 0,15,16
 300 1530 300 1530 322 1530 c 2,0,1
72 1530 m 2,17,-1
 219 1530 l 2,18,19
 241 1530 241 1530 241 1509 c 0,20,21
 241 1508 241 1508 240 1500 c 2,22,-1
 197 1175 l 2,23,24
 194 1149 194 1149 163 1149 c 2,25,-1
 128 1149 l 2,26,27
 97 1149 97 1149 94 1175 c 2,28,-1
 51 1500 l 2,29,30
 50 1508 50 1508 50 1509 c 0,31,32
 50 1530 50 1530 72 1530 c 2,17,-1
EndSplineSet
Validated: 1
EndChar

StartChar: numbersign
Encoding: 35 35 144
Width: 1254
Flags: W
HStem: 517 131<150 390 522 732 864 1104> 859 131<150 390 522 732 864 1104>
VStem: 390 132<276 517 648 859 990 1230> 732 132<276 517 648 859 990 1230>
LayerCount: 2
Fore
SplineSet
522 648 m 1,0,-1
 732 648 l 1,1,-1
 732 859 l 1,2,-1
 522 859 l 1,3,-1
 522 648 l 1,0,-1
430 1230 m 2,4,-1
 482 1230 l 2,5,6
 522 1230 522 1230 522 1190 c 2,7,-1
 522 990 l 1,8,-1
 732 990 l 1,9,-1
 732 1190 l 2,10,11
 732 1230 732 1230 772 1230 c 2,12,-1
 824 1230 l 2,13,14
 864 1230 864 1230 864 1190 c 2,15,-1
 864 990 l 1,16,-1
 1064 990 l 2,17,18
 1104 990 1104 990 1104 950 c 2,19,-1
 1104 899 l 2,20,21
 1104 859 1104 859 1064 859 c 2,22,-1
 864 859 l 1,23,-1
 864 648 l 1,24,-1
 1064 648 l 2,25,26
 1104 648 1104 648 1104 608 c 2,27,-1
 1104 557 l 2,28,29
 1104 517 1104 517 1064 517 c 2,30,-1
 864 517 l 1,31,-1
 864 316 l 2,32,33
 864 276 864 276 824 276 c 2,34,-1
 772 276 l 2,35,36
 732 276 732 276 732 316 c 2,37,-1
 732 517 l 1,38,-1
 522 517 l 1,39,-1
 522 316 l 2,40,41
 522 276 522 276 482 276 c 2,42,-1
 430 276 l 2,43,44
 390 276 390 276 390 316 c 2,45,-1
 390 517 l 1,46,-1
 190 517 l 2,47,48
 150 517 150 517 150 557 c 2,49,-1
 150 608 l 2,50,51
 150 648 150 648 190 648 c 2,52,-1
 390 648 l 1,53,-1
 390 859 l 1,54,-1
 190 859 l 2,55,56
 150 859 150 859 150 899 c 2,57,-1
 150 950 l 2,58,59
 150 990 150 990 190 990 c 2,60,-1
 390 990 l 1,61,-1
 390 1190 l 2,62,63
 390 1230 390 1230 430 1230 c 2,4,-1
EndSplineSet
Validated: 1
EndChar

StartChar: parenright
Encoding: 41 41 145
Width: 699
Flags: W
VStem: 319 180<415.276 1095.44>
LayerCount: 2
Fore
SplineSet
106 -250 m 2,0,1
 74 -250 l 2,2,3
 50 -250 50 -250 50 -234 c 0,4,5
 50 -225 50 -225 56 -216 c 0,6,7
 319 218 319 218 319 755 c 0,8,9
 319 1332 319 1332 56 1726 c 0,10,11
 50 1735 50 1735 50 1744 c 0,12,13
 50 1760 50 1760 74 1760 c 2,14,-1
 106 1760 l 2,15,16
 126 1760 126 1760 142 1738 c 0,17,18
 499 1247 499 1247 499 755 c 128,-1,19
 499 263 499 263 142 -228 c 0,20,21
 126 -250 126 -250 106 -250 c 2,0,1
EndSplineSet
Validated: 1
EndChar

StartChar: quotesingle
Encoding: 39 39 146
Width: 291
Flags: W
HStem: 1149 381<91.9844 199.016>
VStem: 50 191<1169.62 1530>
LayerCount: 2
Fore
SplineSet
72 1530 m 2,0,1
 219 1530 l 2,2,3
 241 1530 241 1530 241 1509 c 0,4,5
 241 1508 241 1508 240 1500 c 2,6,-1
 197 1175 l 2,7,8
 194 1149 194 1149 163 1149 c 2,9,-1
 128 1149 l 2,10,11
 97 1149 97 1149 94 1175 c 2,12,-1
 51 1500 l 2,13,14
 50 1508 50 1508 50 1509 c 0,15,16
 50 1530 50 1530 72 1530 c 2,0,1
EndSplineSet
Validated: 1
EndChar

StartChar: dollar
Encoding: 36 36 147
Width: 1160
Flags: W
HStem: -20 61<347.748 522> 1465 63<448.367 522 622 708.726>
VStem: 80 53<273.483 393.535> 179 177<1098.33 1345.51> 522 100<-180 -20 61 725 993 1465 1523.31 1690> 840 200<272.379 572.801> 868 53<1126.46 1255.01>
LayerCount: 2
Fore
SplineSet
522 -20 m 1,0,1
 258 -20 258 -20 114 89 c 0,2,3
 80 115 80 115 80 163 c 2,4,-1
 80 380 l 2,5,6
 80 395 80 395 95 395 c 2,7,-1
 118 395 l 2,8,9
 131 395 131 395 133 380 c 0,10,11
 180 41 180 41 522 41 c 1,12,-1
 522 772 l 1,13,-1
 438 811 l 2,14,15
 179 931 179 931 179 1162 c 0,16,17
 179 1345 179 1345 318 1456 c 0,18,19
 397 1519 397 1519 522 1528 c 1,20,-1
 522 1670 l 2,21,22
 522 1690 522 1690 542 1690 c 2,23,-1
 602 1690 l 2,24,25
 622 1690 622 1690 622 1670 c 2,26,-1
 622 1528 l 1,27,28
 777 1515 777 1515 887 1431 c 0,29,30
 921 1405 921 1405 921 1357 c 2,31,-1
 921 1140 l 2,32,33
 921 1125 921 1125 906 1125 c 2,34,-1
 883 1125 l 2,35,36
 870 1125 870 1125 868 1140 c 0,37,38
 826 1431 826 1431 622 1465 c 1,39,-1
 622 944 l 1,40,-1
 778 872 l 2,41,42
 1040 751 1040 751 1040 472 c 0,43,44
 1040 294 1040 294 915 149 c 0,45,46
 804 19 804 19 622 -11 c 1,47,-1
 622 -160 l 2,48,49
 622 -180 622 -180 602 -180 c 2,50,-1
 542 -180 l 2,51,52
 522 -180 522 -180 522 -160 c 2,53,-1
 522 -20 l 1,0,1
622 61 m 1,54,55
 694 87 694 87 747 149 c 0,56,57
 840 257 840 257 840 396 c 0,58,59
 840 622 840 622 632 720 c 2,60,-1
 622 725 l 1,61,-1
 622 61 l 1,54,55
522 1465 m 1,62,63
 460 1454 460 1454 416 1408 c 0,64,65
 356 1348 356 1348 356 1238 c 0,66,67
 357 1087 357 1087 522 993 c 1,68,-1
 522 1465 l 1,62,63
EndSplineSet
Validated: 1
EndChar

StartChar: percent
Encoding: 37 37 148
Width: 1547
Flags: W
HStem: -20 44<1027.14 1156.86> 552 44<1027.14 1156.86> 914 44<390.136 519.864> 1486 44<390.136 519.864>
VStem: 150 140<1061.28 1382.72> 620 140<1061.28 1382.72> 787 140<127.279 448.721> 1257 140<127.279 448.721>
DStem2: 1130 1522 1264 1445 0.499465 0.866334<-1711.56 28.9864>
LayerCount: 2
Fore
SplineSet
1092 552 m 128,-1,1
 1024 552 1024 552 975.5 474 c 128,-1,2
 927 396 927 396 927 288 c 152,-1,3
 927 180 927 180 975.5 102 c 128,-1,4
 1024 24 1024 24 1092 24 c 128,-1,5
 1160 24 1160 24 1208.5 102 c 128,-1,6
 1257 180 1257 180 1257 288 c 152,-1,7
 1257 396 1257 396 1208.5 474 c 128,-1,0
 1160 552 1160 552 1092 552 c 128,-1,1
384 -40 m 0,8,9
 372 -40 372 -40 356 -31 c 2,10,-1
 308 -3 l 2,11,12
 280 13 280 13 280 36 c 0,13,14
 280 49 280 49 290 65 c 2,15,-1
 1130 1522 l 2,16,17
 1146 1550 1146 1550 1168 1550 c 0,18,19
 1182 1550 1182 1550 1198 1541 c 2,20,-1
 1246 1513 l 2,21,22
 1272 1497 1272 1497 1272 1474 c 0,23,24
 1272 1461 1272 1461 1264 1445 c 2,25,-1
 424 -12 l 2,26,27
 408 -40 408 -40 384 -40 c 0,8,9
1092 -20 m 128,-1,29
 965 -20 965 -20 876 70.5 c 128,-1,30
 787 161 787 161 787 288 c 152,-1,31
 787 415 787 415 876 505.5 c 128,-1,32
 965 596 965 596 1092 596 c 128,-1,33
 1219 596 1219 596 1308 505.5 c 128,-1,34
 1397 415 1397 415 1397 288 c 152,-1,35
 1397 161 1397 161 1308 70.5 c 128,-1,28
 1219 -20 1219 -20 1092 -20 c 128,-1,29
455 1486 m 128,-1,37
 387 1486 387 1486 338.5 1408 c 128,-1,38
 290 1330 290 1330 290 1222 c 152,-1,39
 290 1114 290 1114 338.5 1036 c 128,-1,40
 387 958 387 958 455 958 c 128,-1,41
 523 958 523 958 571.5 1036 c 128,-1,42
 620 1114 620 1114 620 1222 c 152,-1,43
 620 1330 620 1330 571.5 1408 c 128,-1,36
 523 1486 523 1486 455 1486 c 128,-1,37
455 1530 m 128,-1,45
 582 1530 582 1530 671 1439.5 c 128,-1,46
 760 1349 760 1349 760 1222 c 152,-1,47
 760 1095 760 1095 671 1004.5 c 128,-1,48
 582 914 582 914 455 914 c 128,-1,49
 328 914 328 914 239 1004.5 c 128,-1,50
 150 1095 150 1095 150 1222 c 152,-1,51
 150 1349 150 1349 239 1439.5 c 128,-1,44
 328 1530 328 1530 455 1530 c 128,-1,45
EndSplineSet
Validated: 1
EndChar

StartChar: zero
Encoding: 48 48 149
Width: 1236
Flags: W
HStem: -20 60<519.891 715.641> 1470 60<520.125 716.344>
VStem: 100 209<421.888 1088.35> 931 205<422.853 1086.18>
LayerCount: 2
Fore
SplineSet
618 40 m 0,0,1
 756 40 756 40 842 240 c 0,2,3
 929 446 929 446 931 755 c 0,4,5
 931 1060 931 1060 842 1270 c 0,6,7
 759 1470 759 1470 618 1470 c 0,8,9
 479 1470 479 1470 394 1270 c 0,10,11
 310 1069 310 1069 309 755 c 0,12,13
 309 442 309 442 394 240 c 0,14,15
 478 40 478 40 618 40 c 0,0,1
618 -20 m 128,-1,17
 381 -20 381 -20 240 206 c 0,18,19
 100 430 100 430 100 755 c 128,-1,20
 100 1080 100 1080 240 1304 c 0,21,22
 381 1530 381 1530 618 1530 c 128,-1,23
 855 1530 855 1530 996 1304 c 0,24,25
 1136 1080 1136 1080 1136 755 c 128,-1,26
 1136 430 1136 430 996 206 c 0,27,16
 855 -20 855 -20 618 -20 c 128,-1,17
EndSplineSet
Validated: 1
EndChar

StartChar: seven
Encoding: 55 55 150
Width: 956
Flags: W
HStem: 0 21G<244.5 387.5> 1430 80<173.755 734>
DStem2: 231 49 428 49 0.342016 0.939694<-0.765297 1470.69>
LayerCount: 2
Fore
SplineSet
262 0 m 2,0,1
 227 0 227 0 227 29 c 0,2,3
 227 38 227 38 231 49 c 2,4,-1
 734 1431 l 1,5,-1
 327 1430 l 2,6,7
 157 1430 157 1430 70 1284 c 0,8,9
 64 1274 64 1274 57 1274 c 0,10,11
 54 1274 54 1274 50 1276 c 2,12,-1
 29 1287 l 2,13,14
 20 1292 20 1292 20 1299 c 0,15,16
 20 1303 20 1303 22 1306 c 2,17,-1
 104 1447 l 2,18,19
 141 1510 141 1510 211 1510 c 2,20,-1
 901 1510 l 2,21,22
 936 1510 936 1510 936 1476 c 2,23,-1
 936 1459 l 2,24,25
 936 1447 936 1447 930 1430 c 2,26,-1
 428 49 l 2,27,28
 410 0 410 0 365 0 c 2,29,-1
 262 0 l 2,0,1
EndSplineSet
Validated: 1
EndChar

StartChar: eight
Encoding: 56 56 151
Width: 1190
Flags: W
HStem: -20 61<486.932 703.946> 781 68<500.425 690.472> 1468 62<502.237 687.218>
VStem: 120 205<239.112 618.676> 207 183<965.738 1330.9> 801 182<970.417 1331.65> 865 205<241.385 620.008>
LayerCount: 2
Fore
SplineSet
390 1160 m 128,-1,1
 390 1027 390 1027 449.5 938 c 128,-1,2
 509 849 509 849 595.5 849 c 128,-1,3
 682 849 682 849 740 935 c 0,4,5
 801 1028 801 1028 801 1160.5 c 128,-1,6
 801 1293 801 1293 741 1382 c 0,7,8
 682 1468 682 1468 595.5 1468 c 128,-1,9
 509 1468 509 1468 449.5 1380.5 c 128,-1,0
 390 1293 390 1293 390 1160 c 128,-1,1
325 412 m 128,-1,11
 325 253 325 253 404 147 c 128,-1,12
 483 41 483 41 596 41 c 128,-1,13
 709 41 709 41 787 147 c 128,-1,14
 865 253 865 253 865 412 c 128,-1,15
 865 571 865 571 786.5 676 c 128,-1,16
 708 781 708 781 595.5 781 c 128,-1,17
 483 781 483 781 404 676 c 128,-1,10
 325 571 325 571 325 412 c 128,-1,11
826 845 m 1,18,19
 883 819 883 819 932 775 c 0,20,21
 1070 650 1070 650 1070 446 c 0,22,23
 1070 244 1070 244 932 112 c 0,24,25
 793 -20 793 -20 595 -20 c 128,-1,26
 397 -20 397 -20 258.5 112 c 128,-1,27
 120 244 120 244 120 443 c 0,28,29
 120 657 120 657 257 775 c 0,30,31
 311 822 311 822 366 845 c 1,32,33
 207 951 207 951 207 1149 c 0,34,35
 207 1311 207 1311 319.5 1420.5 c 128,-1,36
 432 1530 432 1530 594 1530 c 128,-1,37
 756 1530 756 1530 869.5 1421 c 128,-1,38
 983 1312 983 1312 983 1149 c 0,39,40
 983 961 983 961 826 845 c 1,18,19
EndSplineSet
Validated: 1
EndChar

StartChar: nine
Encoding: 57 57 152
Width: 1192
Flags: W
HStem: 0 21G<344 501.5> 562 61<495.007 701.109> 1469 61<491.962 702.127>
VStem: 120 200<828.189 1259.11> 872 200<815.837 1256.98>
LayerCount: 2
Fore
SplineSet
359 0 m 2,0,1
 329 0 329 0 329 17 c 0,2,3
 329 29 329 29 341 46 c 2,4,-1
 722 590 l 1,5,6
 670 562 670 562 578 562 c 0,7,8
 384 562 384 562 252 700 c 128,-1,9
 120 838 120 838 120 1046 c 128,-1,10
 120 1254 120 1254 258.5 1392 c 128,-1,11
 397 1530 397 1530 596 1530 c 0,12,13
 794 1530 794 1530 932 1392 c 0,14,15
 1072 1253 1072 1253 1072 1046 c 0,16,17
 1072 828 1072 828 902 572 c 2,18,-1
 545 34 l 2,19,20
 522 0 522 0 481 0 c 2,21,-1
 359 0 l 2,0,1
596 623 m 128,-1,23
 709 623 709 623 790.5 744.5 c 128,-1,24
 872 866 872 866 872 1046 c 0,25,26
 872 1232 872 1232 791 1350.5 c 128,-1,27
 710 1469 710 1469 595.5 1469 c 128,-1,28
 481 1469 481 1469 400 1347 c 0,29,30
 320 1224 320 1224 320 1046 c 128,-1,31
 320 868 320 868 401.5 745.5 c 128,-1,22
 483 623 483 623 596 623 c 128,-1,23
EndSplineSet
Validated: 1
EndChar

StartChar: six
Encoding: 54 54 153
Width: 1192
Flags: W
HStem: -20 61<489.873 700.038> 887 61<490.891 696.993> 1490 20G<690.5 848>
VStem: 120 200<253.015 694.163> 872 200<250.894 681.811>
DStem2: 290 938 470 920 0.573664 0.81909<88.516 729.716> 290 938 401.5 765.5 0.552912 0.83324<-275.89 76.6692 124.903 715.713>
LayerCount: 2
Fore
SplineSet
596 -20 m 0,0,1
 398 -20 398 -20 260 118 c 0,2,3
 120 257 120 257 120 464 c 0,4,5
 120 682 120 682 290 938 c 2,6,-1
 647 1476 l 2,7,8
 670 1510 670 1510 711 1510 c 2,9,-1
 833 1510 l 2,10,11
 863 1510 863 1510 863 1493 c 0,12,13
 863 1481 863 1481 851 1464 c 2,14,-1
 470 920 l 1,15,16
 522 948 522 948 614 948 c 0,17,18
 808 948 808 948 940 810 c 128,-1,19
 1072 672 1072 672 1072 464 c 128,-1,20
 1072 256 1072 256 933.5 118 c 128,-1,21
 795 -20 795 -20 596 -20 c 0,0,1
596 887 m 128,-1,23
 483 887 483 887 401.5 765.5 c 128,-1,24
 320 644 320 644 320 464 c 0,25,26
 320 278 320 278 401 159.5 c 128,-1,27
 482 41 482 41 596.5 41 c 128,-1,28
 711 41 711 41 792 163 c 0,29,30
 872 286 872 286 872 464 c 128,-1,31
 872 642 872 642 790.5 764.5 c 128,-1,22
 709 887 709 887 596 887 c 128,-1,23
EndSplineSet
Validated: 1
EndChar

StartChar: Oslash
Encoding: 216 216 154
Width: 1514
Flags: W
HStem: -20 61<614.941 899.621> 1469 61<614.379 898.812>
VStem: 100 222<458.224 1051.78> 1192 222<458.342 1051.89>
DStem2: 348 -3 439 -45 0.422854 0.906198<-9.73801 95.9255 246.965 1472.73 1623.76 1729.43>
LayerCount: 2
Fore
SplineSet
757 -20 m 0,0,1
 602 -20 602 -20 479 41 c 1,2,-1
 439 -45 l 2,3,4
 433 -58 433 -58 423 -58 c 0,5,6
 418 -58 418 -58 412 -55 c 2,7,-1
 358 -29 l 2,8,9
 346 -23 346 -23 346 -13 c 0,10,11
 346 -7 346 -7 348 -3 c 2,12,-1
 393 93 l 1,13,14
 330 140 330 140 278 206 c 0,15,16
 100 430 100 430 100 755 c 128,-1,17
 100 1080 100 1080 278 1304 c 0,18,19
 457 1530 457 1530 757 1530 c 0,20,21
 912 1530 912 1530 1035 1469 c 1,22,-1
 1075 1555 l 2,23,24
 1081 1568 1081 1568 1091 1568 c 0,25,26
 1096 1568 1096 1568 1102 1565 c 2,27,-1
 1156 1539 l 2,28,29
 1168 1533 1168 1533 1168 1523 c 0,30,31
 1168 1517 1168 1517 1166 1513 c 2,32,-1
 1121 1417 l 1,33,34
 1184 1370 1184 1370 1236 1304 c 0,35,36
 1414 1080 1414 1080 1414 755 c 128,-1,37
 1414 430 1414 430 1236 206 c 0,38,39
 1057 -20 1057 -20 757 -20 c 0,0,1
757 41 m 0,40,41
 956 41 956 41 1072 238 c 0,42,43
 1192 442 1192 442 1192 756 c 0,44,45
 1192 1068 1192 1068 1072 1272 c 0,46,47
 1067 1281 1067 1281 1062 1289 c 1,48,-1
 523 134 l 1,49,50
 620 41 620 41 757 41 c 0,40,41
452 221 m 1,51,-1
 991 1376 l 1,52,53
 893 1469 893 1469 757 1469 c 0,54,55
 558 1469 558 1469 442 1272 c 0,56,57
 322 1068 322 1068 322 755 c 128,-1,58
 322 442 322 442 442 238 c 0,59,60
 447 229 447 229 452 221 c 1,51,-1
EndSplineSet
Validated: 1
EndChar

StartChar: one
Encoding: 49 49 155
Width: 635
Flags: W
HStem: 0 21G<250 420> 1510 20G<393.5 420.5>
VStem: 235 200<0 1196>
DStem2: 26 1045 235 1196 0.590595 0.806968<-16.2525 245.286>
LayerCount: 2
Fore
SplineSet
265 0 m 2,0,1
 235 0 235 0 235 30 c 2,2,-1
 235 1196 l 1,3,-1
 91 995 l 2,4,5
 82 982 82 982 69 982 c 128,-1,6
 56 982 56 982 39 997 c 0,7,8
 20 1014 20 1014 20 1029 c 0,9,10
 20 1037 20 1037 26 1045 c 2,11,-1
 359 1500 l 2,12,13
 381 1530 381 1530 406 1530 c 0,14,15
 435 1530 435 1530 435 1501 c 2,16,-1
 435 30 l 2,17,18
 435 0 435 0 405 0 c 2,19,-1
 265 0 l 2,0,1
EndSplineSet
Validated: 1
EndChar

StartChar: Ograve
Encoding: 210 210 156
Width: 1514
Flags: W
HStem: -20 61<614.379 899.621> 1469 61<614.379 899.621>
VStem: 100 222<458.224 1051.78> 1192 222<458.342 1051.89>
LayerCount: 2
Fore
SplineSet
757 41 m 128,-1,1
 956 41 956 41 1072 238 c 0,2,3
 1192 442 1192 442 1192 756 c 0,4,5
 1192 1068 1192 1068 1072 1272 c 0,6,7
 956 1469 956 1469 757 1469 c 128,-1,8
 558 1469 558 1469 442 1272 c 0,9,10
 322 1068 322 1068 322 755 c 128,-1,11
 322 442 322 442 442 238 c 0,12,0
 558 41 558 41 757 41 c 128,-1,1
757 -20 m 128,-1,14
 457 -20 457 -20 278 206 c 0,15,16
 100 430 100 430 100 755 c 128,-1,17
 100 1080 100 1080 278 1304 c 0,18,19
 457 1530 457 1530 757 1530 c 128,-1,20
 1057 1530 1057 1530 1236 1304 c 0,21,22
 1414 1080 1414 1080 1414 755 c 128,-1,23
 1414 430 1414 430 1236 206 c 0,24,13
 1057 -20 1057 -20 757 -20 c 128,-1,14
498 1901 m 2,25,-1
 648 1901 l 2,26,27
 679 1901 679 1901 690 1871 c 2,28,-1
 790 1600 l 2,29,30
 793 1592 793 1592 793 1588 c 0,31,32
 793 1570 793 1570 772 1570 c 2,33,-1
 731 1570 l 2,34,35
 702 1570 702 1570 683 1596 c 2,36,-1
 480 1871 l 2,37,38
 474 1879 474 1879 474 1886 c 0,39,40
 474 1901 474 1901 498 1901 c 2,25,-1
EndSplineSet
Validated: 1
EndChar

StartChar: Oacute
Encoding: 211 211 157
Width: 1514
Flags: W
HStem: -20 61<614.379 899.621> 1469 61<614.379 899.621>
VStem: 100 222<458.224 1051.78> 1192 222<458.342 1051.89>
LayerCount: 2
Fore
SplineSet
757 41 m 128,-1,1
 956 41 956 41 1072 238 c 0,2,3
 1192 442 1192 442 1192 756 c 0,4,5
 1192 1068 1192 1068 1072 1272 c 0,6,7
 956 1469 956 1469 757 1469 c 128,-1,8
 558 1469 558 1469 442 1272 c 0,9,10
 322 1068 322 1068 322 755 c 128,-1,11
 322 442 322 442 442 238 c 0,12,0
 558 41 558 41 757 41 c 128,-1,1
757 -20 m 128,-1,14
 457 -20 457 -20 278 206 c 0,15,16
 100 430 100 430 100 755 c 128,-1,17
 100 1080 100 1080 278 1304 c 0,18,19
 457 1530 457 1530 757 1530 c 128,-1,20
 1057 1530 1057 1530 1236 1304 c 0,21,22
 1414 1080 1414 1080 1414 755 c 128,-1,23
 1414 430 1414 430 1236 206 c 0,24,13
 1057 -20 1057 -20 757 -20 c 128,-1,14
1001 1901 m 2,25,26
 1025 1901 1025 1901 1025 1886 c 0,27,28
 1025 1879 1025 1879 1019 1871 c 2,29,-1
 816 1596 l 2,30,31
 797 1570 797 1570 768 1570 c 2,32,-1
 727 1570 l 2,33,34
 706 1570 706 1570 706 1588 c 0,35,36
 706 1592 706 1592 709 1600 c 2,37,-1
 809 1871 l 2,38,39
 820 1901 820 1901 851 1901 c 2,40,-1
 1001 1901 l 2,25,26
EndSplineSet
Validated: 1
EndChar

StartChar: Ocircumflex
Encoding: 212 212 158
Width: 1514
Flags: W
HStem: -20 61<614.379 899.621> 1469 61<614.379 899.621>
VStem: 100 222<458.224 1051.78> 1192 222<458.342 1051.89>
DStem2: 521 1626 600 1611 0.591194 0.806529<-14.3316 285.46> 1019 1627 741 1819 0.593065 -0.805155<-319.343 -1.86413>
LayerCount: 2
Fore
SplineSet
757 41 m 128,-1,1
 956 41 956 41 1072 238 c 0,2,3
 1192 442 1192 442 1192 756 c 0,4,5
 1192 1068 1192 1068 1072 1272 c 0,6,7
 956 1469 956 1469 757 1469 c 128,-1,8
 558 1469 558 1469 442 1272 c 0,9,10
 322 1068 322 1068 322 755 c 128,-1,11
 322 442 322 442 442 238 c 0,12,0
 558 41 558 41 757 41 c 128,-1,1
757 -20 m 128,-1,14
 457 -20 457 -20 278 206 c 0,15,16
 100 430 100 430 100 755 c 128,-1,17
 100 1080 100 1080 278 1304 c 0,18,19
 457 1530 457 1530 757 1530 c 128,-1,20
 1057 1530 1057 1530 1236 1304 c 0,21,22
 1414 1080 1414 1080 1414 755 c 128,-1,23
 1414 430 1414 430 1236 206 c 0,24,13
 1057 -20 1057 -20 757 -20 c 128,-1,14
735 1871 m 2,25,-1
 805 1871 l 2,26,27
 839 1871 839 1871 868 1832 c 2,28,-1
 1019 1627 l 2,29,30
 1028 1615 1028 1615 1028 1605 c 0,31,32
 1028 1590 1028 1590 1011 1590 c 2,33,-1
 923 1590 l 2,34,35
 897 1590 897 1590 882 1612 c 2,36,-1
 741 1819 l 1,37,-1
 600 1611 l 2,38,39
 586 1590 586 1590 563 1590 c 2,40,-1
 531 1590 l 2,41,42
 512 1590 512 1590 512 1604 c 0,43,44
 512 1614 512 1614 521 1626 c 2,45,-1
 672 1832 l 2,46,47
 701 1871 701 1871 735 1871 c 2,25,-1
EndSplineSet
Validated: 1
EndChar

StartChar: Otilde
Encoding: 213 213 159
Width: 1514
Flags: W
HStem: -20 61<614.379 899.621> 1469 61<614.379 899.621> 1630 109<814.989 922.657> 1764 109<597.343 703.643>
VStem: 100 222<458.224 1051.78> 510 82<1638 1759.75> 928 82<1743.25 1865> 1192 222<458.342 1051.89>
LayerCount: 2
Fore
SplineSet
757 41 m 128,-1,1
 956 41 956 41 1072 238 c 0,2,3
 1192 442 1192 442 1192 756 c 0,4,5
 1192 1068 1192 1068 1072 1272 c 0,6,7
 956 1469 956 1469 757 1469 c 128,-1,8
 558 1469 558 1469 442 1272 c 0,9,10
 322 1068 322 1068 322 755 c 128,-1,11
 322 442 322 442 442 238 c 0,12,0
 558 41 558 41 757 41 c 128,-1,1
757 -20 m 128,-1,14
 457 -20 457 -20 278 206 c 0,15,16
 100 430 100 430 100 755 c 128,-1,17
 100 1080 100 1080 278 1304 c 0,18,19
 457 1530 457 1530 757 1530 c 128,-1,20
 1057 1530 1057 1530 1236 1304 c 0,21,22
 1414 1080 1414 1080 1414 755 c 128,-1,23
 1414 430 1414 430 1236 206 c 0,24,13
 1057 -20 1057 -20 757 -20 c 128,-1,14
672 1873 m 0,25,26
 745 1873 745 1873 806 1794 c 24,27,28
 848 1739 848 1739 883 1739 c 0,29,30
 928 1739 928 1739 928 1840 c 0,31,32
 928 1865 928 1865 953 1865 c 2,33,-1
 985 1865 l 2,34,35
 1010 1865 1010 1865 1010 1840 c 0,36,37
 1010 1630 1010 1630 848 1630 c 0,38,39
 782 1630 782 1630 714 1709 c 24,40,41
 667 1764 667 1764 637 1764 c 0,42,43
 592 1764 592 1764 592 1663 c 0,44,45
 592 1638 592 1638 567 1638 c 2,46,-1
 535 1638 l 2,47,48
 510 1638 510 1638 510 1663 c 0,49,50
 510 1873 510 1873 672 1873 c 0,25,26
EndSplineSet
Validated: 1
EndChar

StartChar: Odieresis
Encoding: 214 214 160
Width: 1514
Flags: W
HStem: -20 61<614.379 899.621> 1469 61<614.379 899.621> 1640 227<534.034 689.966 811.004 966.996>
VStem: 100 222<458.224 1051.78> 500 224<1674.55 1832.45> 778 222<1675.07 1832.93> 1192 222<458.342 1051.89>
LayerCount: 2
Fore
SplineSet
757 41 m 128,-1,1
 956 41 956 41 1072 238 c 0,2,3
 1192 442 1192 442 1192 756 c 0,4,5
 1192 1068 1192 1068 1072 1272 c 0,6,7
 956 1469 956 1469 757 1469 c 128,-1,8
 558 1469 558 1469 442 1272 c 0,9,10
 322 1068 322 1068 322 755 c 128,-1,11
 322 442 322 442 442 238 c 0,12,0
 558 41 558 41 757 41 c 128,-1,1
757 -20 m 128,-1,14
 457 -20 457 -20 278 206 c 0,15,16
 100 430 100 430 100 755 c 128,-1,17
 100 1080 100 1080 278 1304 c 0,18,19
 457 1530 457 1530 757 1530 c 128,-1,20
 1057 1530 1057 1530 1236 1304 c 0,21,22
 1414 1080 1414 1080 1414 755 c 128,-1,23
 1414 430 1414 430 1236 206 c 0,24,13
 1057 -20 1057 -20 757 -20 c 128,-1,14
889 1868 m 128,-1,26
 936 1868 936 1868 968 1834 c 128,-1,27
 1000 1800 1000 1800 1000 1754 c 128,-1,28
 1000 1708 1000 1708 968 1674 c 128,-1,29
 936 1640 936 1640 889 1640 c 128,-1,30
 842 1640 842 1640 810 1674 c 128,-1,31
 778 1708 778 1708 778 1754 c 128,-1,32
 778 1800 778 1800 810 1834 c 128,-1,25
 842 1868 842 1868 889 1868 c 128,-1,26
612 1867 m 128,-1,34
 658 1867 658 1867 691 1833.5 c 128,-1,35
 724 1800 724 1800 724 1753.5 c 128,-1,36
 724 1707 724 1707 691 1673.5 c 128,-1,37
 658 1640 658 1640 612 1640 c 128,-1,38
 566 1640 566 1640 533 1673.5 c 128,-1,39
 500 1707 500 1707 500 1753.5 c 128,-1,40
 500 1800 500 1800 533 1833.5 c 128,-1,33
 566 1867 566 1867 612 1867 c 128,-1,34
EndSplineSet
Validated: 1
EndChar

StartChar: ograve
Encoding: 242 242 161
Width: 1186
Flags: W
HStem: -20 50<497.604 688.888> 1070 50<494.16 691.84>
VStem: 100 198<296.884 806.34> 888 198<297.623 806.586>
LayerCount: 2
Fore
SplineSet
593 30 m 0,0,1
 711 30 711 30 797 156 c 0,2,3
 888 289 888 289 888 550 c 0,4,5
 888 815 888 815 794 952 c 0,6,7
 713 1070 713 1070 593 1070 c 128,-1,8
 473 1070 473 1070 392 952 c 0,9,10
 298 814 298 814 298 550 c 128,-1,11
 298 286 298 286 389 156 c 0,12,13
 477 30 477 30 593 30 c 0,0,1
593 -20 m 128,-1,15
 381 -20 381 -20 255 119 c 0,16,17
 100 289 100 289 100 550 c 0,18,19
 100 820 100 820 254 979 c 0,20,21
 391 1120 391 1120 593 1120 c 128,-1,22
 795 1120 795 1120 932 979 c 0,23,24
 1086 820 1086 820 1086 550 c 0,25,26
 1086 289 1086 289 931 119 c 0,27,14
 805 -20 805 -20 593 -20 c 128,-1,15
339 1491 m 2,28,-1
 489 1491 l 2,29,30
 520 1491 520 1491 531 1461 c 2,31,-1
 631 1190 l 2,32,33
 634 1182 634 1182 634 1178 c 0,34,35
 634 1160 634 1160 613 1160 c 2,36,-1
 572 1160 l 2,37,38
 543 1160 543 1160 524 1186 c 2,39,-1
 321 1461 l 2,40,41
 315 1469 315 1469 315 1476 c 0,42,43
 315 1491 315 1491 339 1491 c 2,28,-1
EndSplineSet
Validated: 1
EndChar

StartChar: oacute
Encoding: 243 243 162
Width: 1186
Flags: W
HStem: -20 50<497.604 688.888> 1070 50<494.16 691.84>
VStem: 100 198<296.884 806.34> 888 198<297.623 806.586>
LayerCount: 2
Fore
SplineSet
593 30 m 0,0,1
 711 30 711 30 797 156 c 0,2,3
 888 289 888 289 888 550 c 0,4,5
 888 815 888 815 794 952 c 0,6,7
 713 1070 713 1070 593 1070 c 128,-1,8
 473 1070 473 1070 392 952 c 0,9,10
 298 814 298 814 298 550 c 128,-1,11
 298 286 298 286 389 156 c 0,12,13
 477 30 477 30 593 30 c 0,0,1
593 -20 m 128,-1,15
 381 -20 381 -20 255 119 c 0,16,17
 100 289 100 289 100 550 c 0,18,19
 100 820 100 820 254 979 c 0,20,21
 391 1120 391 1120 593 1120 c 128,-1,22
 795 1120 795 1120 932 979 c 0,23,24
 1086 820 1086 820 1086 550 c 0,25,26
 1086 289 1086 289 931 119 c 0,27,14
 805 -20 805 -20 593 -20 c 128,-1,15
849 1491 m 2,28,29
 873 1491 873 1491 873 1476 c 0,30,31
 873 1469 873 1469 867 1461 c 2,32,-1
 664 1186 l 2,33,34
 645 1160 645 1160 616 1160 c 2,35,-1
 575 1160 l 2,36,37
 554 1160 554 1160 554 1178 c 0,38,39
 554 1182 554 1182 557 1190 c 2,40,-1
 657 1461 l 2,41,42
 668 1491 668 1491 699 1491 c 2,43,-1
 849 1491 l 2,28,29
EndSplineSet
Validated: 1
EndChar

StartChar: ocircumflex
Encoding: 244 244 163
Width: 1186
Flags: W
HStem: -20 50<497.604 688.888> 1070 50<494.16 691.84>
VStem: 100 198<296.884 806.34> 888 198<297.623 806.586>
DStem2: 351 1216 430 1201 0.591194 0.806529<-14.3316 285.46> 849 1217 571 1409 0.593065 -0.805155<-319.343 -1.86413>
LayerCount: 2
Fore
SplineSet
593 30 m 0,0,1
 711 30 711 30 797 156 c 0,2,3
 888 289 888 289 888 550 c 0,4,5
 888 815 888 815 794 952 c 0,6,7
 713 1070 713 1070 593 1070 c 128,-1,8
 473 1070 473 1070 392 952 c 0,9,10
 298 814 298 814 298 550 c 128,-1,11
 298 286 298 286 389 156 c 0,12,13
 477 30 477 30 593 30 c 0,0,1
593 -20 m 128,-1,15
 381 -20 381 -20 255 119 c 0,16,17
 100 289 100 289 100 550 c 0,18,19
 100 820 100 820 254 979 c 0,20,21
 391 1120 391 1120 593 1120 c 128,-1,22
 795 1120 795 1120 932 979 c 0,23,24
 1086 820 1086 820 1086 550 c 0,25,26
 1086 289 1086 289 931 119 c 0,27,14
 805 -20 805 -20 593 -20 c 128,-1,15
565 1461 m 2,28,-1
 635 1461 l 2,29,30
 669 1461 669 1461 698 1422 c 2,31,-1
 849 1217 l 2,32,33
 858 1205 858 1205 858 1195 c 0,34,35
 858 1180 858 1180 841 1180 c 2,36,-1
 753 1180 l 2,37,38
 727 1180 727 1180 712 1202 c 2,39,-1
 571 1409 l 1,40,-1
 430 1201 l 2,41,42
 416 1180 416 1180 393 1180 c 2,43,-1
 361 1180 l 2,44,45
 342 1180 342 1180 342 1194 c 0,46,47
 342 1204 342 1204 351 1216 c 2,48,-1
 502 1422 l 2,49,50
 531 1461 531 1461 565 1461 c 2,28,-1
EndSplineSet
Validated: 1
EndChar

StartChar: otilde
Encoding: 245 245 164
Width: 1186
Flags: W
HStem: -20 50<497.604 688.888> 1070 50<494.16 691.84> 1220 109<654.989 762.657> 1354 109<437.343 543.643>
VStem: 100 198<296.884 806.34> 350 82<1228 1349.75> 768 82<1333.25 1455> 888 198<297.623 806.586>
LayerCount: 2
Fore
SplineSet
593 30 m 0,0,1
 711 30 711 30 797 156 c 0,2,3
 888 289 888 289 888 550 c 0,4,5
 888 815 888 815 794 952 c 0,6,7
 713 1070 713 1070 593 1070 c 128,-1,8
 473 1070 473 1070 392 952 c 0,9,10
 298 814 298 814 298 550 c 128,-1,11
 298 286 298 286 389 156 c 0,12,13
 477 30 477 30 593 30 c 0,0,1
593 -20 m 128,-1,15
 381 -20 381 -20 255 119 c 0,16,17
 100 289 100 289 100 550 c 0,18,19
 100 820 100 820 254 979 c 0,20,21
 391 1120 391 1120 593 1120 c 128,-1,22
 795 1120 795 1120 932 979 c 0,23,24
 1086 820 1086 820 1086 550 c 0,25,26
 1086 289 1086 289 931 119 c 0,27,14
 805 -20 805 -20 593 -20 c 128,-1,15
512 1463 m 0,28,29
 585 1463 585 1463 646 1384 c 24,30,31
 688 1329 688 1329 723 1329 c 0,32,33
 768 1329 768 1329 768 1430 c 0,34,35
 768 1455 768 1455 793 1455 c 2,36,-1
 825 1455 l 2,37,38
 850 1455 850 1455 850 1430 c 0,39,40
 850 1220 850 1220 688 1220 c 0,41,42
 622 1220 622 1220 554 1299 c 24,43,44
 507 1354 507 1354 477 1354 c 0,45,46
 432 1354 432 1354 432 1253 c 0,47,48
 432 1228 432 1228 407 1228 c 2,49,-1
 375 1228 l 2,50,51
 350 1228 350 1228 350 1253 c 0,52,53
 350 1463 350 1463 512 1463 c 0,28,29
EndSplineSet
Validated: 1
EndChar

StartChar: odieresis
Encoding: 246 246 165
Width: 1186
Flags: W
HStem: -20 50<497.604 688.888> 1070 50<494.16 691.84> 1230 227<384.034 539.966 661.004 816.996>
VStem: 100 198<296.884 806.34> 350 224<1264.55 1422.45> 628 222<1265.07 1422.93> 888 198<297.623 806.586>
LayerCount: 2
Fore
SplineSet
593 30 m 0,0,1
 711 30 711 30 797 156 c 0,2,3
 888 289 888 289 888 550 c 0,4,5
 888 815 888 815 794 952 c 0,6,7
 713 1070 713 1070 593 1070 c 128,-1,8
 473 1070 473 1070 392 952 c 0,9,10
 298 814 298 814 298 550 c 128,-1,11
 298 286 298 286 389 156 c 0,12,13
 477 30 477 30 593 30 c 0,0,1
593 -20 m 128,-1,15
 381 -20 381 -20 255 119 c 0,16,17
 100 289 100 289 100 550 c 0,18,19
 100 820 100 820 254 979 c 0,20,21
 391 1120 391 1120 593 1120 c 128,-1,22
 795 1120 795 1120 932 979 c 0,23,24
 1086 820 1086 820 1086 550 c 0,25,26
 1086 289 1086 289 931 119 c 0,27,14
 805 -20 805 -20 593 -20 c 128,-1,15
739 1458 m 128,-1,29
 786 1458 786 1458 818 1424 c 128,-1,30
 850 1390 850 1390 850 1344 c 128,-1,31
 850 1298 850 1298 818 1264 c 128,-1,32
 786 1230 786 1230 739 1230 c 128,-1,33
 692 1230 692 1230 660 1264 c 128,-1,34
 628 1298 628 1298 628 1344 c 128,-1,35
 628 1390 628 1390 660 1424 c 128,-1,28
 692 1458 692 1458 739 1458 c 128,-1,29
462 1457 m 128,-1,37
 508 1457 508 1457 541 1423.5 c 128,-1,38
 574 1390 574 1390 574 1343.5 c 128,-1,39
 574 1297 574 1297 541 1263.5 c 128,-1,40
 508 1230 508 1230 462 1230 c 128,-1,41
 416 1230 416 1230 383 1263.5 c 128,-1,42
 350 1297 350 1297 350 1343.5 c 128,-1,43
 350 1390 350 1390 383 1423.5 c 128,-1,36
 416 1457 416 1457 462 1457 c 128,-1,37
EndSplineSet
Validated: 1
EndChar

StartChar: oslash
Encoding: 248 248 166
Width: 1186
Flags: W
HStem: -20 50<496.791 688.888> 1070 50<494.16 693.71>
VStem: 100 198<298.873 806.34> 888 198<297.623 805.213>
DStem2: 312 66 361 -65 0.422927 0.906164<-108.177 -4.45269 134.659 981.099 1117.54 1223.03>
LayerCount: 2
Fore
SplineSet
593 -20 m 0,0,1
 485 -20 485 -20 399 16 c 1,2,-1
 361 -65 l 2,3,4
 355 -77 355 -77 345 -77 c 0,5,6
 342 -77 342 -77 335 -74 c 2,7,-1
 280 -49 l 2,8,9
 268 -44 268 -44 268 -33 c 0,10,11
 268 -28 268 -28 271 -22 c 2,12,-1
 312 66 l 1,13,14
 281 89 281 89 255 119 c 0,15,16
 100 289 100 289 100 550 c 0,17,18
 100 820 100 820 254 979 c 0,19,20
 391 1120 391 1120 593 1120 c 0,21,22
 698 1120 698 1120 786 1082 c 1,23,-1
 825 1165 l 2,24,25
 831 1177 831 1177 841 1177 c 0,26,27
 844 1177 844 1177 851 1174 c 2,28,-1
 906 1149 l 2,29,30
 918 1144 918 1144 918 1133 c 0,31,32
 918 1128 918 1128 915 1122 c 2,33,-1
 873 1031 l 1,34,35
 904 1008 904 1008 932 979 c 0,36,37
 1086 820 1086 820 1086 550 c 0,38,39
 1086 289 1086 289 931 119 c 0,40,41
 805 -20 805 -20 593 -20 c 0,0,1
593 30 m 0,42,43
 711 30 711 30 797 156 c 0,44,45
 888 289 888 289 888 550 c 0,46,47
 888 780 888 780 817 913 c 1,48,-1
 437 98 l 1,49,50
 508 30 508 30 593 30 c 0,42,43
369 188 m 1,51,-1
 750 1005 l 1,52,53
 682 1070 682 1070 593 1070 c 0,54,55
 473 1070 473 1070 392 952 c 0,56,57
 298 814 298 814 298 550 c 0,58,59
 298 317 298 317 369 188 c 1,51,-1
EndSplineSet
Validated: 1
EndChar

StartChar: multiply
Encoding: 215 215 167
Width: 1060
Flags: W
HStem: 424 661<271 306 755 788>
VStem: 200 660<496 530 979 1014>
DStem2: 424 755 530 649 0.707107 0.707107<-329.475 0 149.907 478.354> 530 861 424 755 0.707107 -0.707107<-328.768 0 149.907 478.289>
LayerCount: 2
Fore
SplineSet
288 1085 m 0,0,1
 306 1085 306 1085 324 1067 c 2,2,-1
 530 861 l 1,3,-1
 737 1067 l 2,4,5
 755 1085 755 1085 771 1085 c 0,6,7
 788 1085 788 1085 807 1067 c 2,8,-1
 843 1032 l 2,9,10
 860 1015 860 1015 860 997 c 0,11,12
 860 978 860 978 843 961 c 2,13,-1
 636 755 l 1,14,-1
 842 549 l 2,15,16
 860 531 860 531 860 513.5 c 128,-1,17
 860 496 860 496 842 478 c 2,18,-1
 807 443 l 2,19,20
 790 426 790 426 772 426 c 0,21,22
 753 426 753 426 736 443 c 2,23,-1
 530 649 l 1,24,-1
 324 442 l 2,25,26
 306 424 306 424 288.5 424 c 128,-1,27
 271 424 271 424 253 442 c 2,28,-1
 218 477 l 2,29,30
 200 495 200 495 200 512 c 0,31,32
 200 530 200 530 218 548 c 2,33,-1
 424 755 l 1,34,-1
 218 961 l 2,35,36
 200 979 200 979 200 996.5 c 128,-1,37
 200 1014 200 1014 218 1032 c 2,38,-1
 253 1067 l 2,39,40
 271 1085 271 1085 288 1085 c 0,0,1
EndSplineSet
Validated: 1
EndChar

StartChar: divide
Encoding: 247 247 168
Width: 1132
Flags: W
HStem: 292 264<473.253 658.777> 672 150<150.195 981.805> 928 264<473.253 658.777>
VStem: 432 268<331.223 517.323 967.223 1153.32>
LayerCount: 2
Fore
SplineSet
566 1192 m 0,0,1
 625 1192 625 1192 660 1156 c 0,2,3
 700 1115 700 1115 700 1060 c 128,-1,4
 700 1005 700 1005 660 966 c 0,5,6
 621 928 621 928 566 928 c 0,7,8
 509 928 509 928 472 964 c 0,9,10
 432 1003 432 1003 432 1060 c 128,-1,11
 432 1117 432 1117 472 1154.5 c 128,-1,12
 512 1192 512 1192 566 1192 c 0,0,1
566 556 m 0,13,14
 625 556 625 556 660 520 c 0,15,16
 700 479 700 479 700 424 c 128,-1,17
 700 369 700 369 660 330 c 0,18,19
 621 292 621 292 566 292 c 0,20,21
 509 292 509 292 472 328 c 0,22,23
 432 367 432 367 432 424 c 128,-1,24
 432 481 432 481 472 518.5 c 128,-1,25
 512 556 512 556 566 556 c 0,13,14
200 822 m 2,26,-1
 932 822 l 2,27,28
 982 822 982 822 982 772 c 2,29,-1
 982 722 l 2,30,31
 982 672 982 672 932 672 c 2,32,-1
 200 672 l 2,33,34
 150 672 150 672 150 722 c 2,35,-1
 150 772 l 2,36,37
 150 822 150 822 200 822 c 2,26,-1
EndSplineSet
Validated: 1
EndChar

StartChar: Omacron
Encoding: 332 332 169
Width: 1514
Flags: W
HStem: -20 61<614.379 899.621> 1469 61<614.379 899.621> 1656 130<500 1000>
VStem: 100 222<458.224 1051.78> 1192 222<458.342 1051.89>
LayerCount: 2
Fore
SplineSet
757 41 m 128,-1,1
 956 41 956 41 1072 238 c 0,2,3
 1192 442 1192 442 1192 756 c 0,4,5
 1192 1068 1192 1068 1072 1272 c 0,6,7
 956 1469 956 1469 757 1469 c 128,-1,8
 558 1469 558 1469 442 1272 c 0,9,10
 322 1068 322 1068 322 755 c 128,-1,11
 322 442 322 442 442 238 c 0,12,0
 558 41 558 41 757 41 c 128,-1,1
757 -20 m 128,-1,14
 457 -20 457 -20 278 206 c 0,15,16
 100 430 100 430 100 755 c 128,-1,17
 100 1080 100 1080 278 1304 c 0,18,19
 457 1530 457 1530 757 1530 c 128,-1,20
 1057 1530 1057 1530 1236 1304 c 0,21,22
 1414 1080 1414 1080 1414 755 c 128,-1,23
 1414 430 1414 430 1236 206 c 0,24,13
 1057 -20 1057 -20 757 -20 c 128,-1,14
540 1786 m 2,25,-1
 960 1786 l 2,26,27
 1000 1786 1000 1786 1000 1746 c 2,28,-1
 1000 1696 l 2,29,30
 1000 1656 1000 1656 960 1656 c 2,31,-1
 540 1656 l 2,32,33
 500 1656 500 1656 500 1696 c 2,34,-1
 500 1746 l 2,35,36
 500 1786 500 1786 540 1786 c 2,25,-1
EndSplineSet
Validated: 1
EndChar

StartChar: omacron
Encoding: 333 333 170
Width: 1186
Flags: W
HStem: -20 50<497.604 688.888> 1070 50<494.16 691.84> 1246 130<350 850>
VStem: 100 198<296.884 806.34> 888 198<297.623 806.586>
LayerCount: 2
Fore
SplineSet
593 30 m 0,0,1
 711 30 711 30 797 156 c 0,2,3
 888 289 888 289 888 550 c 0,4,5
 888 815 888 815 794 952 c 0,6,7
 713 1070 713 1070 593 1070 c 128,-1,8
 473 1070 473 1070 392 952 c 0,9,10
 298 814 298 814 298 550 c 128,-1,11
 298 286 298 286 389 156 c 0,12,13
 477 30 477 30 593 30 c 0,0,1
593 -20 m 128,-1,15
 381 -20 381 -20 255 119 c 0,16,17
 100 289 100 289 100 550 c 0,18,19
 100 820 100 820 254 979 c 0,20,21
 391 1120 391 1120 593 1120 c 128,-1,22
 795 1120 795 1120 932 979 c 0,23,24
 1086 820 1086 820 1086 550 c 0,25,26
 1086 289 1086 289 931 119 c 0,27,14
 805 -20 805 -20 593 -20 c 128,-1,15
390 1376 m 2,28,-1
 810 1376 l 2,29,30
 850 1376 850 1376 850 1336 c 2,31,-1
 850 1286 l 2,32,33
 850 1246 850 1246 810 1246 c 2,34,-1
 390 1246 l 2,35,36
 350 1246 350 1246 350 1286 c 2,37,-1
 350 1336 l 2,38,39
 350 1376 350 1376 390 1376 c 2,28,-1
EndSplineSet
Validated: 1
EndChar

StartChar: Obreve
Encoding: 334 334 171
Width: 1514
Flags: W
HStem: -20 61<614.379 899.621> 1469 61<614.379 899.621> 1600 125<607.394 902.606>
VStem: 100 222<458.224 1051.78> 505 78<1758.44 1865> 927 78<1758.44 1865> 1192 222<458.342 1051.89>
LayerCount: 2
Fore
SplineSet
757 41 m 128,-1,1
 956 41 956 41 1072 238 c 0,2,3
 1192 442 1192 442 1192 756 c 0,4,5
 1192 1068 1192 1068 1072 1272 c 0,6,7
 956 1469 956 1469 757 1469 c 128,-1,8
 558 1469 558 1469 442 1272 c 0,9,10
 322 1068 322 1068 322 755 c 128,-1,11
 322 442 322 442 442 238 c 0,12,0
 558 41 558 41 757 41 c 128,-1,1
757 -20 m 128,-1,14
 457 -20 457 -20 278 206 c 0,15,16
 100 430 100 430 100 755 c 128,-1,17
 100 1080 100 1080 278 1304 c 0,18,19
 457 1530 457 1530 757 1530 c 128,-1,20
 1057 1530 1057 1530 1236 1304 c 0,21,22
 1414 1080 1414 1080 1414 755 c 128,-1,23
 1414 430 1414 430 1236 206 c 0,24,13
 1057 -20 1057 -20 757 -20 c 128,-1,14
530 1865 m 2,25,-1
 558 1865 l 2,26,27
 583 1865 583 1865 583 1840 c 0,28,29
 583 1725 583 1725 755 1725 c 128,-1,30
 927 1725 927 1725 927 1840 c 0,31,32
 927 1865 927 1865 952 1865 c 2,33,-1
 980 1865 l 2,34,35
 1005 1865 1005 1865 1005 1840 c 0,36,37
 1005 1600 1005 1600 755 1600 c 128,-1,38
 505 1600 505 1600 505 1840 c 0,39,40
 505 1865 505 1865 530 1865 c 2,25,-1
EndSplineSet
Validated: 1
EndChar

StartChar: obreve
Encoding: 335 335 172
Width: 1186
Flags: W
HStem: -20 50<497.604 688.888> 1070 50<494.16 691.84> 1190 125<452.394 747.606>
VStem: 100 198<296.884 806.34> 350 78<1348.44 1455> 772 78<1348.44 1455> 888 198<297.623 806.586>
LayerCount: 2
Fore
SplineSet
593 30 m 0,0,1
 711 30 711 30 797 156 c 0,2,3
 888 289 888 289 888 550 c 0,4,5
 888 815 888 815 794 952 c 0,6,7
 713 1070 713 1070 593 1070 c 128,-1,8
 473 1070 473 1070 392 952 c 0,9,10
 298 814 298 814 298 550 c 128,-1,11
 298 286 298 286 389 156 c 0,12,13
 477 30 477 30 593 30 c 0,0,1
593 -20 m 128,-1,15
 381 -20 381 -20 255 119 c 0,16,17
 100 289 100 289 100 550 c 0,18,19
 100 820 100 820 254 979 c 0,20,21
 391 1120 391 1120 593 1120 c 128,-1,22
 795 1120 795 1120 932 979 c 0,23,24
 1086 820 1086 820 1086 550 c 0,25,26
 1086 289 1086 289 931 119 c 0,27,14
 805 -20 805 -20 593 -20 c 128,-1,15
375 1455 m 2,28,-1
 403 1455 l 2,29,30
 428 1455 428 1455 428 1430 c 0,31,32
 428 1315 428 1315 600 1315 c 128,-1,33
 772 1315 772 1315 772 1430 c 0,34,35
 772 1455 772 1455 797 1455 c 2,36,-1
 825 1455 l 2,37,38
 850 1455 850 1455 850 1430 c 0,39,40
 850 1190 850 1190 600 1190 c 128,-1,41
 350 1190 350 1190 350 1430 c 0,42,43
 350 1455 350 1455 375 1455 c 2,28,-1
EndSplineSet
Validated: 1
EndChar

StartChar: Ohungarumlaut
Encoding: 336 336 173
Width: 1514
Flags: W
HStem: -20 61<614.379 899.621> 1469 61<614.379 899.621>
VStem: 100 222<458.224 1051.78> 1192 222<458.342 1051.89>
LayerCount: 2
Fore
SplineSet
757 41 m 128,-1,1
 956 41 956 41 1072 238 c 0,2,3
 1192 442 1192 442 1192 756 c 0,4,5
 1192 1068 1192 1068 1072 1272 c 0,6,7
 956 1469 956 1469 757 1469 c 128,-1,8
 558 1469 558 1469 442 1272 c 0,9,10
 322 1068 322 1068 322 755 c 128,-1,11
 322 442 322 442 442 238 c 0,12,0
 558 41 558 41 757 41 c 128,-1,1
757 -20 m 128,-1,14
 457 -20 457 -20 278 206 c 0,15,16
 100 430 100 430 100 755 c 128,-1,17
 100 1080 100 1080 278 1304 c 0,18,19
 457 1530 457 1530 757 1530 c 128,-1,20
 1057 1530 1057 1530 1236 1304 c 0,21,22
 1414 1080 1414 1080 1414 755 c 128,-1,23
 1414 430 1414 430 1236 206 c 0,24,13
 1057 -20 1057 -20 757 -20 c 128,-1,14
1102 1901 m 2,25,26
 1126 1901 1126 1901 1126 1886 c 0,27,28
 1126 1879 1126 1879 1120 1871 c 2,29,-1
 927 1626 l 2,30,31
 907 1600 907 1600 879 1600 c 2,32,-1
 858 1600 l 2,33,34
 837 1600 837 1600 837 1618 c 0,35,36
 837 1622 837 1622 840 1630 c 2,37,-1
 930 1871 l 2,38,39
 941 1901 941 1901 972 1901 c 2,40,-1
 1102 1901 l 2,25,26
862 1901 m 2,41,42
 886 1901 886 1901 886 1886 c 0,43,44
 886 1879 886 1879 880 1871 c 2,45,-1
 687 1626 l 2,46,47
 667 1600 667 1600 639 1600 c 2,48,-1
 618 1600 l 2,49,50
 597 1600 597 1600 597 1618 c 0,51,52
 597 1622 597 1622 600 1630 c 2,53,-1
 690 1871 l 2,54,55
 701 1901 701 1901 732 1901 c 2,56,-1
 862 1901 l 2,41,42
EndSplineSet
Validated: 1
EndChar

StartChar: ohungarumlaut
Encoding: 337 337 174
Width: 1186
Flags: W
HStem: -20 50<497.604 688.888> 1070 50<494.16 691.84>
VStem: 100 198<296.884 806.34> 888 198<297.623 806.586>
LayerCount: 2
Fore
SplineSet
593 30 m 0,0,1
 711 30 711 30 797 156 c 0,2,3
 888 289 888 289 888 550 c 0,4,5
 888 815 888 815 794 952 c 0,6,7
 713 1070 713 1070 593 1070 c 128,-1,8
 473 1070 473 1070 392 952 c 0,9,10
 298 814 298 814 298 550 c 128,-1,11
 298 286 298 286 389 156 c 0,12,13
 477 30 477 30 593 30 c 0,0,1
593 -20 m 128,-1,15
 381 -20 381 -20 255 119 c 0,16,17
 100 289 100 289 100 550 c 0,18,19
 100 820 100 820 254 979 c 0,20,21
 391 1120 391 1120 593 1120 c 128,-1,22
 795 1120 795 1120 932 979 c 0,23,24
 1086 820 1086 820 1086 550 c 0,25,26
 1086 289 1086 289 931 119 c 0,27,14
 805 -20 805 -20 593 -20 c 128,-1,15
930 1491 m 2,28,29
 954 1491 954 1491 954 1476 c 0,30,31
 954 1469 954 1469 948 1461 c 2,32,-1
 755 1216 l 2,33,34
 735 1190 735 1190 707 1190 c 2,35,-1
 686 1190 l 2,36,37
 665 1190 665 1190 665 1208 c 0,38,39
 665 1212 665 1212 668 1220 c 2,40,-1
 758 1461 l 2,41,42
 769 1491 769 1491 800 1491 c 2,43,-1
 930 1491 l 2,28,29
690 1491 m 2,44,45
 714 1491 714 1491 714 1476 c 0,46,47
 714 1469 714 1469 708 1461 c 2,48,-1
 515 1216 l 2,49,50
 495 1190 495 1190 467 1190 c 2,51,-1
 446 1190 l 2,52,53
 425 1190 425 1190 425 1208 c 0,54,55
 425 1212 425 1212 428 1220 c 2,56,-1
 518 1461 l 2,57,58
 529 1491 529 1491 560 1491 c 2,59,-1
 690 1491 l 2,44,45
EndSplineSet
Validated: 1
EndChar

